M48
;DRILL file {Pcbnew (2013-jul-07)-stable} date Mon 13 Apr 2015 11:00:29 AM PDT
;FORMAT={-:-/ absolute / metric / decimal}
FMAT,2
METRIC,TZ
T1C0.300
T2C0.813
T3C1.016
%
G90
G05
M71
T1
X228.321Y-118.161
X236.987Y-152.999
T2
X220.335Y-109.179
X220.335Y-116.799
X223.032Y-144.841
X225.572Y-144.841
X227.294Y-86.858
X229.834Y-86.858
X229.86Y-144.135
X229.86Y-151.755
X232.842Y-93.629
X232.842Y-98.709
X233.324Y-143.408
X233.324Y-151.028
X235.189Y-112.365
X235.189Y-119.985
X237.729Y-112.365
X237.729Y-119.985
X240.269Y-112.365
X240.269Y-119.985
X240.462Y-93.629
X240.462Y-98.709
X242.809Y-112.365
X242.809Y-119.985
X244.424Y-141.884
X244.424Y-149.504
X249.113Y-141.813
X249.113Y-149.433
X249.616Y-106.944
X249.616Y-114.564
X252.87Y-109.69
X252.87Y-117.31
X253.467Y-140.818
X256.007Y-140.818
X256.413Y-113.665
X256.413Y-121.285
X257.099Y-129.413
X257.099Y-137.033
T3
X216.032Y-118.831
X216.032Y-121.371
X216.032Y-123.911
X220.828Y-121.488
X220.828Y-124.028
X220.828Y-126.568
X220.828Y-129.108
X220.828Y-131.648
X220.828Y-134.188
X239.715Y-85.664
X242.255Y-85.664
X244.795Y-85.664
X247.335Y-85.664
T0
M30
