M48
;DRILL file {KiCad 0.201507042246+5884~23~ubuntu14.04.1-product} date Thu 09 Jul 2015 02:20:44 PM PDT
;FORMAT={-:-/ absolute / metric / decimal}
FMAT,2
METRIC,TZ
T1C0.300
T2C0.800
T3C0.800
T4C0.813
T5C1.001
T6C1.016
%
G90
G05
M71
T1
X201.32Y-115.621
X202.311Y-133.248
X205.461Y-110.414
X206.553Y-133.274
X209.321Y-131.775
X217.424Y-146.761
X221.717Y-145.237
X222.961Y-108.026
X224.46Y-143.459
X231.445Y-122.885
X232.156Y-111.709
T2
X194.462Y-111.252
X204.038Y-116.891
X208.458Y-118.389
X216.205Y-108.788
X219.837Y-110.109
X219.837Y-112.649
X219.837Y-115.189
X219.837Y-117.729
X219.837Y-120.269
X219.837Y-122.809
X219.837Y-125.349
X219.837Y-127.889
X219.837Y-130.429
X219.837Y-132.969
X219.837Y-135.509
X219.837Y-138.049
X219.837Y-140.589
X219.837Y-143.129
X227.457Y-110.109
X227.457Y-112.649
X227.457Y-115.189
X227.457Y-117.729
X227.457Y-120.269
X227.457Y-122.809
X227.457Y-125.349
X227.457Y-127.889
X227.457Y-130.429
X227.457Y-132.969
X227.457Y-135.509
X227.457Y-138.049
X227.457Y-140.589
X227.457Y-143.129
X238.252Y-119.761
T3
X194.462Y-113.752
X204.038Y-114.391
X208.458Y-115.889
X210.922Y-93.6
X213.705Y-108.788
X215.798Y-93.344
X238.252Y-117.261
T4
X198.12Y-121.615
X198.12Y-126.695
X199.644Y-130.861
X199.644Y-135.941
X205.74Y-121.615
X205.74Y-126.695
X206.4Y-141.326
X206.4Y-146.406
X207.264Y-130.861
X207.264Y-135.941
X214.02Y-141.326
X214.02Y-146.406
T5
X192.809Y-116.51
X193.677Y-121.435
X193.886Y-124.446
X195.597Y-129.145
X195.64Y-132.271
X197.35Y-136.971
X199.124Y-139.531
X202.86Y-77.978
X203.824Y-141.242
X204.318Y-83.363
X206.858Y-83.363
X207.861Y-77.978
X217.884Y-77.523
X219.558Y-81.483
X222.098Y-81.483
X222.809Y-76.655
X227.857Y-105.021
X230.358Y-109.353
X232.913Y-106.166
X235.414Y-110.498
T6
X196.469Y-118.11
X198.628Y-71.755
X199.009Y-118.11
X200.424Y-73.551
X211.836Y-114.173
X211.836Y-116.713
X211.836Y-119.253
X211.836Y-121.793
X211.836Y-124.333
X211.836Y-126.873
X211.836Y-129.413
X211.836Y-131.953
X211.836Y-134.493
X211.836Y-137.033
X225.425Y-70.907
X226.695Y-68.707
X235.331Y-114.173
X235.331Y-116.713
X235.331Y-119.253
X235.331Y-121.793
X235.331Y-124.333
X235.331Y-126.873
X235.331Y-129.413
X235.331Y-131.953
X235.331Y-134.493
X235.331Y-137.033
T0
M30
