G04 #@! TF.FileFunction,Legend,Top*
%FSLAX46Y46*%
G04 Gerber Fmt 4.6, Leading zero omitted, Abs format (unit mm)*
G04 Created by KiCad (PCBNEW 0.201507042246+5884~23~ubuntu14.04.1-product) date Thu 09 Jul 2015 02:20:40 PM PDT*
%MOMM*%
G01*
G04 APERTURE LIST*
%ADD10C,0.150000*%
%ADD11C,0.250000*%
%ADD12C,0.125000*%
%ADD13C,0.300000*%
%ADD14C,0.187500*%
G04 APERTURE END LIST*
D10*
D11*
X220448808Y-147099281D02*
X220353570Y-147051662D01*
X220305951Y-147004043D01*
X220258332Y-146908805D01*
X220258332Y-146623090D01*
X220305951Y-146527852D01*
X220353570Y-146480233D01*
X220448808Y-146432614D01*
X220591666Y-146432614D01*
X220686904Y-146480233D01*
X220734523Y-146527852D01*
X220782142Y-146623090D01*
X220782142Y-146908805D01*
X220734523Y-147004043D01*
X220686904Y-147051662D01*
X220591666Y-147099281D01*
X220448808Y-147099281D01*
X221115475Y-146432614D02*
X221305951Y-147099281D01*
X221496428Y-146623090D01*
X221686904Y-147099281D01*
X221877380Y-146432614D01*
X222401189Y-147099281D02*
X222305951Y-147051662D01*
X222258332Y-146956424D01*
X222258332Y-146099281D01*
X223163095Y-147051662D02*
X223067857Y-147099281D01*
X222877380Y-147099281D01*
X222782142Y-147051662D01*
X222734523Y-146956424D01*
X222734523Y-146575471D01*
X222782142Y-146480233D01*
X222877380Y-146432614D01*
X223067857Y-146432614D01*
X223163095Y-146480233D01*
X223210714Y-146575471D01*
X223210714Y-146670710D01*
X222734523Y-146765948D01*
X223496428Y-146432614D02*
X223877380Y-146432614D01*
X223639285Y-146099281D02*
X223639285Y-146956424D01*
X223686904Y-147051662D01*
X223782142Y-147099281D01*
X223877380Y-147099281D01*
X224544048Y-146575471D02*
X224686905Y-146623090D01*
X224734524Y-146670710D01*
X224782143Y-146765948D01*
X224782143Y-146908805D01*
X224734524Y-147004043D01*
X224686905Y-147051662D01*
X224591667Y-147099281D01*
X224210714Y-147099281D01*
X224210714Y-146099281D01*
X224544048Y-146099281D01*
X224639286Y-146146900D01*
X224686905Y-146194519D01*
X224734524Y-146289757D01*
X224734524Y-146384995D01*
X224686905Y-146480233D01*
X224639286Y-146527852D01*
X224544048Y-146575471D01*
X224210714Y-146575471D01*
X225353571Y-147099281D02*
X225258333Y-147051662D01*
X225210714Y-147004043D01*
X225163095Y-146908805D01*
X225163095Y-146623090D01*
X225210714Y-146527852D01*
X225258333Y-146480233D01*
X225353571Y-146432614D01*
X225496429Y-146432614D01*
X225591667Y-146480233D01*
X225639286Y-146527852D01*
X225686905Y-146623090D01*
X225686905Y-146908805D01*
X225639286Y-147004043D01*
X225591667Y-147051662D01*
X225496429Y-147099281D01*
X225353571Y-147099281D01*
X226544048Y-147099281D02*
X226544048Y-146575471D01*
X226496429Y-146480233D01*
X226401191Y-146432614D01*
X226210714Y-146432614D01*
X226115476Y-146480233D01*
X226544048Y-147051662D02*
X226448810Y-147099281D01*
X226210714Y-147099281D01*
X226115476Y-147051662D01*
X226067857Y-146956424D01*
X226067857Y-146861186D01*
X226115476Y-146765948D01*
X226210714Y-146718329D01*
X226448810Y-146718329D01*
X226544048Y-146670710D01*
X227020238Y-147099281D02*
X227020238Y-146432614D01*
X227020238Y-146623090D02*
X227067857Y-146527852D01*
X227115476Y-146480233D01*
X227210714Y-146432614D01*
X227305953Y-146432614D01*
X228067858Y-147099281D02*
X228067858Y-146099281D01*
X228067858Y-147051662D02*
X227972620Y-147099281D01*
X227782143Y-147099281D01*
X227686905Y-147051662D01*
X227639286Y-147004043D01*
X227591667Y-146908805D01*
X227591667Y-146623090D01*
X227639286Y-146527852D01*
X227686905Y-146480233D01*
X227782143Y-146432614D01*
X227972620Y-146432614D01*
X228067858Y-146480233D01*
X229210715Y-146432614D02*
X229448810Y-147099281D01*
X229686906Y-146432614D01*
X230020239Y-146194519D02*
X230067858Y-146146900D01*
X230163096Y-146099281D01*
X230401192Y-146099281D01*
X230496430Y-146146900D01*
X230544049Y-146194519D01*
X230591668Y-146289757D01*
X230591668Y-146384995D01*
X230544049Y-146527852D01*
X229972620Y-147099281D01*
X230591668Y-147099281D01*
D12*
X200979186Y-103117605D02*
X200979186Y-102317605D01*
X201322043Y-103117605D02*
X201322043Y-102698557D01*
X201283948Y-102622367D01*
X201207758Y-102584271D01*
X201093472Y-102584271D01*
X201017281Y-102622367D01*
X200979186Y-102660462D01*
X201588710Y-102584271D02*
X201893472Y-102584271D01*
X201702996Y-102317605D02*
X201702996Y-103003319D01*
X201741091Y-103079510D01*
X201817282Y-103117605D01*
X201893472Y-103117605D01*
X202045853Y-102584271D02*
X202350615Y-102584271D01*
X202160139Y-102317605D02*
X202160139Y-103003319D01*
X202198234Y-103079510D01*
X202274425Y-103117605D01*
X202350615Y-103117605D01*
X202617282Y-102584271D02*
X202617282Y-103384271D01*
X202617282Y-102622367D02*
X202693473Y-102584271D01*
X202845854Y-102584271D01*
X202922044Y-102622367D01*
X202960139Y-102660462D01*
X202998235Y-102736652D01*
X202998235Y-102965224D01*
X202960139Y-103041414D01*
X202922044Y-103079510D01*
X202845854Y-103117605D01*
X202693473Y-103117605D01*
X202617282Y-103079510D01*
X203341092Y-103041414D02*
X203379187Y-103079510D01*
X203341092Y-103117605D01*
X203302997Y-103079510D01*
X203341092Y-103041414D01*
X203341092Y-103117605D01*
X203341092Y-102622367D02*
X203379187Y-102660462D01*
X203341092Y-102698557D01*
X203302997Y-102660462D01*
X203341092Y-102622367D01*
X203341092Y-102698557D01*
X204293473Y-102279510D02*
X203607758Y-103308081D01*
X205131568Y-102279510D02*
X204445853Y-103308081D01*
X205322044Y-102584271D02*
X205474425Y-103117605D01*
X205626806Y-102736652D01*
X205779187Y-103117605D01*
X205931568Y-102584271D01*
X206160139Y-102584271D02*
X206312520Y-103117605D01*
X206464901Y-102736652D01*
X206617282Y-103117605D01*
X206769663Y-102584271D01*
X206998234Y-102584271D02*
X207150615Y-103117605D01*
X207302996Y-102736652D01*
X207455377Y-103117605D01*
X207607758Y-102584271D01*
X207912519Y-103041414D02*
X207950614Y-103079510D01*
X207912519Y-103117605D01*
X207874424Y-103079510D01*
X207912519Y-103041414D01*
X207912519Y-103117605D01*
X208407757Y-103117605D02*
X208331566Y-103079510D01*
X208293471Y-103041414D01*
X208255376Y-102965224D01*
X208255376Y-102736652D01*
X208293471Y-102660462D01*
X208331566Y-102622367D01*
X208407757Y-102584271D01*
X208522043Y-102584271D01*
X208598233Y-102622367D01*
X208636328Y-102660462D01*
X208674424Y-102736652D01*
X208674424Y-102965224D01*
X208636328Y-103041414D01*
X208598233Y-103079510D01*
X208522043Y-103117605D01*
X208407757Y-103117605D01*
X209017281Y-103117605D02*
X209017281Y-102584271D01*
X209017281Y-102317605D02*
X208979186Y-102355700D01*
X209017281Y-102393795D01*
X209055376Y-102355700D01*
X209017281Y-102317605D01*
X209017281Y-102393795D01*
X209283947Y-102584271D02*
X209588709Y-102584271D01*
X209398233Y-102317605D02*
X209398233Y-103003319D01*
X209436328Y-103079510D01*
X209512519Y-103117605D01*
X209588709Y-103117605D01*
X209855376Y-103041414D02*
X209893471Y-103079510D01*
X209855376Y-103117605D01*
X209817281Y-103079510D01*
X209855376Y-103041414D01*
X209855376Y-103117605D01*
X210541090Y-103079510D02*
X210464900Y-103117605D01*
X210312519Y-103117605D01*
X210236328Y-103079510D01*
X210198233Y-103003319D01*
X210198233Y-102698557D01*
X210236328Y-102622367D01*
X210312519Y-102584271D01*
X210464900Y-102584271D01*
X210541090Y-102622367D01*
X210579185Y-102698557D01*
X210579185Y-102774748D01*
X210198233Y-102850938D01*
X211264899Y-103117605D02*
X211264899Y-102317605D01*
X211264899Y-103079510D02*
X211188709Y-103117605D01*
X211036328Y-103117605D01*
X210960137Y-103079510D01*
X210922042Y-103041414D01*
X210883947Y-102965224D01*
X210883947Y-102736652D01*
X210922042Y-102660462D01*
X210960137Y-102622367D01*
X211036328Y-102584271D01*
X211188709Y-102584271D01*
X211264899Y-102622367D01*
X211988709Y-102584271D02*
X211988709Y-103117605D01*
X211645852Y-102584271D02*
X211645852Y-103003319D01*
X211683947Y-103079510D01*
X211760138Y-103117605D01*
X211874424Y-103117605D01*
X211950614Y-103079510D01*
X211988709Y-103041414D01*
X212941091Y-102279510D02*
X212255376Y-103308081D01*
X213550614Y-103117605D02*
X213550614Y-102698557D01*
X213512519Y-102622367D01*
X213436329Y-102584271D01*
X213283948Y-102584271D01*
X213207757Y-102622367D01*
X213550614Y-103079510D02*
X213474424Y-103117605D01*
X213283948Y-103117605D01*
X213207757Y-103079510D01*
X213169662Y-103003319D01*
X213169662Y-102927129D01*
X213207757Y-102850938D01*
X213283948Y-102812843D01*
X213474424Y-102812843D01*
X213550614Y-102774748D01*
X214274424Y-103079510D02*
X214198234Y-103117605D01*
X214045853Y-103117605D01*
X213969662Y-103079510D01*
X213931567Y-103041414D01*
X213893472Y-102965224D01*
X213893472Y-102736652D01*
X213931567Y-102660462D01*
X213969662Y-102622367D01*
X214045853Y-102584271D01*
X214198234Y-102584271D01*
X214274424Y-102622367D01*
X214960138Y-103117605D02*
X214960138Y-102698557D01*
X214922043Y-102622367D01*
X214845853Y-102584271D01*
X214693472Y-102584271D01*
X214617281Y-102622367D01*
X214960138Y-103079510D02*
X214883948Y-103117605D01*
X214693472Y-103117605D01*
X214617281Y-103079510D01*
X214579186Y-103003319D01*
X214579186Y-102927129D01*
X214617281Y-102850938D01*
X214693472Y-102812843D01*
X214883948Y-102812843D01*
X214960138Y-102774748D01*
X215683948Y-103117605D02*
X215683948Y-102317605D01*
X215683948Y-103079510D02*
X215607758Y-103117605D01*
X215455377Y-103117605D01*
X215379186Y-103079510D01*
X215341091Y-103041414D01*
X215302996Y-102965224D01*
X215302996Y-102736652D01*
X215341091Y-102660462D01*
X215379186Y-102622367D01*
X215455377Y-102584271D01*
X215607758Y-102584271D01*
X215683948Y-102622367D01*
X216369663Y-103079510D02*
X216293473Y-103117605D01*
X216141092Y-103117605D01*
X216064901Y-103079510D01*
X216026806Y-103003319D01*
X216026806Y-102698557D01*
X216064901Y-102622367D01*
X216141092Y-102584271D01*
X216293473Y-102584271D01*
X216369663Y-102622367D01*
X216407758Y-102698557D01*
X216407758Y-102774748D01*
X216026806Y-102850938D01*
X216750615Y-103117605D02*
X216750615Y-102584271D01*
X216750615Y-102660462D02*
X216788710Y-102622367D01*
X216864901Y-102584271D01*
X216979187Y-102584271D01*
X217055377Y-102622367D01*
X217093472Y-102698557D01*
X217093472Y-103117605D01*
X217093472Y-102698557D02*
X217131568Y-102622367D01*
X217207758Y-102584271D01*
X217322044Y-102584271D01*
X217398234Y-102622367D01*
X217436329Y-102698557D01*
X217436329Y-103117605D01*
X217817282Y-103117605D02*
X217817282Y-102584271D01*
X217817282Y-102317605D02*
X217779187Y-102355700D01*
X217817282Y-102393795D01*
X217855377Y-102355700D01*
X217817282Y-102317605D01*
X217817282Y-102393795D01*
X218541091Y-103079510D02*
X218464901Y-103117605D01*
X218312520Y-103117605D01*
X218236329Y-103079510D01*
X218198234Y-103041414D01*
X218160139Y-102965224D01*
X218160139Y-102736652D01*
X218198234Y-102660462D01*
X218236329Y-102622367D01*
X218312520Y-102584271D01*
X218464901Y-102584271D01*
X218541091Y-102622367D01*
X218845853Y-103079510D02*
X218922043Y-103117605D01*
X219074424Y-103117605D01*
X219150615Y-103079510D01*
X219188710Y-103003319D01*
X219188710Y-102965224D01*
X219150615Y-102889033D01*
X219074424Y-102850938D01*
X218960139Y-102850938D01*
X218883948Y-102812843D01*
X218845853Y-102736652D01*
X218845853Y-102698557D01*
X218883948Y-102622367D01*
X218960139Y-102584271D01*
X219074424Y-102584271D01*
X219150615Y-102622367D01*
X220102996Y-102279510D02*
X219417281Y-103308081D01*
X220712519Y-103117605D02*
X220712519Y-102317605D01*
X220712519Y-103079510D02*
X220636329Y-103117605D01*
X220483948Y-103117605D01*
X220407757Y-103079510D01*
X220369662Y-103041414D01*
X220331567Y-102965224D01*
X220331567Y-102736652D01*
X220369662Y-102660462D01*
X220407757Y-102622367D01*
X220483948Y-102584271D01*
X220636329Y-102584271D01*
X220712519Y-102622367D01*
X221398234Y-103079510D02*
X221322044Y-103117605D01*
X221169663Y-103117605D01*
X221093472Y-103079510D01*
X221055377Y-103003319D01*
X221055377Y-102698557D01*
X221093472Y-102622367D01*
X221169663Y-102584271D01*
X221322044Y-102584271D01*
X221398234Y-102622367D01*
X221436329Y-102698557D01*
X221436329Y-102774748D01*
X221055377Y-102850938D01*
X222122043Y-102584271D02*
X222122043Y-103231890D01*
X222083948Y-103308081D01*
X222045853Y-103346176D01*
X221969662Y-103384271D01*
X221855377Y-103384271D01*
X221779186Y-103346176D01*
X222122043Y-103079510D02*
X222045853Y-103117605D01*
X221893472Y-103117605D01*
X221817281Y-103079510D01*
X221779186Y-103041414D01*
X221741091Y-102965224D01*
X221741091Y-102736652D01*
X221779186Y-102660462D01*
X221817281Y-102622367D01*
X221893472Y-102584271D01*
X222045853Y-102584271D01*
X222122043Y-102622367D01*
X222502996Y-103117605D02*
X222502996Y-102584271D01*
X222502996Y-102736652D02*
X222541091Y-102660462D01*
X222579187Y-102622367D01*
X222655377Y-102584271D01*
X222731568Y-102584271D01*
X223302996Y-103079510D02*
X223226806Y-103117605D01*
X223074425Y-103117605D01*
X222998234Y-103079510D01*
X222960139Y-103003319D01*
X222960139Y-102698557D01*
X222998234Y-102622367D01*
X223074425Y-102584271D01*
X223226806Y-102584271D01*
X223302996Y-102622367D01*
X223341091Y-102698557D01*
X223341091Y-102774748D01*
X222960139Y-102850938D01*
X223988710Y-103079510D02*
X223912520Y-103117605D01*
X223760139Y-103117605D01*
X223683948Y-103079510D01*
X223645853Y-103003319D01*
X223645853Y-102698557D01*
X223683948Y-102622367D01*
X223760139Y-102584271D01*
X223912520Y-102584271D01*
X223988710Y-102622367D01*
X224026805Y-102698557D01*
X224026805Y-102774748D01*
X223645853Y-102850938D01*
X224331567Y-103079510D02*
X224407757Y-103117605D01*
X224560138Y-103117605D01*
X224636329Y-103079510D01*
X224674424Y-103003319D01*
X224674424Y-102965224D01*
X224636329Y-102889033D01*
X224560138Y-102850938D01*
X224445853Y-102850938D01*
X224369662Y-102812843D01*
X224331567Y-102736652D01*
X224331567Y-102698557D01*
X224369662Y-102622367D01*
X224445853Y-102584271D01*
X224560138Y-102584271D01*
X224636329Y-102622367D01*
X225588710Y-102279510D02*
X224902995Y-103308081D01*
X226198233Y-103079510D02*
X226122043Y-103117605D01*
X225969662Y-103117605D01*
X225893471Y-103079510D01*
X225855376Y-103041414D01*
X225817281Y-102965224D01*
X225817281Y-102736652D01*
X225855376Y-102660462D01*
X225893471Y-102622367D01*
X225969662Y-102584271D01*
X226122043Y-102584271D01*
X226198233Y-102622367D01*
X226502995Y-103079510D02*
X226579185Y-103117605D01*
X226731566Y-103117605D01*
X226807757Y-103079510D01*
X226845852Y-103003319D01*
X226845852Y-102965224D01*
X226807757Y-102889033D01*
X226731566Y-102850938D01*
X226617281Y-102850938D01*
X226541090Y-102812843D01*
X226502995Y-102736652D01*
X226502995Y-102698557D01*
X226541090Y-102622367D01*
X226617281Y-102584271D01*
X226731566Y-102584271D01*
X226807757Y-102622367D01*
X227493471Y-103079510D02*
X227417281Y-103117605D01*
X227264900Y-103117605D01*
X227188709Y-103079510D01*
X227150614Y-103003319D01*
X227150614Y-102698557D01*
X227188709Y-102622367D01*
X227264900Y-102584271D01*
X227417281Y-102584271D01*
X227493471Y-102622367D01*
X227531566Y-102698557D01*
X227531566Y-102774748D01*
X227150614Y-102850938D01*
X227760137Y-102584271D02*
X228064899Y-102584271D01*
X227874423Y-102317605D02*
X227874423Y-103003319D01*
X227912518Y-103079510D01*
X227988709Y-103117605D01*
X228064899Y-103117605D01*
D11*
X200417288Y-101076071D02*
X200360145Y-101133214D01*
X200188716Y-101190357D01*
X200074430Y-101190357D01*
X199903002Y-101133214D01*
X199788716Y-101018929D01*
X199731573Y-100904643D01*
X199674430Y-100676071D01*
X199674430Y-100504643D01*
X199731573Y-100276071D01*
X199788716Y-100161786D01*
X199903002Y-100047500D01*
X200074430Y-99990357D01*
X200188716Y-99990357D01*
X200360145Y-100047500D01*
X200417288Y-100104643D01*
X201103002Y-101190357D02*
X200988716Y-101133214D01*
X200931573Y-101076071D01*
X200874430Y-100961786D01*
X200874430Y-100618929D01*
X200931573Y-100504643D01*
X200988716Y-100447500D01*
X201103002Y-100390357D01*
X201274430Y-100390357D01*
X201388716Y-100447500D01*
X201445859Y-100504643D01*
X201503002Y-100618929D01*
X201503002Y-100961786D01*
X201445859Y-101076071D01*
X201388716Y-101133214D01*
X201274430Y-101190357D01*
X201103002Y-101190357D01*
X202017287Y-101190357D02*
X202017287Y-100390357D01*
X202017287Y-100504643D02*
X202074430Y-100447500D01*
X202188716Y-100390357D01*
X202360144Y-100390357D01*
X202474430Y-100447500D01*
X202531573Y-100561786D01*
X202531573Y-101190357D01*
X202531573Y-100561786D02*
X202588716Y-100447500D01*
X202703002Y-100390357D01*
X202874430Y-100390357D01*
X202988716Y-100447500D01*
X203045859Y-100561786D01*
X203045859Y-101190357D01*
X203617287Y-100390357D02*
X203617287Y-101590357D01*
X203617287Y-100447500D02*
X203731573Y-100390357D01*
X203960144Y-100390357D01*
X204074430Y-100447500D01*
X204131573Y-100504643D01*
X204188716Y-100618929D01*
X204188716Y-100961786D01*
X204131573Y-101076071D01*
X204074430Y-101133214D01*
X203960144Y-101190357D01*
X203731573Y-101190357D01*
X203617287Y-101133214D01*
X205217287Y-100390357D02*
X205217287Y-101190357D01*
X204703001Y-100390357D02*
X204703001Y-101018929D01*
X204760144Y-101133214D01*
X204874430Y-101190357D01*
X205045858Y-101190357D01*
X205160144Y-101133214D01*
X205217287Y-101076071D01*
X205617287Y-100390357D02*
X206074430Y-100390357D01*
X205788715Y-99990357D02*
X205788715Y-101018929D01*
X205845858Y-101133214D01*
X205960144Y-101190357D01*
X206074430Y-101190357D01*
X206931572Y-101133214D02*
X206817286Y-101190357D01*
X206588715Y-101190357D01*
X206474429Y-101133214D01*
X206417286Y-101018929D01*
X206417286Y-100561786D01*
X206474429Y-100447500D01*
X206588715Y-100390357D01*
X206817286Y-100390357D01*
X206931572Y-100447500D01*
X206988715Y-100561786D01*
X206988715Y-100676071D01*
X206417286Y-100790357D01*
X207503000Y-101190357D02*
X207503000Y-100390357D01*
X207503000Y-100618929D02*
X207560143Y-100504643D01*
X207617286Y-100447500D01*
X207731572Y-100390357D01*
X207845857Y-100390357D01*
X209160143Y-101076071D02*
X209217286Y-101133214D01*
X209160143Y-101190357D01*
X209103000Y-101133214D01*
X209160143Y-101076071D01*
X209160143Y-101190357D01*
X210588715Y-101133214D02*
X210760144Y-101190357D01*
X211045858Y-101190357D01*
X211160144Y-101133214D01*
X211217287Y-101076071D01*
X211274430Y-100961786D01*
X211274430Y-100847500D01*
X211217287Y-100733214D01*
X211160144Y-100676071D01*
X211045858Y-100618929D01*
X210817287Y-100561786D01*
X210703001Y-100504643D01*
X210645858Y-100447500D01*
X210588715Y-100333214D01*
X210588715Y-100218929D01*
X210645858Y-100104643D01*
X210703001Y-100047500D01*
X210817287Y-99990357D01*
X211103001Y-99990357D01*
X211274430Y-100047500D01*
X211960144Y-101190357D02*
X211845858Y-101133214D01*
X211788715Y-101076071D01*
X211731572Y-100961786D01*
X211731572Y-100618929D01*
X211788715Y-100504643D01*
X211845858Y-100447500D01*
X211960144Y-100390357D01*
X212131572Y-100390357D01*
X212245858Y-100447500D01*
X212303001Y-100504643D01*
X212360144Y-100618929D01*
X212360144Y-100961786D01*
X212303001Y-101076071D01*
X212245858Y-101133214D01*
X212131572Y-101190357D01*
X211960144Y-101190357D01*
X212703001Y-100390357D02*
X213160144Y-100390357D01*
X212874429Y-101190357D02*
X212874429Y-100161786D01*
X212931572Y-100047500D01*
X213045858Y-99990357D01*
X213160144Y-99990357D01*
X213388715Y-100390357D02*
X213845858Y-100390357D01*
X213560143Y-99990357D02*
X213560143Y-101018929D01*
X213617286Y-101133214D01*
X213731572Y-101190357D01*
X213845858Y-101190357D01*
X214131572Y-100390357D02*
X214360143Y-101190357D01*
X214588714Y-100618929D01*
X214817286Y-101190357D01*
X215045857Y-100390357D01*
X216017286Y-101190357D02*
X216017286Y-100561786D01*
X215960143Y-100447500D01*
X215845857Y-100390357D01*
X215617286Y-100390357D01*
X215503000Y-100447500D01*
X216017286Y-101133214D02*
X215903000Y-101190357D01*
X215617286Y-101190357D01*
X215503000Y-101133214D01*
X215445857Y-101018929D01*
X215445857Y-100904643D01*
X215503000Y-100790357D01*
X215617286Y-100733214D01*
X215903000Y-100733214D01*
X216017286Y-100676071D01*
X216588714Y-101190357D02*
X216588714Y-100390357D01*
X216588714Y-100618929D02*
X216645857Y-100504643D01*
X216703000Y-100447500D01*
X216817286Y-100390357D01*
X216931571Y-100390357D01*
X217788714Y-101133214D02*
X217674428Y-101190357D01*
X217445857Y-101190357D01*
X217331571Y-101133214D01*
X217274428Y-101018929D01*
X217274428Y-100561786D01*
X217331571Y-100447500D01*
X217445857Y-100390357D01*
X217674428Y-100390357D01*
X217788714Y-100447500D01*
X217845857Y-100561786D01*
X217845857Y-100676071D01*
X217274428Y-100790357D01*
X219274428Y-101076071D02*
X219331571Y-101133214D01*
X219274428Y-101190357D01*
X219217285Y-101133214D01*
X219274428Y-101076071D01*
X219274428Y-101190357D01*
X220760143Y-100561786D02*
X221160143Y-100561786D01*
X221331572Y-101190357D02*
X220760143Y-101190357D01*
X220760143Y-99990357D01*
X221331572Y-99990357D01*
X221845857Y-101190357D02*
X221845857Y-100390357D01*
X221845857Y-100504643D02*
X221903000Y-100447500D01*
X222017286Y-100390357D01*
X222188714Y-100390357D01*
X222303000Y-100447500D01*
X222360143Y-100561786D01*
X222360143Y-101190357D01*
X222360143Y-100561786D02*
X222417286Y-100447500D01*
X222531572Y-100390357D01*
X222703000Y-100390357D01*
X222817286Y-100447500D01*
X222874429Y-100561786D01*
X222874429Y-101190357D01*
X223445857Y-101190357D02*
X223445857Y-99990357D01*
X223445857Y-100447500D02*
X223560143Y-100390357D01*
X223788714Y-100390357D01*
X223903000Y-100447500D01*
X223960143Y-100504643D01*
X224017286Y-100618929D01*
X224017286Y-100961786D01*
X223960143Y-101076071D01*
X223903000Y-101133214D01*
X223788714Y-101190357D01*
X223560143Y-101190357D01*
X223445857Y-101133214D01*
X224988714Y-101133214D02*
X224874428Y-101190357D01*
X224645857Y-101190357D01*
X224531571Y-101133214D01*
X224474428Y-101018929D01*
X224474428Y-100561786D01*
X224531571Y-100447500D01*
X224645857Y-100390357D01*
X224874428Y-100390357D01*
X224988714Y-100447500D01*
X225045857Y-100561786D01*
X225045857Y-100676071D01*
X224474428Y-100790357D01*
X226074428Y-101190357D02*
X226074428Y-99990357D01*
X226074428Y-101133214D02*
X225960142Y-101190357D01*
X225731571Y-101190357D01*
X225617285Y-101133214D01*
X225560142Y-101076071D01*
X225502999Y-100961786D01*
X225502999Y-100618929D01*
X225560142Y-100504643D01*
X225617285Y-100447500D01*
X225731571Y-100390357D01*
X225960142Y-100390357D01*
X226074428Y-100447500D01*
X227160142Y-101190357D02*
X227160142Y-99990357D01*
X227160142Y-101133214D02*
X227045856Y-101190357D01*
X226817285Y-101190357D01*
X226702999Y-101133214D01*
X226645856Y-101076071D01*
X226588713Y-100961786D01*
X226588713Y-100618929D01*
X226645856Y-100504643D01*
X226702999Y-100447500D01*
X226817285Y-100390357D01*
X227045856Y-100390357D01*
X227160142Y-100447500D01*
X228188713Y-101133214D02*
X228074427Y-101190357D01*
X227845856Y-101190357D01*
X227731570Y-101133214D01*
X227674427Y-101018929D01*
X227674427Y-100561786D01*
X227731570Y-100447500D01*
X227845856Y-100390357D01*
X228074427Y-100390357D01*
X228188713Y-100447500D01*
X228245856Y-100561786D01*
X228245856Y-100676071D01*
X227674427Y-100790357D01*
X229274427Y-101190357D02*
X229274427Y-99990357D01*
X229274427Y-101133214D02*
X229160141Y-101190357D01*
X228931570Y-101190357D01*
X228817284Y-101133214D01*
X228760141Y-101076071D01*
X228702998Y-100961786D01*
X228702998Y-100618929D01*
X228760141Y-100504643D01*
X228817284Y-100447500D01*
X228931570Y-100390357D01*
X229160141Y-100390357D01*
X229274427Y-100447500D01*
D13*
X198461731Y-97417033D02*
X198728398Y-97417033D01*
X198861731Y-97483700D01*
X198995064Y-97617033D01*
X199061731Y-97883700D01*
X199061731Y-98350367D01*
X198995064Y-98617033D01*
X198861731Y-98750367D01*
X198728398Y-98817033D01*
X198461731Y-98817033D01*
X198328398Y-98750367D01*
X198195064Y-98617033D01*
X198128398Y-98350367D01*
X198128398Y-97883700D01*
X198195064Y-97617033D01*
X198328398Y-97483700D01*
X198461731Y-97417033D01*
X199661731Y-98817033D02*
X199661731Y-97883700D01*
X199661731Y-98150367D02*
X199728398Y-98017033D01*
X199795065Y-97950367D01*
X199928398Y-97883700D01*
X200061731Y-97883700D01*
X201061732Y-98750367D02*
X200928398Y-98817033D01*
X200661732Y-98817033D01*
X200528398Y-98750367D01*
X200461732Y-98617033D01*
X200461732Y-98083700D01*
X200528398Y-97950367D01*
X200661732Y-97883700D01*
X200928398Y-97883700D01*
X201061732Y-97950367D01*
X201128398Y-98083700D01*
X201128398Y-98217033D01*
X200461732Y-98350367D01*
X202328398Y-97883700D02*
X202328398Y-99017033D01*
X202261732Y-99150367D01*
X202195065Y-99217033D01*
X202061732Y-99283700D01*
X201861732Y-99283700D01*
X201728398Y-99217033D01*
X202328398Y-98750367D02*
X202195065Y-98817033D01*
X201928398Y-98817033D01*
X201795065Y-98750367D01*
X201728398Y-98683700D01*
X201661732Y-98550367D01*
X201661732Y-98150367D01*
X201728398Y-98017033D01*
X201795065Y-97950367D01*
X201928398Y-97883700D01*
X202195065Y-97883700D01*
X202328398Y-97950367D01*
X203195065Y-98817033D02*
X203061732Y-98750367D01*
X202995065Y-98683700D01*
X202928399Y-98550367D01*
X202928399Y-98150367D01*
X202995065Y-98017033D01*
X203061732Y-97950367D01*
X203195065Y-97883700D01*
X203395065Y-97883700D01*
X203528399Y-97950367D01*
X203595065Y-98017033D01*
X203661732Y-98150367D01*
X203661732Y-98550367D01*
X203595065Y-98683700D01*
X203528399Y-98750367D01*
X203395065Y-98817033D01*
X203195065Y-98817033D01*
X204261732Y-97883700D02*
X204261732Y-98817033D01*
X204261732Y-98017033D02*
X204328399Y-97950367D01*
X204461732Y-97883700D01*
X204661732Y-97883700D01*
X204795066Y-97950367D01*
X204861732Y-98083700D01*
X204861732Y-98817033D01*
X206395066Y-97417033D02*
X207195066Y-97417033D01*
X206795066Y-98817033D02*
X206795066Y-97417033D01*
X208195067Y-98750367D02*
X208061733Y-98817033D01*
X207795067Y-98817033D01*
X207661733Y-98750367D01*
X207595067Y-98617033D01*
X207595067Y-98083700D01*
X207661733Y-97950367D01*
X207795067Y-97883700D01*
X208061733Y-97883700D01*
X208195067Y-97950367D01*
X208261733Y-98083700D01*
X208261733Y-98217033D01*
X207595067Y-98350367D01*
X209461733Y-98750367D02*
X209328400Y-98817033D01*
X209061733Y-98817033D01*
X208928400Y-98750367D01*
X208861733Y-98683700D01*
X208795067Y-98550367D01*
X208795067Y-98150367D01*
X208861733Y-98017033D01*
X208928400Y-97950367D01*
X209061733Y-97883700D01*
X209328400Y-97883700D01*
X209461733Y-97950367D01*
X210061733Y-98817033D02*
X210061733Y-97417033D01*
X210661733Y-98817033D02*
X210661733Y-98083700D01*
X210595067Y-97950367D01*
X210461733Y-97883700D01*
X210261733Y-97883700D01*
X210128400Y-97950367D01*
X210061733Y-98017033D01*
X213195067Y-98683700D02*
X213128401Y-98750367D01*
X212928401Y-98817033D01*
X212795067Y-98817033D01*
X212595067Y-98750367D01*
X212461734Y-98617033D01*
X212395067Y-98483700D01*
X212328401Y-98217033D01*
X212328401Y-98017033D01*
X212395067Y-97750367D01*
X212461734Y-97617033D01*
X212595067Y-97483700D01*
X212795067Y-97417033D01*
X212928401Y-97417033D01*
X213128401Y-97483700D01*
X213195067Y-97550367D01*
X213728401Y-98750367D02*
X213928401Y-98817033D01*
X214261734Y-98817033D01*
X214395067Y-98750367D01*
X214461734Y-98683700D01*
X214528401Y-98550367D01*
X214528401Y-98417033D01*
X214461734Y-98283700D01*
X214395067Y-98217033D01*
X214261734Y-98150367D01*
X213995067Y-98083700D01*
X213861734Y-98017033D01*
X213795067Y-97950367D01*
X213728401Y-97817033D01*
X213728401Y-97683700D01*
X213795067Y-97550367D01*
X213861734Y-97483700D01*
X213995067Y-97417033D01*
X214328401Y-97417033D01*
X214528401Y-97483700D01*
X215128400Y-98083700D02*
X215595067Y-98083700D01*
X215795067Y-98817033D02*
X215128400Y-98817033D01*
X215128400Y-97417033D01*
X215795067Y-97417033D01*
X216195067Y-97417033D02*
X216995067Y-97417033D01*
X216595067Y-98817033D02*
X216595067Y-97417033D01*
X218528401Y-98817033D02*
X218528401Y-97417033D01*
X218861735Y-97417033D01*
X219061735Y-97483700D01*
X219195068Y-97617033D01*
X219261735Y-97750367D01*
X219328401Y-98017033D01*
X219328401Y-98217033D01*
X219261735Y-98483700D01*
X219195068Y-98617033D01*
X219061735Y-98750367D01*
X218861735Y-98817033D01*
X218528401Y-98817033D01*
X220461735Y-98750367D02*
X220328401Y-98817033D01*
X220061735Y-98817033D01*
X219928401Y-98750367D01*
X219861735Y-98617033D01*
X219861735Y-98083700D01*
X219928401Y-97950367D01*
X220061735Y-97883700D01*
X220328401Y-97883700D01*
X220461735Y-97950367D01*
X220528401Y-98083700D01*
X220528401Y-98217033D01*
X219861735Y-98350367D01*
X221128401Y-97883700D02*
X221128401Y-99283700D01*
X221128401Y-97950367D02*
X221261735Y-97883700D01*
X221528401Y-97883700D01*
X221661735Y-97950367D01*
X221728401Y-98017033D01*
X221795068Y-98150367D01*
X221795068Y-98550367D01*
X221728401Y-98683700D01*
X221661735Y-98750367D01*
X221528401Y-98817033D01*
X221261735Y-98817033D01*
X221128401Y-98750367D01*
X222995068Y-98817033D02*
X222995068Y-98083700D01*
X222928402Y-97950367D01*
X222795068Y-97883700D01*
X222528402Y-97883700D01*
X222395068Y-97950367D01*
X222995068Y-98750367D02*
X222861735Y-98817033D01*
X222528402Y-98817033D01*
X222395068Y-98750367D01*
X222328402Y-98617033D01*
X222328402Y-98483700D01*
X222395068Y-98350367D01*
X222528402Y-98283700D01*
X222861735Y-98283700D01*
X222995068Y-98217033D01*
X223661735Y-98817033D02*
X223661735Y-97883700D01*
X223661735Y-98150367D02*
X223728402Y-98017033D01*
X223795069Y-97950367D01*
X223928402Y-97883700D01*
X224061735Y-97883700D01*
X224328402Y-97883700D02*
X224861736Y-97883700D01*
X224528402Y-97417033D02*
X224528402Y-98617033D01*
X224595069Y-98750367D01*
X224728402Y-98817033D01*
X224861736Y-98817033D01*
X225328402Y-98817033D02*
X225328402Y-97883700D01*
X225328402Y-98017033D02*
X225395069Y-97950367D01*
X225528402Y-97883700D01*
X225728402Y-97883700D01*
X225861736Y-97950367D01*
X225928402Y-98083700D01*
X225928402Y-98817033D01*
X225928402Y-98083700D02*
X225995069Y-97950367D01*
X226128402Y-97883700D01*
X226328402Y-97883700D01*
X226461736Y-97950367D01*
X226528402Y-98083700D01*
X226528402Y-98817033D01*
X227728403Y-98750367D02*
X227595069Y-98817033D01*
X227328403Y-98817033D01*
X227195069Y-98750367D01*
X227128403Y-98617033D01*
X227128403Y-98083700D01*
X227195069Y-97950367D01*
X227328403Y-97883700D01*
X227595069Y-97883700D01*
X227728403Y-97950367D01*
X227795069Y-98083700D01*
X227795069Y-98217033D01*
X227128403Y-98350367D01*
X228395069Y-97883700D02*
X228395069Y-98817033D01*
X228395069Y-98017033D02*
X228461736Y-97950367D01*
X228595069Y-97883700D01*
X228795069Y-97883700D01*
X228928403Y-97950367D01*
X228995069Y-98083700D01*
X228995069Y-98817033D01*
X229461736Y-97883700D02*
X229995070Y-97883700D01*
X229661736Y-97417033D02*
X229661736Y-98617033D01*
X229728403Y-98750367D01*
X229861736Y-98817033D01*
X229995070Y-98817033D01*
D14*
X232419543Y-114389557D02*
X232562400Y-114389557D01*
X232633828Y-114352414D01*
X232669543Y-114315271D01*
X232740971Y-114203843D01*
X232776686Y-114055271D01*
X232776686Y-113758129D01*
X232740971Y-113683843D01*
X232705257Y-113646700D01*
X232633828Y-113609557D01*
X232490971Y-113609557D01*
X232419543Y-113646700D01*
X232383828Y-113683843D01*
X232348114Y-113758129D01*
X232348114Y-113943843D01*
X232383828Y-114018129D01*
X232419543Y-114055271D01*
X232490971Y-114092414D01*
X232633828Y-114092414D01*
X232705257Y-114055271D01*
X232740971Y-114018129D01*
X232776686Y-113943843D01*
X232490971Y-116502843D02*
X232419543Y-116465700D01*
X232383828Y-116428557D01*
X232348114Y-116354271D01*
X232348114Y-116317129D01*
X232383828Y-116242843D01*
X232419543Y-116205700D01*
X232490971Y-116168557D01*
X232633828Y-116168557D01*
X232705257Y-116205700D01*
X232740971Y-116242843D01*
X232776686Y-116317129D01*
X232776686Y-116354271D01*
X232740971Y-116428557D01*
X232705257Y-116465700D01*
X232633828Y-116502843D01*
X232490971Y-116502843D01*
X232419543Y-116539986D01*
X232383828Y-116577129D01*
X232348114Y-116651414D01*
X232348114Y-116799986D01*
X232383828Y-116874271D01*
X232419543Y-116911414D01*
X232490971Y-116948557D01*
X232633828Y-116948557D01*
X232705257Y-116911414D01*
X232740971Y-116874271D01*
X232776686Y-116799986D01*
X232776686Y-116651414D01*
X232740971Y-116577129D01*
X232705257Y-116539986D01*
X232633828Y-116502843D01*
X232312400Y-118727557D02*
X232812400Y-118727557D01*
X232490971Y-119507557D01*
X232705257Y-121286557D02*
X232562400Y-121286557D01*
X232490971Y-121323700D01*
X232455257Y-121360843D01*
X232383828Y-121472271D01*
X232348114Y-121620843D01*
X232348114Y-121917986D01*
X232383828Y-121992271D01*
X232419543Y-122029414D01*
X232490971Y-122066557D01*
X232633828Y-122066557D01*
X232705257Y-122029414D01*
X232740971Y-121992271D01*
X232776686Y-121917986D01*
X232776686Y-121732271D01*
X232740971Y-121657986D01*
X232705257Y-121620843D01*
X232633828Y-121583700D01*
X232490971Y-121583700D01*
X232419543Y-121620843D01*
X232383828Y-121657986D01*
X232348114Y-121732271D01*
X232740971Y-123845557D02*
X232383828Y-123845557D01*
X232348114Y-124216986D01*
X232383828Y-124179843D01*
X232455257Y-124142700D01*
X232633828Y-124142700D01*
X232705257Y-124179843D01*
X232740971Y-124216986D01*
X232776686Y-124291271D01*
X232776686Y-124476986D01*
X232740971Y-124551271D01*
X232705257Y-124588414D01*
X232633828Y-124625557D01*
X232455257Y-124625557D01*
X232383828Y-124588414D01*
X232348114Y-124551271D01*
X232705257Y-126664557D02*
X232705257Y-127184557D01*
X232526686Y-126367414D02*
X232348114Y-126924557D01*
X232812400Y-126924557D01*
X232312400Y-128963557D02*
X232776686Y-128963557D01*
X232526686Y-129260700D01*
X232633828Y-129260700D01*
X232705257Y-129297843D01*
X232740971Y-129334986D01*
X232776686Y-129409271D01*
X232776686Y-129594986D01*
X232740971Y-129669271D01*
X232705257Y-129706414D01*
X232633828Y-129743557D01*
X232419543Y-129743557D01*
X232348114Y-129706414D01*
X232312400Y-129669271D01*
X232348114Y-131596843D02*
X232383828Y-131559700D01*
X232455257Y-131522557D01*
X232633828Y-131522557D01*
X232705257Y-131559700D01*
X232740971Y-131596843D01*
X232776686Y-131671129D01*
X232776686Y-131745414D01*
X232740971Y-131856843D01*
X232312400Y-132302557D01*
X232776686Y-132302557D01*
X232776686Y-134861557D02*
X232348114Y-134861557D01*
X232562400Y-134861557D02*
X232562400Y-134081557D01*
X232490971Y-134192986D01*
X232419543Y-134267271D01*
X232348114Y-134304414D01*
X232526686Y-136640557D02*
X232598114Y-136640557D01*
X232669543Y-136677700D01*
X232705257Y-136714843D01*
X232740971Y-136789129D01*
X232776686Y-136937700D01*
X232776686Y-137123414D01*
X232740971Y-137271986D01*
X232705257Y-137346271D01*
X232669543Y-137383414D01*
X232598114Y-137420557D01*
X232526686Y-137420557D01*
X232455257Y-137383414D01*
X232419543Y-137346271D01*
X232383828Y-137271986D01*
X232348114Y-137123414D01*
X232348114Y-136937700D01*
X232383828Y-136789129D01*
X232419543Y-136714843D01*
X232455257Y-136677700D01*
X232526686Y-136640557D01*
X214626843Y-114529257D02*
X214198271Y-114529257D01*
X214412557Y-114529257D02*
X214412557Y-113749257D01*
X214341128Y-113860686D01*
X214269700Y-113934971D01*
X214198271Y-113972114D01*
X215091129Y-113749257D02*
X215162557Y-113749257D01*
X215233986Y-113786400D01*
X215269700Y-113823543D01*
X215305414Y-113897829D01*
X215341129Y-114046400D01*
X215341129Y-114232114D01*
X215305414Y-114380686D01*
X215269700Y-114454971D01*
X215233986Y-114492114D01*
X215162557Y-114529257D01*
X215091129Y-114529257D01*
X215019700Y-114492114D01*
X214983986Y-114454971D01*
X214948271Y-114380686D01*
X214912557Y-114232114D01*
X214912557Y-114046400D01*
X214948271Y-113897829D01*
X214983986Y-113823543D01*
X215019700Y-113786400D01*
X215091129Y-113749257D01*
X214626843Y-117088257D02*
X214198271Y-117088257D01*
X214412557Y-117088257D02*
X214412557Y-116308257D01*
X214341128Y-116419686D01*
X214269700Y-116493971D01*
X214198271Y-116531114D01*
X215341129Y-117088257D02*
X214912557Y-117088257D01*
X215126843Y-117088257D02*
X215126843Y-116308257D01*
X215055414Y-116419686D01*
X214983986Y-116493971D01*
X214912557Y-116531114D01*
X214626843Y-119647257D02*
X214198271Y-119647257D01*
X214412557Y-119647257D02*
X214412557Y-118867257D01*
X214341128Y-118978686D01*
X214269700Y-119052971D01*
X214198271Y-119090114D01*
X214912557Y-118941543D02*
X214948271Y-118904400D01*
X215019700Y-118867257D01*
X215198271Y-118867257D01*
X215269700Y-118904400D01*
X215305414Y-118941543D01*
X215341129Y-119015829D01*
X215341129Y-119090114D01*
X215305414Y-119201543D01*
X214876843Y-119647257D01*
X215341129Y-119647257D01*
X214626843Y-122206257D02*
X214198271Y-122206257D01*
X214412557Y-122206257D02*
X214412557Y-121426257D01*
X214341128Y-121537686D01*
X214269700Y-121611971D01*
X214198271Y-121649114D01*
X214876843Y-121426257D02*
X215341129Y-121426257D01*
X215091129Y-121723400D01*
X215198271Y-121723400D01*
X215269700Y-121760543D01*
X215305414Y-121797686D01*
X215341129Y-121871971D01*
X215341129Y-122057686D01*
X215305414Y-122131971D01*
X215269700Y-122169114D01*
X215198271Y-122206257D01*
X214983986Y-122206257D01*
X214912557Y-122169114D01*
X214876843Y-122131971D01*
X214626843Y-124765257D02*
X214198271Y-124765257D01*
X214412557Y-124765257D02*
X214412557Y-123985257D01*
X214341128Y-124096686D01*
X214269700Y-124170971D01*
X214198271Y-124208114D01*
X215269700Y-124245257D02*
X215269700Y-124765257D01*
X215091129Y-123948114D02*
X214912557Y-124505257D01*
X215376843Y-124505257D01*
X214626843Y-127324257D02*
X214198271Y-127324257D01*
X214412557Y-127324257D02*
X214412557Y-126544257D01*
X214341128Y-126655686D01*
X214269700Y-126729971D01*
X214198271Y-126767114D01*
X215305414Y-126544257D02*
X214948271Y-126544257D01*
X214912557Y-126915686D01*
X214948271Y-126878543D01*
X215019700Y-126841400D01*
X215198271Y-126841400D01*
X215269700Y-126878543D01*
X215305414Y-126915686D01*
X215341129Y-126989971D01*
X215341129Y-127175686D01*
X215305414Y-127249971D01*
X215269700Y-127287114D01*
X215198271Y-127324257D01*
X215019700Y-127324257D01*
X214948271Y-127287114D01*
X214912557Y-127249971D01*
X214626843Y-129883257D02*
X214198271Y-129883257D01*
X214412557Y-129883257D02*
X214412557Y-129103257D01*
X214341128Y-129214686D01*
X214269700Y-129288971D01*
X214198271Y-129326114D01*
X215269700Y-129103257D02*
X215126843Y-129103257D01*
X215055414Y-129140400D01*
X215019700Y-129177543D01*
X214948271Y-129288971D01*
X214912557Y-129437543D01*
X214912557Y-129734686D01*
X214948271Y-129808971D01*
X214983986Y-129846114D01*
X215055414Y-129883257D01*
X215198271Y-129883257D01*
X215269700Y-129846114D01*
X215305414Y-129808971D01*
X215341129Y-129734686D01*
X215341129Y-129548971D01*
X215305414Y-129474686D01*
X215269700Y-129437543D01*
X215198271Y-129400400D01*
X215055414Y-129400400D01*
X214983986Y-129437543D01*
X214948271Y-129474686D01*
X214912557Y-129548971D01*
X214626843Y-132442257D02*
X214198271Y-132442257D01*
X214412557Y-132442257D02*
X214412557Y-131662257D01*
X214341128Y-131773686D01*
X214269700Y-131847971D01*
X214198271Y-131885114D01*
X214876843Y-131662257D02*
X215376843Y-131662257D01*
X215055414Y-132442257D01*
X214626843Y-135001257D02*
X214198271Y-135001257D01*
X214412557Y-135001257D02*
X214412557Y-134221257D01*
X214341128Y-134332686D01*
X214269700Y-134406971D01*
X214198271Y-134444114D01*
X215055414Y-134555543D02*
X214983986Y-134518400D01*
X214948271Y-134481257D01*
X214912557Y-134406971D01*
X214912557Y-134369829D01*
X214948271Y-134295543D01*
X214983986Y-134258400D01*
X215055414Y-134221257D01*
X215198271Y-134221257D01*
X215269700Y-134258400D01*
X215305414Y-134295543D01*
X215341129Y-134369829D01*
X215341129Y-134406971D01*
X215305414Y-134481257D01*
X215269700Y-134518400D01*
X215198271Y-134555543D01*
X215055414Y-134555543D01*
X214983986Y-134592686D01*
X214948271Y-134629829D01*
X214912557Y-134704114D01*
X214912557Y-134852686D01*
X214948271Y-134926971D01*
X214983986Y-134964114D01*
X215055414Y-135001257D01*
X215198271Y-135001257D01*
X215269700Y-134964114D01*
X215305414Y-134926971D01*
X215341129Y-134852686D01*
X215341129Y-134704114D01*
X215305414Y-134629829D01*
X215269700Y-134592686D01*
X215198271Y-134555543D01*
X213662557Y-136780257D02*
X214126843Y-136780257D01*
X213876843Y-137077400D01*
X213983985Y-137077400D01*
X214055414Y-137114543D01*
X214091128Y-137151686D01*
X214126843Y-137225971D01*
X214126843Y-137411686D01*
X214091128Y-137485971D01*
X214055414Y-137523114D01*
X213983985Y-137560257D01*
X213769700Y-137560257D01*
X213698271Y-137523114D01*
X213662557Y-137485971D01*
X214448271Y-137485971D02*
X214483986Y-137523114D01*
X214448271Y-137560257D01*
X214412557Y-137523114D01*
X214448271Y-137485971D01*
X214448271Y-137560257D01*
X214733986Y-136780257D02*
X215198272Y-136780257D01*
X214948272Y-137077400D01*
X215055414Y-137077400D01*
X215126843Y-137114543D01*
X215162557Y-137151686D01*
X215198272Y-137225971D01*
X215198272Y-137411686D01*
X215162557Y-137485971D01*
X215126843Y-137523114D01*
X215055414Y-137560257D01*
X214841129Y-137560257D01*
X214769700Y-137523114D01*
X214733986Y-137485971D01*
X215412558Y-136780257D02*
X215662558Y-137560257D01*
X215912558Y-136780257D01*
D10*
X219972000Y-107814000D02*
X219972000Y-109084000D01*
X227322000Y-107814000D02*
X227322000Y-109084000D01*
X227322000Y-145424000D02*
X227322000Y-144154000D01*
X219972000Y-145424000D02*
X219972000Y-144154000D01*
X219972000Y-107814000D02*
X227322000Y-107814000D01*
X219972000Y-145424000D02*
X227322000Y-145424000D01*
X219972000Y-109084000D02*
X219037000Y-109084000D01*
X200424051Y-71755000D02*
X202220102Y-73551051D01*
X198628000Y-69562969D02*
X199724016Y-70658984D01*
X200424051Y-71755000D02*
X198628000Y-73551051D01*
X197531984Y-72851016D02*
X196435969Y-71755000D01*
X196435969Y-71755000D02*
X198628000Y-69562969D01*
X198628000Y-73551051D02*
X200424051Y-75347102D01*
X200424051Y-75347102D02*
X202220102Y-73551051D01*
X227159852Y-70441852D02*
X225889852Y-72641557D01*
X228812339Y-68139661D02*
X228037339Y-69482000D01*
X227159852Y-70441852D02*
X224960148Y-69171852D01*
X225352661Y-67932000D02*
X226127661Y-66589661D01*
X226127661Y-66589661D02*
X228812339Y-68139661D01*
X224960148Y-69171852D02*
X223690148Y-71371557D01*
X223690148Y-71371557D02*
X225889852Y-72641557D01*
X197739000Y-119380000D02*
X195199000Y-119380000D01*
X200559000Y-119660000D02*
X199009000Y-119660000D01*
X197739000Y-119380000D02*
X197739000Y-116840000D01*
X199009000Y-116560000D02*
X200559000Y-116560000D01*
X200559000Y-116560000D02*
X200559000Y-119660000D01*
X197739000Y-116840000D02*
X195199000Y-116840000D01*
X195199000Y-116840000D02*
X195199000Y-119380000D01*
X208719816Y-94717315D02*
X208498427Y-94327047D01*
X208498427Y-94327047D02*
X208365594Y-93733746D01*
X208365594Y-93733746D02*
X208440867Y-93228734D01*
X208440867Y-93228734D02*
X208802544Y-92510321D01*
X208802544Y-92510321D02*
X209382695Y-92078046D01*
X209382695Y-92078046D02*
X209970812Y-91846288D01*
X209970812Y-91846288D02*
X216560688Y-91500928D01*
X216560688Y-91500928D02*
X217271269Y-91664623D01*
X217271269Y-91664623D02*
X217685189Y-91943062D01*
X217685189Y-91943062D02*
X218112147Y-92421753D01*
X218112147Y-92421753D02*
X218343904Y-93009869D01*
X218343904Y-93009869D02*
X218370092Y-93509564D01*
X218370092Y-93509564D02*
X218195895Y-94019759D01*
X218195895Y-94019759D02*
X217727573Y-94644566D01*
X217727573Y-94644566D02*
X217243565Y-94970063D01*
X217243565Y-94970063D02*
X216749188Y-95097712D01*
X216650264Y-95102896D02*
X210057851Y-95448390D01*
X210057851Y-95448390D02*
X209654300Y-95367799D01*
X209654300Y-95367799D02*
X209138920Y-95094678D01*
X209138920Y-95094678D02*
X208613037Y-94621172D01*
X216667768Y-95631024D02*
X217124352Y-95558769D01*
X217124352Y-95558769D02*
X217516736Y-95426292D01*
X217516736Y-95426292D02*
X217936512Y-95185552D01*
X217936512Y-95185552D02*
X218213579Y-94939575D01*
X218213579Y-94939575D02*
X218524981Y-94572254D01*
X218524981Y-94572254D02*
X218785963Y-94019357D01*
X218785963Y-94019357D02*
X218883953Y-93413959D01*
X218883953Y-93413959D02*
X218857233Y-92904119D01*
X218857233Y-92904119D02*
X218650597Y-92212946D01*
X218650597Y-92212946D02*
X218221523Y-91645344D01*
X218221523Y-91645344D02*
X217743005Y-91299073D01*
X217743005Y-91299073D02*
X217311042Y-91113146D01*
X217311042Y-91113146D02*
X216853703Y-90976874D01*
X216853703Y-90976874D02*
X216413290Y-90969433D01*
X209094183Y-91571751D02*
X208727806Y-91812236D01*
X208727806Y-91812236D02*
X208422828Y-92108002D01*
X208422828Y-92108002D02*
X208188994Y-92450910D01*
X208188994Y-92450910D02*
X207918531Y-93017021D01*
X207918531Y-93017021D02*
X207834053Y-93491993D01*
X207834053Y-93491993D02*
X207837822Y-93952167D01*
X207837822Y-93952167D02*
X207950661Y-94406624D01*
X207950661Y-94406624D02*
X208164429Y-94845618D01*
X208164429Y-94845618D02*
X208549208Y-95295997D01*
X208549208Y-95295997D02*
X208915997Y-95597254D01*
X208915997Y-95597254D02*
X209316181Y-95807738D01*
X209316181Y-95807738D02*
X209752164Y-95924781D01*
X209752164Y-95924781D02*
X210197108Y-95970137D01*
X216434114Y-90978516D02*
X209991356Y-91316167D01*
X209991356Y-91316167D02*
X209574824Y-91376149D01*
X209574824Y-91376149D02*
X209094183Y-91571751D01*
X216677914Y-95630492D02*
X210235156Y-95968143D01*
X213106000Y-115443000D02*
X213106000Y-138303000D01*
X213106000Y-138303000D02*
X210566000Y-138303000D01*
X210566000Y-138303000D02*
X210566000Y-115443000D01*
X213386000Y-112623000D02*
X213386000Y-114173000D01*
X213106000Y-115443000D02*
X210566000Y-115443000D01*
X210286000Y-114173000D02*
X210286000Y-112623000D01*
X210286000Y-112623000D02*
X213386000Y-112623000D01*
X234061000Y-135763000D02*
X234061000Y-112903000D01*
X234061000Y-112903000D02*
X236601000Y-112903000D01*
X236601000Y-112903000D02*
X236601000Y-135763000D01*
X233781000Y-138583000D02*
X233781000Y-137033000D01*
X234061000Y-135763000D02*
X236601000Y-135763000D01*
X236881000Y-137033000D02*
X236881000Y-138583000D01*
X236881000Y-138583000D02*
X233781000Y-138583000D01*
X202788200Y-117140800D02*
X202788200Y-114140800D01*
X205288200Y-114140800D02*
X205288200Y-117140800D01*
X195712400Y-111002000D02*
X195712400Y-114002000D01*
X193212400Y-114002000D02*
X193212400Y-111002000D01*
X237002000Y-120011000D02*
X237002000Y-117011000D01*
X239502000Y-117011000D02*
X239502000Y-120011000D01*
X216454800Y-110038200D02*
X213454800Y-110038200D01*
X213454800Y-107538200D02*
X216454800Y-107538200D01*
X207207800Y-118639400D02*
X207207800Y-115639400D01*
X209707800Y-115639400D02*
X209707800Y-118639400D01*
X193260402Y-119071155D02*
X193086621Y-118085599D01*
X201379714Y-140351919D02*
X202320121Y-140694200D01*
X234113070Y-108245212D02*
X234613450Y-109111895D01*
X229157530Y-107273788D02*
X228657150Y-106407105D01*
X196460519Y-134526914D02*
X196802800Y-135467321D01*
X204970380Y-109725460D02*
X205331060Y-111196120D01*
X205331060Y-111196120D02*
X205610460Y-110134400D01*
X205610460Y-110134400D02*
X205920340Y-111206280D01*
X205920340Y-111206280D02*
X206260700Y-109755940D01*
X203550520Y-110416340D02*
X204340460Y-110406180D01*
X204340460Y-110406180D02*
X204350620Y-110416340D01*
X204350620Y-110416340D02*
X204350620Y-110406180D01*
X204391260Y-109694980D02*
X204391260Y-111236760D01*
X203502260Y-109684820D02*
X203502260Y-111254540D01*
X203502260Y-111254540D02*
X203512420Y-111244380D01*
X202951080Y-109786420D02*
X202600560Y-109705140D01*
X202600560Y-109705140D02*
X202280520Y-109694980D01*
X202280520Y-109694980D02*
X202041760Y-109895640D01*
X202041760Y-109895640D02*
X202011280Y-110164880D01*
X202011280Y-110164880D02*
X202252580Y-110406180D01*
X202252580Y-110406180D02*
X202641200Y-110535720D01*
X202641200Y-110535720D02*
X202821540Y-110695740D01*
X202821540Y-110695740D02*
X202862180Y-110995460D01*
X202862180Y-110995460D02*
X202631040Y-111216440D01*
X202631040Y-111216440D02*
X202311000Y-111244380D01*
X202311000Y-111244380D02*
X201960480Y-111135160D01*
X200921620Y-109684820D02*
X200672700Y-109705140D01*
X200672700Y-109705140D02*
X200431400Y-109946440D01*
X200431400Y-109946440D02*
X200342500Y-110436660D01*
X200342500Y-110436660D02*
X200370440Y-110784640D01*
X200370440Y-110784640D02*
X200571100Y-111104680D01*
X200571100Y-111104680D02*
X200822560Y-111226600D01*
X200822560Y-111226600D02*
X201132440Y-111155480D01*
X201132440Y-111155480D02*
X201350880Y-110975140D01*
X201350880Y-110975140D02*
X201422000Y-110515400D01*
X201422000Y-110515400D02*
X201371200Y-110106460D01*
X201371200Y-110106460D02*
X201261980Y-109824520D01*
X201261980Y-109824520D02*
X200901300Y-109694980D01*
X201521060Y-107965240D02*
X201261980Y-108526580D01*
X201261980Y-108526580D02*
X201800460Y-109044740D01*
X201800460Y-109044740D02*
X202321160Y-108775500D01*
X202321160Y-108775500D02*
X202600560Y-108935520D01*
X204040740Y-108915200D02*
X204370940Y-108724700D01*
X204370940Y-108724700D02*
X204810360Y-109054900D01*
X204810360Y-109054900D02*
X205282800Y-108564680D01*
X205282800Y-108564680D02*
X205000860Y-108084620D01*
X205000860Y-108084620D02*
X205191360Y-107614720D01*
X205191360Y-107614720D02*
X205800960Y-107426760D01*
X205800960Y-107426760D02*
X205800960Y-106746040D01*
X205800960Y-106746040D02*
X205242160Y-106606340D01*
X205242160Y-106606340D02*
X205041500Y-106034840D01*
X205041500Y-106034840D02*
X205310740Y-105564940D01*
X205310740Y-105564940D02*
X204840840Y-105054400D01*
X204840840Y-105054400D02*
X204322680Y-105316020D01*
X204322680Y-105316020D02*
X203852780Y-105115360D01*
X203852780Y-105115360D02*
X203682600Y-104574340D01*
X203682600Y-104574340D02*
X202991720Y-104556560D01*
X202991720Y-104556560D02*
X202780900Y-105105200D01*
X202780900Y-105105200D02*
X202361800Y-105275380D01*
X202361800Y-105275380D02*
X201810620Y-105006140D01*
X201810620Y-105006140D02*
X201292460Y-105534460D01*
X201292460Y-105534460D02*
X201541380Y-106075480D01*
X201541380Y-106075480D02*
X201371200Y-106555540D01*
X201371200Y-106555540D02*
X200822560Y-106654600D01*
X200822560Y-106654600D02*
X200812400Y-107355640D01*
X200812400Y-107355640D02*
X201371200Y-107556300D01*
X201371200Y-107556300D02*
X201510900Y-107955080D01*
X203652120Y-107934760D02*
X203951840Y-107784900D01*
X203951840Y-107784900D02*
X204152500Y-107586780D01*
X204152500Y-107586780D02*
X204302360Y-107185460D01*
X204302360Y-107185460D02*
X204302360Y-106786680D01*
X204302360Y-106786680D02*
X204152500Y-106436160D01*
X204152500Y-106436160D02*
X203700380Y-106085640D01*
X203700380Y-106085640D02*
X203250800Y-106034840D01*
X203250800Y-106034840D02*
X202852020Y-106136440D01*
X202852020Y-106136440D02*
X202450700Y-106484420D01*
X202450700Y-106484420D02*
X202300840Y-106936540D01*
X202300840Y-106936540D02*
X202351640Y-107434380D01*
X202351640Y-107434380D02*
X202600560Y-107736640D01*
X202600560Y-107736640D02*
X202951080Y-107934760D01*
X202951080Y-107934760D02*
X202600560Y-108935520D01*
X203652120Y-107934760D02*
X204050900Y-108935520D01*
X212623400Y-149504400D02*
X212623400Y-163220400D01*
X212750400Y-163220400D02*
X224434400Y-163220400D01*
X224561400Y-163220400D02*
X224561400Y-149504400D01*
X208072488Y-81837896D02*
G75*
G03X208087600Y-84862800I-2484888J-1524904D01*
G01*
X208087600Y-81862800D02*
X208087600Y-84862800D01*
X208105536Y-83362800D02*
G75*
G03X208105536Y-83362800I-2517936J0D01*
G01*
X223312488Y-79958296D02*
G75*
G03X223327600Y-82983200I-2484888J-1524904D01*
G01*
X223327600Y-79983200D02*
X223327600Y-82983200D01*
X223345536Y-81483200D02*
G75*
G03X223345536Y-81483200I-2517936J0D01*
G01*
X204470000Y-124155200D02*
G75*
G03X204470000Y-124155200I-2540000J0D01*
G01*
X198120000Y-120345200D02*
X205740000Y-120345200D01*
X205740000Y-120345200D02*
X205740000Y-127965200D01*
X205740000Y-127965200D02*
X198120000Y-127965200D01*
X198120000Y-120345200D02*
X198120000Y-127965200D01*
X205994000Y-133400800D02*
G75*
G03X205994000Y-133400800I-2540000J0D01*
G01*
X199644000Y-129590800D02*
X207264000Y-129590800D01*
X207264000Y-129590800D02*
X207264000Y-137210800D01*
X207264000Y-137210800D02*
X199644000Y-137210800D01*
X199644000Y-129590800D02*
X199644000Y-137210800D01*
X212750400Y-143865600D02*
G75*
G03X212750400Y-143865600I-2540000J0D01*
G01*
X206400400Y-140055600D02*
X214020400Y-140055600D01*
X214020400Y-140055600D02*
X214020400Y-147675600D01*
X214020400Y-147675600D02*
X206400400Y-147675600D01*
X206400400Y-140055600D02*
X206400400Y-147675600D01*
X194775681Y-126889886D02*
X194433400Y-125949479D01*
X217728895Y-107554781D02*
X217728895Y-108364305D01*
X217776514Y-108459543D01*
X217824133Y-108507162D01*
X217919371Y-108554781D01*
X218109848Y-108554781D01*
X218205086Y-108507162D01*
X218252705Y-108459543D01*
X218300324Y-108364305D01*
X218300324Y-107554781D01*
X218681276Y-107554781D02*
X219300324Y-107554781D01*
X218966990Y-107935733D01*
X219109848Y-107935733D01*
X219205086Y-107983352D01*
X219252705Y-108030971D01*
X219300324Y-108126210D01*
X219300324Y-108364305D01*
X219252705Y-108459543D01*
X219205086Y-108507162D01*
X219109848Y-108554781D01*
X218824133Y-108554781D01*
X218728895Y-108507162D01*
X218681276Y-108459543D01*
X218003667Y-106174714D02*
X218003667Y-107174714D01*
X218003667Y-106222333D02*
X218098905Y-106174714D01*
X218289382Y-106174714D01*
X218384620Y-106222333D01*
X218432239Y-106269952D01*
X218479858Y-106365190D01*
X218479858Y-106650905D01*
X218432239Y-106746143D01*
X218384620Y-106793762D01*
X218289382Y-106841381D01*
X218098905Y-106841381D01*
X218003667Y-106793762D01*
X218908429Y-106841381D02*
X218908429Y-106174714D01*
X218908429Y-105841381D02*
X218860810Y-105889000D01*
X218908429Y-105936619D01*
X218956048Y-105889000D01*
X218908429Y-105841381D01*
X218908429Y-105936619D01*
X219813191Y-106793762D02*
X219717953Y-106841381D01*
X219527476Y-106841381D01*
X219432238Y-106793762D01*
X219384619Y-106746143D01*
X219337000Y-106650905D01*
X219337000Y-106365190D01*
X219384619Y-106269952D01*
X219432238Y-106222333D01*
X219527476Y-106174714D01*
X219717953Y-106174714D01*
X219813191Y-106222333D01*
X220146524Y-105841381D02*
X220765572Y-105841381D01*
X220432238Y-106222333D01*
X220575096Y-106222333D01*
X220670334Y-106269952D01*
X220717953Y-106317571D01*
X220765572Y-106412810D01*
X220765572Y-106650905D01*
X220717953Y-106746143D01*
X220670334Y-106793762D01*
X220575096Y-106841381D01*
X220289381Y-106841381D01*
X220194143Y-106793762D01*
X220146524Y-106746143D01*
X221146524Y-105936619D02*
X221194143Y-105889000D01*
X221289381Y-105841381D01*
X221527477Y-105841381D01*
X221622715Y-105889000D01*
X221670334Y-105936619D01*
X221717953Y-106031857D01*
X221717953Y-106127095D01*
X221670334Y-106269952D01*
X221098905Y-106841381D01*
X221717953Y-106841381D01*
X201240606Y-71565670D02*
X201947713Y-70858563D01*
X202217088Y-71127937D01*
X202250759Y-71228953D01*
X202250759Y-71296296D01*
X202217088Y-71397311D01*
X202116072Y-71498326D01*
X202015057Y-71531998D01*
X201947714Y-71531998D01*
X201846699Y-71498326D01*
X201577324Y-71228952D01*
X202722164Y-72104418D02*
X202250759Y-72575823D01*
X202823178Y-71666685D02*
X202149743Y-72003403D01*
X202587476Y-72441136D01*
X197671279Y-74328294D02*
X198210027Y-74867043D01*
X197671279Y-74867043D02*
X198210027Y-74328294D01*
X198917133Y-74698683D02*
X199354867Y-75136416D01*
X198849790Y-75170087D01*
X198950806Y-75271103D01*
X198984478Y-75372118D01*
X198984478Y-75439462D01*
X198950805Y-75540478D01*
X198782447Y-75708836D01*
X198681431Y-75742508D01*
X198614088Y-75742508D01*
X198513073Y-75708836D01*
X198311042Y-75506805D01*
X198277370Y-75405790D01*
X198277370Y-75338447D01*
X199018149Y-76079225D02*
X199018149Y-76146569D01*
X198950805Y-76146569D01*
X198950805Y-76079225D01*
X199018149Y-76079225D01*
X198950805Y-76146569D01*
X199927286Y-75708836D02*
X200365019Y-76146569D01*
X199859942Y-76180240D01*
X199960958Y-76281255D01*
X199994630Y-76382271D01*
X199994630Y-76449614D01*
X199960957Y-76550630D01*
X199792599Y-76718988D01*
X199691584Y-76752660D01*
X199624240Y-76752660D01*
X199523225Y-76718988D01*
X199321194Y-76516957D01*
X199287522Y-76415942D01*
X199287522Y-76348599D01*
X200567049Y-76348599D02*
X200095644Y-77291408D01*
X201038454Y-76820004D01*
X222934000Y-68564626D02*
X223434000Y-67698601D01*
X223763915Y-67889077D01*
X223822584Y-67977935D01*
X223840014Y-68042984D01*
X223833635Y-68149272D01*
X223762206Y-68272990D01*
X223673348Y-68331659D01*
X223608299Y-68349089D01*
X223502011Y-68342709D01*
X223172096Y-68152232D01*
X224217547Y-68150982D02*
X224753659Y-68460506D01*
X224274507Y-68623753D01*
X224398226Y-68695182D01*
X224456895Y-68784040D01*
X224474324Y-68849089D01*
X224467944Y-68955378D01*
X224348897Y-69161574D01*
X224260038Y-69220243D01*
X224194990Y-69237673D01*
X224088702Y-69231293D01*
X223841265Y-69088435D01*
X223782596Y-68999577D01*
X223765166Y-68934528D01*
X220973825Y-69396002D02*
X221633654Y-69776955D01*
X221113263Y-69916393D02*
X221494216Y-69256564D01*
X222767964Y-69717034D02*
X222355570Y-69478939D01*
X222076236Y-69867522D01*
X222141285Y-69850092D01*
X222247573Y-69856472D01*
X222453770Y-69975520D01*
X222512439Y-70064378D01*
X222529869Y-70129427D01*
X222523489Y-70235716D01*
X222404441Y-70441912D01*
X222315583Y-70500581D01*
X222250534Y-70518011D01*
X222144246Y-70511631D01*
X221938049Y-70392583D01*
X221879380Y-70303725D01*
X221861950Y-70238676D01*
X223056639Y-69883701D02*
X222845313Y-70916392D01*
X223633989Y-70217034D01*
X200807581Y-124423395D02*
X199807581Y-124423395D01*
X199807581Y-124042442D01*
X199855200Y-123947204D01*
X199902819Y-123899585D01*
X199998057Y-123851966D01*
X200140914Y-123851966D01*
X200236152Y-123899585D01*
X200283771Y-123947204D01*
X200331390Y-124042442D01*
X200331390Y-124423395D01*
X199902819Y-123471014D02*
X199855200Y-123423395D01*
X199807581Y-123328157D01*
X199807581Y-123090061D01*
X199855200Y-122994823D01*
X199902819Y-122947204D01*
X199998057Y-122899585D01*
X200093295Y-122899585D01*
X200236152Y-122947204D01*
X200807581Y-123518633D01*
X200807581Y-122899585D01*
X197586696Y-115095400D02*
X197491458Y-115047781D01*
X197348601Y-115047781D01*
X197205743Y-115095400D01*
X197110505Y-115190638D01*
X197062886Y-115285876D01*
X197015267Y-115476352D01*
X197015267Y-115619210D01*
X197062886Y-115809686D01*
X197110505Y-115904924D01*
X197205743Y-116000162D01*
X197348601Y-116047781D01*
X197443839Y-116047781D01*
X197586696Y-116000162D01*
X197634315Y-115952543D01*
X197634315Y-115619210D01*
X197443839Y-115619210D01*
X198062886Y-116047781D02*
X198062886Y-115047781D01*
X198634315Y-116047781D01*
X198634315Y-115047781D01*
X199110505Y-116047781D02*
X199110505Y-115047781D01*
X199348600Y-115047781D01*
X199491458Y-115095400D01*
X199586696Y-115190638D01*
X199634315Y-115285876D01*
X199681934Y-115476352D01*
X199681934Y-115619210D01*
X199634315Y-115809686D01*
X199586696Y-115904924D01*
X199491458Y-116000162D01*
X199348600Y-116047781D01*
X199110505Y-116047781D01*
X212121215Y-89802845D02*
X212146137Y-90278383D01*
X211760925Y-89297199D02*
X212121215Y-89802845D01*
X212426679Y-89262308D01*
X213334983Y-90216078D02*
X212764337Y-90245984D01*
X213049659Y-90231031D02*
X212997323Y-89232402D01*
X212909693Y-89380047D01*
X212819569Y-89480139D01*
X212726954Y-89532677D01*
X210945505Y-112161581D02*
X210945505Y-111161581D01*
X211326458Y-111161581D01*
X211421696Y-111209200D01*
X211469315Y-111256819D01*
X211516934Y-111352057D01*
X211516934Y-111494914D01*
X211469315Y-111590152D01*
X211421696Y-111637771D01*
X211326458Y-111685390D01*
X210945505Y-111685390D01*
X212374077Y-111161581D02*
X212183600Y-111161581D01*
X212088362Y-111209200D01*
X212040743Y-111256819D01*
X211945505Y-111399676D01*
X211897886Y-111590152D01*
X211897886Y-111971105D01*
X211945505Y-112066343D01*
X211993124Y-112113962D01*
X212088362Y-112161581D01*
X212278839Y-112161581D01*
X212374077Y-112113962D01*
X212421696Y-112066343D01*
X212469315Y-111971105D01*
X212469315Y-111733010D01*
X212421696Y-111637771D01*
X212374077Y-111590152D01*
X212278839Y-111542533D01*
X212088362Y-111542533D01*
X211993124Y-111590152D01*
X211945505Y-111637771D01*
X211897886Y-111733010D01*
X233957905Y-140203181D02*
X233957905Y-139203181D01*
X234338858Y-139203181D01*
X234434096Y-139250800D01*
X234481715Y-139298419D01*
X234529334Y-139393657D01*
X234529334Y-139536514D01*
X234481715Y-139631752D01*
X234434096Y-139679371D01*
X234338858Y-139726990D01*
X233957905Y-139726990D01*
X235434096Y-139203181D02*
X234957905Y-139203181D01*
X234910286Y-139679371D01*
X234957905Y-139631752D01*
X235053143Y-139584133D01*
X235291239Y-139584133D01*
X235386477Y-139631752D01*
X235434096Y-139679371D01*
X235481715Y-139774610D01*
X235481715Y-140012705D01*
X235434096Y-140107943D01*
X235386477Y-140155562D01*
X235291239Y-140203181D01*
X235053143Y-140203181D01*
X234957905Y-140155562D01*
X234910286Y-140107943D01*
X204446143Y-119140266D02*
X204493762Y-119187885D01*
X204541381Y-119330742D01*
X204541381Y-119425980D01*
X204493762Y-119568838D01*
X204398524Y-119664076D01*
X204303286Y-119711695D01*
X204112810Y-119759314D01*
X203969952Y-119759314D01*
X203779476Y-119711695D01*
X203684238Y-119664076D01*
X203589000Y-119568838D01*
X203541381Y-119425980D01*
X203541381Y-119330742D01*
X203589000Y-119187885D01*
X203636619Y-119140266D01*
X203541381Y-118235504D02*
X203541381Y-118711695D01*
X204017571Y-118759314D01*
X203969952Y-118711695D01*
X203922333Y-118616457D01*
X203922333Y-118378361D01*
X203969952Y-118283123D01*
X204017571Y-118235504D01*
X204112810Y-118187885D01*
X204350905Y-118187885D01*
X204446143Y-118235504D01*
X204493762Y-118283123D01*
X204541381Y-118378361D01*
X204541381Y-118616457D01*
X204493762Y-118711695D01*
X204446143Y-118759314D01*
X195530743Y-109234266D02*
X195578362Y-109281885D01*
X195625981Y-109424742D01*
X195625981Y-109519980D01*
X195578362Y-109662838D01*
X195483124Y-109758076D01*
X195387886Y-109805695D01*
X195197410Y-109853314D01*
X195054552Y-109853314D01*
X194864076Y-109805695D01*
X194768838Y-109758076D01*
X194673600Y-109662838D01*
X194625981Y-109519980D01*
X194625981Y-109424742D01*
X194673600Y-109281885D01*
X194721219Y-109234266D01*
X194959314Y-108377123D02*
X195625981Y-108377123D01*
X194578362Y-108615219D02*
X195292648Y-108853314D01*
X195292648Y-108234266D01*
X238672643Y-122099366D02*
X238720262Y-122146985D01*
X238767881Y-122289842D01*
X238767881Y-122385080D01*
X238720262Y-122527938D01*
X238625024Y-122623176D01*
X238529786Y-122670795D01*
X238339310Y-122718414D01*
X238196452Y-122718414D01*
X238005976Y-122670795D01*
X237910738Y-122623176D01*
X237815500Y-122527938D01*
X237767881Y-122385080D01*
X237767881Y-122289842D01*
X237815500Y-122146985D01*
X237863119Y-122099366D01*
X237767881Y-121766033D02*
X237767881Y-121146985D01*
X238148833Y-121480319D01*
X238148833Y-121337461D01*
X238196452Y-121242223D01*
X238244071Y-121194604D01*
X238339310Y-121146985D01*
X238577405Y-121146985D01*
X238672643Y-121194604D01*
X238720262Y-121242223D01*
X238767881Y-121337461D01*
X238767881Y-121623176D01*
X238720262Y-121718414D01*
X238672643Y-121766033D01*
X214788134Y-111645343D02*
X214740515Y-111692962D01*
X214597658Y-111740581D01*
X214502420Y-111740581D01*
X214359562Y-111692962D01*
X214264324Y-111597724D01*
X214216705Y-111502486D01*
X214169086Y-111312010D01*
X214169086Y-111169152D01*
X214216705Y-110978676D01*
X214264324Y-110883438D01*
X214359562Y-110788200D01*
X214502420Y-110740581D01*
X214597658Y-110740581D01*
X214740515Y-110788200D01*
X214788134Y-110835819D01*
X215169086Y-110835819D02*
X215216705Y-110788200D01*
X215311943Y-110740581D01*
X215550039Y-110740581D01*
X215645277Y-110788200D01*
X215692896Y-110835819D01*
X215740515Y-110931057D01*
X215740515Y-111026295D01*
X215692896Y-111169152D01*
X215121467Y-111740581D01*
X215740515Y-111740581D01*
X207417943Y-114365066D02*
X207465562Y-114412685D01*
X207513181Y-114555542D01*
X207513181Y-114650780D01*
X207465562Y-114793638D01*
X207370324Y-114888876D01*
X207275086Y-114936495D01*
X207084610Y-114984114D01*
X206941752Y-114984114D01*
X206751276Y-114936495D01*
X206656038Y-114888876D01*
X206560800Y-114793638D01*
X206513181Y-114650780D01*
X206513181Y-114555542D01*
X206560800Y-114412685D01*
X206608419Y-114365066D01*
X207513181Y-113412685D02*
X207513181Y-113984114D01*
X207513181Y-113698400D02*
X206513181Y-113698400D01*
X206656038Y-113793638D01*
X206751276Y-113888876D01*
X206798895Y-113984114D01*
X193632350Y-118583221D02*
X194043424Y-118172262D01*
X193533123Y-118020473D02*
X194517931Y-117846825D01*
X194584082Y-118221991D01*
X194553725Y-118324051D01*
X194515098Y-118379215D01*
X194429576Y-118442649D01*
X194288889Y-118467456D01*
X194186829Y-118437098D01*
X194131665Y-118398471D01*
X194068231Y-118312949D01*
X194002079Y-117937784D01*
X194589519Y-118801275D02*
X194644683Y-118839902D01*
X194708117Y-118925424D01*
X194749462Y-119159903D01*
X194719104Y-119261963D01*
X194680477Y-119317128D01*
X194594955Y-119380561D01*
X194501164Y-119397099D01*
X194352208Y-119375010D01*
X193690233Y-118911490D01*
X193797730Y-119521133D01*
X191652930Y-118592960D02*
X191553702Y-118030212D01*
X191603316Y-118311586D02*
X192588124Y-118137938D01*
X192430899Y-118068953D01*
X192320570Y-117991700D01*
X192257136Y-117906178D01*
X192745234Y-119028954D02*
X192761772Y-119122746D01*
X192731414Y-119224806D01*
X192692788Y-119279971D01*
X192607265Y-119343404D01*
X192427952Y-119423376D01*
X192193473Y-119464721D01*
X191997622Y-119450901D01*
X191895562Y-119420543D01*
X191840398Y-119381917D01*
X191776964Y-119296395D01*
X191760426Y-119202602D01*
X191790784Y-119100542D01*
X191829410Y-119045378D01*
X191914933Y-118981944D01*
X192094246Y-118901973D01*
X192328725Y-118860628D01*
X192524576Y-118874448D01*
X192626636Y-118904805D01*
X192681800Y-118943432D01*
X192745234Y-119028954D01*
X191892729Y-119952932D02*
X192877537Y-119779284D01*
X192284432Y-119980572D02*
X191958881Y-120328098D01*
X192615420Y-120212332D02*
X192174103Y-119903319D01*
X200501062Y-143420896D02*
X200350697Y-142859416D01*
X199964094Y-143225456D02*
X200306114Y-142285763D01*
X200664093Y-142416057D01*
X200737301Y-142493377D01*
X200765761Y-142554411D01*
X200777935Y-142660192D01*
X200729075Y-142794434D01*
X200651755Y-142867642D01*
X200590721Y-142896102D01*
X200484940Y-142908276D01*
X200126961Y-142777983D01*
X201156312Y-142595210D02*
X201782775Y-142823223D01*
X201038028Y-143616336D01*
X200306500Y-141620454D02*
X199769532Y-141425013D01*
X200038016Y-141522733D02*
X200380036Y-140583041D01*
X200241681Y-140684709D01*
X200119614Y-140741630D01*
X200013832Y-140753804D01*
X201230234Y-140892488D02*
X201319729Y-140925061D01*
X201392937Y-141002382D01*
X201421398Y-141063416D01*
X201433572Y-141169197D01*
X201413172Y-141364472D01*
X201331738Y-141588209D01*
X201221845Y-141750912D01*
X201144524Y-141824119D01*
X201083490Y-141852580D01*
X200977709Y-141864754D01*
X200888214Y-141832180D01*
X200815006Y-141754860D01*
X200786545Y-141693826D01*
X200774371Y-141588045D01*
X200794771Y-141392769D01*
X200876204Y-141169032D01*
X200986098Y-141006330D01*
X201063419Y-140933122D01*
X201124453Y-140904662D01*
X201230234Y-140892488D01*
X201604170Y-142092767D02*
X201946190Y-141153074D01*
X201823958Y-141767363D02*
X201962149Y-142223061D01*
X202190162Y-141596599D02*
X201701890Y-141824284D01*
X235198794Y-107752454D02*
X235444520Y-107225682D01*
X234913079Y-107257581D02*
X235779104Y-106757581D01*
X235969581Y-107087496D01*
X235975961Y-107193784D01*
X235958531Y-107258833D01*
X235899862Y-107347692D01*
X235776144Y-107419120D01*
X235669856Y-107425500D01*
X235604807Y-107408070D01*
X235515949Y-107349401D01*
X235325473Y-107019486D01*
X236204716Y-108161428D02*
X235627365Y-108494761D01*
X236415582Y-107764754D02*
X235677944Y-107915701D01*
X235987468Y-108451812D01*
X229953693Y-104971154D02*
X230199419Y-104444382D01*
X229667978Y-104476281D02*
X230534003Y-103976281D01*
X230724480Y-104306196D01*
X230730860Y-104412484D01*
X230713430Y-104477533D01*
X230654761Y-104566392D01*
X230531043Y-104637820D01*
X230424755Y-104644200D01*
X230359706Y-104626770D01*
X230270848Y-104568101D01*
X230080372Y-104238186D01*
X230986384Y-104759828D02*
X231295908Y-105295940D01*
X230799327Y-105197740D01*
X230870756Y-105321459D01*
X230877136Y-105427747D01*
X230859706Y-105492795D01*
X230801036Y-105581654D01*
X230594840Y-105700702D01*
X230488552Y-105707081D01*
X230423503Y-105689652D01*
X230334645Y-105630983D01*
X230191788Y-105383546D01*
X230185408Y-105277258D01*
X230202838Y-105212209D01*
X196973801Y-134284707D02*
X197307267Y-133808608D01*
X196778361Y-133747739D02*
X197718053Y-133405719D01*
X197848347Y-133763698D01*
X197836173Y-133869479D01*
X197807712Y-133930513D01*
X197734505Y-134007833D01*
X197600263Y-134056693D01*
X197494482Y-134044519D01*
X197433448Y-134016059D01*
X197356127Y-133942851D01*
X197225834Y-133584872D01*
X197299534Y-135179652D02*
X197104094Y-134642684D01*
X197201814Y-134911168D02*
X198141507Y-134569148D01*
X197974692Y-134528513D01*
X197852624Y-134471592D01*
X197775303Y-134398384D01*
X195052918Y-134723383D02*
X194857477Y-134186415D01*
X194955197Y-134454898D02*
X195894890Y-134112878D01*
X195728075Y-134072244D01*
X195606007Y-134015323D01*
X195528687Y-133942115D01*
X196204337Y-134963076D02*
X196236910Y-135052572D01*
X196224736Y-135158353D01*
X196196276Y-135219387D01*
X196123068Y-135296707D01*
X195960366Y-135406601D01*
X195736629Y-135488035D01*
X195541353Y-135508434D01*
X195435572Y-135496260D01*
X195374538Y-135467800D01*
X195297218Y-135394592D01*
X195264644Y-135305097D01*
X195276818Y-135199315D01*
X195305279Y-135138282D01*
X195378486Y-135060961D01*
X195541189Y-134951067D01*
X195764926Y-134869634D01*
X195960201Y-134849234D01*
X196065982Y-134861408D01*
X196127016Y-134889869D01*
X196204337Y-134963076D01*
X195525231Y-136021053D02*
X196464924Y-135679033D01*
X195915782Y-135980254D02*
X195655525Y-136379032D01*
X196281987Y-136151018D02*
X195793714Y-135923333D01*
X204595505Y-79751181D02*
X204595505Y-78751181D01*
X204833600Y-78751181D01*
X204976458Y-78798800D01*
X205071696Y-78894038D01*
X205119315Y-78989276D01*
X205166934Y-79179752D01*
X205166934Y-79322610D01*
X205119315Y-79513086D01*
X205071696Y-79608324D01*
X204976458Y-79703562D01*
X204833600Y-79751181D01*
X204595505Y-79751181D01*
X206119315Y-79751181D02*
X205547886Y-79751181D01*
X205833600Y-79751181D02*
X205833600Y-78751181D01*
X205738362Y-78894038D01*
X205643124Y-78989276D01*
X205547886Y-79036895D01*
X208500695Y-81910181D02*
X208500695Y-80910181D01*
X209072124Y-81910181D02*
X208643552Y-81338752D01*
X209072124Y-80910181D02*
X208500695Y-81481610D01*
X219835505Y-77871581D02*
X219835505Y-76871581D01*
X220073600Y-76871581D01*
X220216458Y-76919200D01*
X220311696Y-77014438D01*
X220359315Y-77109676D01*
X220406934Y-77300152D01*
X220406934Y-77443010D01*
X220359315Y-77633486D01*
X220311696Y-77728724D01*
X220216458Y-77823962D01*
X220073600Y-77871581D01*
X219835505Y-77871581D01*
X220787886Y-76966819D02*
X220835505Y-76919200D01*
X220930743Y-76871581D01*
X221168839Y-76871581D01*
X221264077Y-76919200D01*
X221311696Y-76966819D01*
X221359315Y-77062057D01*
X221359315Y-77157295D01*
X221311696Y-77300152D01*
X220740267Y-77871581D01*
X221359315Y-77871581D01*
X223740695Y-80030581D02*
X223740695Y-79030581D01*
X224312124Y-80030581D02*
X223883552Y-79459152D01*
X224312124Y-79030581D02*
X223740695Y-79602010D01*
X200596667Y-123797962D02*
X200739524Y-123845581D01*
X200977620Y-123845581D01*
X201072858Y-123797962D01*
X201120477Y-123750343D01*
X201168096Y-123655105D01*
X201168096Y-123559867D01*
X201120477Y-123464629D01*
X201072858Y-123417010D01*
X200977620Y-123369390D01*
X200787143Y-123321771D01*
X200691905Y-123274152D01*
X200644286Y-123226533D01*
X200596667Y-123131295D01*
X200596667Y-123036057D01*
X200644286Y-122940819D01*
X200691905Y-122893200D01*
X200787143Y-122845581D01*
X201025239Y-122845581D01*
X201168096Y-122893200D01*
X201501429Y-122845581D02*
X201739524Y-123845581D01*
X201930001Y-123131295D01*
X202120477Y-123845581D01*
X202358572Y-122845581D01*
X203263334Y-123845581D02*
X202691905Y-123845581D01*
X202977619Y-123845581D02*
X202977619Y-122845581D01*
X202882381Y-122988438D01*
X202787143Y-123083676D01*
X202691905Y-123131295D01*
X201479257Y-129487562D02*
X201622114Y-129535181D01*
X201860210Y-129535181D01*
X201955448Y-129487562D01*
X202003067Y-129439943D01*
X202050686Y-129344705D01*
X202050686Y-129249467D01*
X202003067Y-129154229D01*
X201955448Y-129106610D01*
X201860210Y-129058990D01*
X201669733Y-129011371D01*
X201574495Y-128963752D01*
X201526876Y-128916133D01*
X201479257Y-128820895D01*
X201479257Y-128725657D01*
X201526876Y-128630419D01*
X201574495Y-128582800D01*
X201669733Y-128535181D01*
X201907829Y-128535181D01*
X202050686Y-128582800D01*
X202384019Y-128535181D02*
X202622114Y-129535181D01*
X202812591Y-128820895D01*
X203003067Y-129535181D01*
X203241162Y-128535181D01*
X202120667Y-133043562D02*
X202263524Y-133091181D01*
X202501620Y-133091181D01*
X202596858Y-133043562D01*
X202644477Y-132995943D01*
X202692096Y-132900705D01*
X202692096Y-132805467D01*
X202644477Y-132710229D01*
X202596858Y-132662610D01*
X202501620Y-132614990D01*
X202311143Y-132567371D01*
X202215905Y-132519752D01*
X202168286Y-132472133D01*
X202120667Y-132376895D01*
X202120667Y-132281657D01*
X202168286Y-132186419D01*
X202215905Y-132138800D01*
X202311143Y-132091181D01*
X202549239Y-132091181D01*
X202692096Y-132138800D01*
X203025429Y-132091181D02*
X203263524Y-133091181D01*
X203454001Y-132376895D01*
X203644477Y-133091181D01*
X203882572Y-132091181D01*
X204215905Y-132186419D02*
X204263524Y-132138800D01*
X204358762Y-132091181D01*
X204596858Y-132091181D01*
X204692096Y-132138800D01*
X204739715Y-132186419D01*
X204787334Y-132281657D01*
X204787334Y-132376895D01*
X204739715Y-132519752D01*
X204168286Y-133091181D01*
X204787334Y-133091181D01*
X202266705Y-138780781D02*
X201933371Y-138304590D01*
X201695276Y-138780781D02*
X201695276Y-137780781D01*
X202076229Y-137780781D01*
X202171467Y-137828400D01*
X202219086Y-137876019D01*
X202266705Y-137971257D01*
X202266705Y-138114114D01*
X202219086Y-138209352D01*
X202171467Y-138256971D01*
X202076229Y-138304590D01*
X201695276Y-138304590D01*
X203076229Y-138733162D02*
X202980991Y-138780781D01*
X202790514Y-138780781D01*
X202695276Y-138733162D01*
X202647657Y-138637924D01*
X202647657Y-138256971D01*
X202695276Y-138161733D01*
X202790514Y-138114114D01*
X202980991Y-138114114D01*
X203076229Y-138161733D01*
X203123848Y-138256971D01*
X203123848Y-138352210D01*
X202647657Y-138447448D01*
X203504800Y-138733162D02*
X203600038Y-138780781D01*
X203790514Y-138780781D01*
X203885753Y-138733162D01*
X203933372Y-138637924D01*
X203933372Y-138590305D01*
X203885753Y-138495067D01*
X203790514Y-138447448D01*
X203647657Y-138447448D01*
X203552419Y-138399829D01*
X203504800Y-138304590D01*
X203504800Y-138256971D01*
X203552419Y-138161733D01*
X203647657Y-138114114D01*
X203790514Y-138114114D01*
X203885753Y-138161733D01*
X204742896Y-138733162D02*
X204647658Y-138780781D01*
X204457181Y-138780781D01*
X204361943Y-138733162D01*
X204314324Y-138637924D01*
X204314324Y-138256971D01*
X204361943Y-138161733D01*
X204457181Y-138114114D01*
X204647658Y-138114114D01*
X204742896Y-138161733D01*
X204790515Y-138256971D01*
X204790515Y-138352210D01*
X204314324Y-138447448D01*
X205076229Y-138114114D02*
X205457181Y-138114114D01*
X205219086Y-137780781D02*
X205219086Y-138637924D01*
X205266705Y-138733162D01*
X205361943Y-138780781D01*
X205457181Y-138780781D01*
X208877067Y-143508362D02*
X209019924Y-143555981D01*
X209258020Y-143555981D01*
X209353258Y-143508362D01*
X209400877Y-143460743D01*
X209448496Y-143365505D01*
X209448496Y-143270267D01*
X209400877Y-143175029D01*
X209353258Y-143127410D01*
X209258020Y-143079790D01*
X209067543Y-143032171D01*
X208972305Y-142984552D01*
X208924686Y-142936933D01*
X208877067Y-142841695D01*
X208877067Y-142746457D01*
X208924686Y-142651219D01*
X208972305Y-142603600D01*
X209067543Y-142555981D01*
X209305639Y-142555981D01*
X209448496Y-142603600D01*
X209781829Y-142555981D02*
X210019924Y-143555981D01*
X210210401Y-142841695D01*
X210400877Y-143555981D01*
X210638972Y-142555981D01*
X210924686Y-142555981D02*
X211543734Y-142555981D01*
X211210400Y-142936933D01*
X211353258Y-142936933D01*
X211448496Y-142984552D01*
X211496115Y-143032171D01*
X211543734Y-143127410D01*
X211543734Y-143365505D01*
X211496115Y-143460743D01*
X211448496Y-143508362D01*
X211353258Y-143555981D01*
X211067543Y-143555981D01*
X210972305Y-143508362D01*
X210924686Y-143460743D01*
X206238838Y-148991581D02*
X206238838Y-147991581D01*
X206619791Y-147991581D01*
X206715029Y-148039200D01*
X206762648Y-148086819D01*
X206810267Y-148182057D01*
X206810267Y-148324914D01*
X206762648Y-148420152D01*
X206715029Y-148467771D01*
X206619791Y-148515390D01*
X206238838Y-148515390D01*
X207238838Y-148991581D02*
X207238838Y-148324914D01*
X207238838Y-148515390D02*
X207286457Y-148420152D01*
X207334076Y-148372533D01*
X207429314Y-148324914D01*
X207524553Y-148324914D01*
X208000743Y-148991581D02*
X207905505Y-148943962D01*
X207857886Y-148896343D01*
X207810267Y-148801105D01*
X207810267Y-148515390D01*
X207857886Y-148420152D01*
X207905505Y-148372533D01*
X208000743Y-148324914D01*
X208143601Y-148324914D01*
X208238839Y-148372533D01*
X208286458Y-148420152D01*
X208334077Y-148515390D01*
X208334077Y-148801105D01*
X208286458Y-148896343D01*
X208238839Y-148943962D01*
X208143601Y-148991581D01*
X208000743Y-148991581D01*
X209191220Y-148324914D02*
X209191220Y-149134438D01*
X209143601Y-149229676D01*
X209095982Y-149277295D01*
X209000743Y-149324914D01*
X208857886Y-149324914D01*
X208762648Y-149277295D01*
X209191220Y-148943962D02*
X209095982Y-148991581D01*
X208905505Y-148991581D01*
X208810267Y-148943962D01*
X208762648Y-148896343D01*
X208715029Y-148801105D01*
X208715029Y-148515390D01*
X208762648Y-148420152D01*
X208810267Y-148372533D01*
X208905505Y-148324914D01*
X209095982Y-148324914D01*
X209191220Y-148372533D01*
X209667410Y-148991581D02*
X209667410Y-148324914D01*
X209667410Y-148515390D02*
X209715029Y-148420152D01*
X209762648Y-148372533D01*
X209857886Y-148324914D01*
X209953125Y-148324914D01*
X210715030Y-148991581D02*
X210715030Y-148467771D01*
X210667411Y-148372533D01*
X210572173Y-148324914D01*
X210381696Y-148324914D01*
X210286458Y-148372533D01*
X210715030Y-148943962D02*
X210619792Y-148991581D01*
X210381696Y-148991581D01*
X210286458Y-148943962D01*
X210238839Y-148848724D01*
X210238839Y-148753486D01*
X210286458Y-148658248D01*
X210381696Y-148610629D01*
X210619792Y-148610629D01*
X210715030Y-148563010D01*
X211191220Y-148991581D02*
X211191220Y-148324914D01*
X211191220Y-148420152D02*
X211238839Y-148372533D01*
X211334077Y-148324914D01*
X211476935Y-148324914D01*
X211572173Y-148372533D01*
X211619792Y-148467771D01*
X211619792Y-148991581D01*
X211619792Y-148467771D02*
X211667411Y-148372533D01*
X211762649Y-148324914D01*
X211905506Y-148324914D01*
X212000744Y-148372533D01*
X212048363Y-148467771D01*
X212048363Y-148991581D01*
X195066829Y-126338957D02*
X195400295Y-125862858D01*
X194871389Y-125801989D02*
X195811081Y-125459969D01*
X195941375Y-125817948D01*
X195929201Y-125923729D01*
X195900740Y-125984763D01*
X195827533Y-126062083D01*
X195693291Y-126110943D01*
X195587510Y-126098769D01*
X195526476Y-126070309D01*
X195449155Y-125997101D01*
X195318862Y-125639122D01*
X195799236Y-126680483D02*
X195811410Y-126574702D01*
X195839871Y-126513668D01*
X195913079Y-126436348D01*
X195957826Y-126420061D01*
X196063607Y-126432235D01*
X196124641Y-126460695D01*
X196201961Y-126533903D01*
X196267108Y-126712893D01*
X196254934Y-126818674D01*
X196226474Y-126879708D01*
X196153266Y-126957028D01*
X196108519Y-126973315D01*
X196002738Y-126961141D01*
X195941704Y-126932681D01*
X195864383Y-126859473D01*
X195799236Y-126680483D01*
X195721916Y-126607275D01*
X195660882Y-126578815D01*
X195555100Y-126566641D01*
X195376111Y-126631788D01*
X195302903Y-126709108D01*
X195274443Y-126770142D01*
X195262269Y-126875923D01*
X195327416Y-127054913D01*
X195404736Y-127128121D01*
X195465770Y-127156581D01*
X195571551Y-127168755D01*
X195750540Y-127103609D01*
X195823749Y-127026288D01*
X195852209Y-126965254D01*
X195864383Y-126859473D01*
X193104160Y-126813474D02*
X192908719Y-126276506D01*
X193006439Y-126544989D02*
X193946132Y-126202969D01*
X193779317Y-126162335D01*
X193657249Y-126105414D01*
X193579929Y-126032206D01*
X194255579Y-127053167D02*
X194288152Y-127142663D01*
X194275978Y-127248444D01*
X194247518Y-127309478D01*
X194174310Y-127386798D01*
X194011608Y-127496692D01*
X193787871Y-127578126D01*
X193592595Y-127598525D01*
X193486814Y-127586351D01*
X193425780Y-127557891D01*
X193348460Y-127484683D01*
X193315886Y-127395188D01*
X193328060Y-127289406D01*
X193356521Y-127228373D01*
X193429728Y-127151052D01*
X193592431Y-127041158D01*
X193816168Y-126959725D01*
X194011443Y-126939325D01*
X194117224Y-126951499D01*
X194178258Y-126979960D01*
X194255579Y-127053167D01*
X193576473Y-128111144D02*
X194516166Y-127769124D01*
X193967024Y-128070345D02*
X193706767Y-128469123D01*
X194333229Y-128241109D02*
X193844956Y-128013424D01*
M02*
