G04 #@! TF.FileFunction,Copper,L2,Bot,Signal*
%FSLAX46Y46*%
G04 Gerber Fmt 4.6, Leading zero omitted, Abs format (unit mm)*
G04 Created by KiCad (PCBNEW 0.201507042246+5884~23~ubuntu14.04.1-product) date Thu 09 Jul 2015 02:20:39 PM PDT*
%MOMM*%
G01*
G04 APERTURE LIST*
%ADD10C,0.150000*%
%ADD11O,1.600000X1.600000*%
%ADD12C,2.032000*%
%ADD13R,2.032000X2.032000*%
%ADD14O,2.032000X2.032000*%
%ADD15C,1.501140*%
%ADD16R,2.032000X1.727200*%
%ADD17O,2.032000X1.727200*%
%ADD18R,1.300000X1.300000*%
%ADD19C,1.300000*%
%ADD20C,1.998980*%
%ADD21R,1.900000X2.000000*%
%ADD22C,1.900000*%
%ADD23C,1.397000*%
%ADD24C,0.900000*%
%ADD25C,0.254000*%
G04 APERTURE END LIST*
D10*
D11*
X219837000Y-110109000D03*
X219837000Y-112649000D03*
X219837000Y-115189000D03*
X219837000Y-117729000D03*
X219837000Y-120269000D03*
X219837000Y-122809000D03*
X219837000Y-125349000D03*
X219837000Y-127889000D03*
X219837000Y-130429000D03*
X219837000Y-132969000D03*
X219837000Y-135509000D03*
X219837000Y-138049000D03*
X219837000Y-140589000D03*
X219837000Y-143129000D03*
X227457000Y-143129000D03*
X227457000Y-140589000D03*
X227457000Y-138049000D03*
X227457000Y-135509000D03*
X227457000Y-132969000D03*
X227457000Y-130429000D03*
X227457000Y-127889000D03*
X227457000Y-125349000D03*
X227457000Y-122809000D03*
X227457000Y-120269000D03*
X227457000Y-117729000D03*
X227457000Y-115189000D03*
X227457000Y-112649000D03*
X227457000Y-110109000D03*
D10*
G36*
X198628000Y-73191841D02*
X197191159Y-71755000D01*
X198628000Y-70318159D01*
X200064841Y-71755000D01*
X198628000Y-73191841D01*
X198628000Y-73191841D01*
G37*
D12*
X200424051Y-73551051D02*
X200424051Y-73551051D01*
D10*
G36*
X225307118Y-69078882D02*
X226323118Y-67319118D01*
X228082882Y-68335118D01*
X227066882Y-70094882D01*
X225307118Y-69078882D01*
X225307118Y-69078882D01*
G37*
D12*
X225425000Y-70906705D02*
X225425000Y-70906705D01*
D13*
X199009000Y-118110000D03*
D14*
X196469000Y-118110000D03*
D15*
X215797595Y-93344251D03*
X210922405Y-93599749D03*
D10*
G36*
X203728353Y-105787894D02*
X203033368Y-107697349D01*
X199596349Y-106446376D01*
X200291334Y-104536921D01*
X203728353Y-105787894D01*
X203728353Y-105787894D01*
G37*
G36*
X200228505Y-111541884D02*
X199533520Y-113451339D01*
X198578793Y-113103846D01*
X199273778Y-111194391D01*
X200228505Y-111541884D01*
X200228505Y-111541884D01*
G37*
G36*
X198080368Y-110760026D02*
X197385383Y-112669481D01*
X196430656Y-112321988D01*
X197125641Y-110412533D01*
X198080368Y-110760026D01*
X198080368Y-110760026D01*
G37*
G36*
X202376643Y-112323742D02*
X201681658Y-114233197D01*
X200726931Y-113885704D01*
X201421916Y-111976249D01*
X202376643Y-112323742D01*
X202376643Y-112323742D01*
G37*
D16*
X211836000Y-114173000D03*
D17*
X211836000Y-116713000D03*
X211836000Y-119253000D03*
X211836000Y-121793000D03*
X211836000Y-124333000D03*
X211836000Y-126873000D03*
X211836000Y-129413000D03*
X211836000Y-131953000D03*
X211836000Y-134493000D03*
X211836000Y-137033000D03*
D16*
X235331000Y-137033000D03*
D17*
X235331000Y-134493000D03*
X235331000Y-131953000D03*
X235331000Y-129413000D03*
X235331000Y-126873000D03*
X235331000Y-124333000D03*
X235331000Y-121793000D03*
X235331000Y-119253000D03*
X235331000Y-116713000D03*
X235331000Y-114173000D03*
D18*
X204038200Y-116890800D03*
D19*
X204038200Y-114390800D03*
D18*
X194462400Y-111252000D03*
D19*
X194462400Y-113752000D03*
D18*
X238252000Y-119761000D03*
D19*
X238252000Y-117261000D03*
D18*
X216204800Y-108788200D03*
D19*
X213704800Y-108788200D03*
D18*
X208457800Y-118389400D03*
D19*
X208457800Y-115889400D03*
D20*
X193677209Y-121434989D03*
X192808750Y-116509709D03*
X199124170Y-139530969D03*
X203823817Y-141241500D03*
X217883611Y-77523009D03*
X222808891Y-76654550D03*
X202859640Y-77978000D03*
X207860900Y-77978000D03*
X232912920Y-106166491D03*
X235413550Y-110497709D03*
X230357680Y-109352509D03*
X227857050Y-105021291D03*
X195639569Y-132271370D03*
X197350100Y-136971017D03*
D21*
X206857600Y-83362800D03*
D22*
X204317600Y-83362800D03*
D21*
X222097600Y-81483200D03*
D22*
X219557600Y-81483200D03*
D23*
X205740000Y-121615200D03*
X205740000Y-126695200D03*
X198120000Y-121615200D03*
X198120000Y-126695200D03*
X207264000Y-130860800D03*
X207264000Y-135940800D03*
X199644000Y-130860800D03*
X199644000Y-135940800D03*
X214020400Y-141325600D03*
X214020400Y-146405600D03*
X206400400Y-141325600D03*
X206400400Y-146405600D03*
D20*
X195596631Y-129145430D03*
X193886100Y-124445783D03*
D24*
X202311000Y-133248400D03*
X206552800Y-133273800D03*
X222961200Y-108026200D03*
X201320400Y-115620800D03*
X217424000Y-146761200D03*
X209321400Y-131775200D03*
X232156000Y-111709200D03*
X231444800Y-122885200D03*
X205460600Y-110413800D03*
X221716600Y-145237200D03*
X224459800Y-143459200D03*
D25*
X208457800Y-118389400D02*
X208457800Y-118541800D01*
X208457800Y-118541800D02*
X210058000Y-120142000D01*
X210058000Y-120142000D02*
X210058000Y-125095000D01*
X210058000Y-125095000D02*
X211836000Y-126873000D01*
X216281000Y-126873000D02*
X219837000Y-130429000D01*
X211836000Y-126873000D02*
X216281000Y-126873000D01*
X206527400Y-133248400D02*
X202311000Y-133248400D01*
X206552800Y-133273800D02*
X206527400Y-133248400D01*
X196469000Y-118110000D02*
X196469000Y-122567700D01*
X196469000Y-122567700D02*
X194741800Y-124294900D01*
X194462400Y-113752000D02*
X194462400Y-115631600D01*
X194437000Y-115657000D02*
X194437000Y-116078000D01*
X194437000Y-116078000D02*
X196469000Y-118110000D01*
X194462400Y-115631600D02*
X194437000Y-115657000D01*
X192808750Y-116509709D02*
X194868709Y-116509709D01*
X194868709Y-116509709D02*
X196469000Y-118110000D01*
X207314800Y-135890000D02*
X199694800Y-135890000D01*
X220346340Y-83566000D02*
X222251340Y-81661000D01*
X207519340Y-83566000D02*
X220346340Y-83566000D01*
X207011340Y-83058000D02*
X207519340Y-83566000D01*
X207011340Y-83058000D02*
X206629000Y-83440340D01*
X196469000Y-118110000D02*
X199009000Y-118110000D01*
X224917000Y-132969000D02*
X227457000Y-132969000D01*
X219837000Y-127889000D02*
X224917000Y-132969000D01*
X215279600Y-107213400D02*
X213704800Y-108788200D01*
X222148400Y-107213400D02*
X215279600Y-107213400D01*
X222961200Y-108026200D02*
X222148400Y-107213400D01*
X202752123Y-113104723D02*
X204038200Y-114390800D01*
X201551787Y-113104723D02*
X202752123Y-113104723D01*
X201551787Y-115389413D02*
X201320400Y-115620800D01*
X201551787Y-113104723D02*
X201551787Y-115389413D01*
X206959200Y-114390800D02*
X208457800Y-115889400D01*
X204038200Y-114390800D02*
X206959200Y-114390800D01*
X233172000Y-112649000D02*
X233553000Y-112268000D01*
X233553000Y-112268000D02*
X236220000Y-112268000D01*
X236220000Y-112268000D02*
X237744000Y-113792000D01*
X237744000Y-113792000D02*
X237744000Y-115570000D01*
X237744000Y-115570000D02*
X238252000Y-116078000D01*
X238252000Y-116078000D02*
X238252000Y-117261000D01*
X227457000Y-112649000D02*
X233172000Y-112649000D01*
X219837000Y-132969000D02*
X216281000Y-129413000D01*
X213537800Y-129413000D02*
X213106000Y-129413000D01*
X216281000Y-129413000D02*
X213537800Y-129413000D01*
X211836000Y-129413000D02*
X213537800Y-129413000D01*
X197255512Y-111541007D02*
X194751407Y-111541007D01*
X194751407Y-111541007D02*
X194462400Y-111252000D01*
X225425000Y-69977000D02*
X225425000Y-70906705D01*
X225425000Y-69977000D02*
X225425000Y-70906705D01*
X226695000Y-68707000D02*
X225425000Y-69977000D01*
X197255512Y-106071288D02*
X197255512Y-111541007D01*
X201676000Y-81407000D02*
X199821800Y-83261200D01*
X220766705Y-75565000D02*
X209169000Y-75565000D01*
X225425000Y-70906705D02*
X220766705Y-75565000D01*
X207518000Y-75565000D02*
X209169000Y-75565000D01*
X201930000Y-81153000D02*
X201676000Y-81407000D01*
X203835000Y-79248000D02*
X201930000Y-81153000D01*
X203835000Y-79248000D02*
X207518000Y-75565000D01*
X199821800Y-103505000D02*
X197485000Y-105841800D01*
X199821800Y-103276400D02*
X199821800Y-103505000D01*
X199821800Y-83261200D02*
X199821800Y-103276400D01*
X197485000Y-105841800D02*
X197255512Y-106071288D01*
X227457000Y-143129000D02*
X227457000Y-143154400D01*
X197255512Y-113841912D02*
X199237600Y-115824000D01*
X199237600Y-115824000D02*
X199796400Y-115824000D01*
X199796400Y-115824000D02*
X203047600Y-119075200D01*
X203047600Y-119075200D02*
X205816200Y-119075200D01*
X205816200Y-119075200D02*
X207314800Y-120573800D01*
X207314800Y-120573800D02*
X207314800Y-126466600D01*
X197255512Y-111541007D02*
X197255512Y-113841912D01*
X227457000Y-143154400D02*
X223850200Y-146761200D01*
X223850200Y-146761200D02*
X217424000Y-146761200D01*
X208584800Y-131038600D02*
X209321400Y-131775200D01*
X207314800Y-126466600D02*
X208584800Y-127736600D01*
X208584800Y-127736600D02*
X208584800Y-131038600D01*
X227457000Y-122809000D02*
X231368600Y-122809000D01*
X228600000Y-111252000D02*
X227457000Y-110109000D01*
X231698800Y-111252000D02*
X228600000Y-111252000D01*
X232156000Y-111709200D02*
X231698800Y-111252000D01*
X231368600Y-122809000D02*
X231444800Y-122885200D01*
X198628000Y-121666000D02*
X206248000Y-121666000D01*
X214757000Y-140589000D02*
X219837000Y-140589000D01*
X198628000Y-71755000D02*
X200424051Y-73551051D01*
X213995000Y-141351000D02*
X206375000Y-141351000D01*
X213995000Y-141351000D02*
X214757000Y-140589000D01*
X226187000Y-111379000D02*
X211455000Y-111379000D01*
X211455000Y-111379000D02*
X210947000Y-110871000D01*
X227457000Y-110109000D02*
X226187000Y-111379000D01*
X227457000Y-109488811D02*
X227457000Y-110109000D01*
X202859640Y-75986640D02*
X202859640Y-77978000D01*
X200424051Y-73551051D02*
X202859640Y-75986640D01*
X205460600Y-110413800D02*
X201312714Y-110413800D01*
X210489800Y-110413800D02*
X205460600Y-110413800D01*
X201312714Y-110413800D02*
X199403649Y-112322865D01*
X210947000Y-110871000D02*
X210489800Y-110413800D01*
X229824709Y-106166491D02*
X227457000Y-108534200D01*
X227457000Y-108534200D02*
X227457000Y-110109000D01*
X232912920Y-106166491D02*
X229824709Y-106166491D01*
X204471340Y-82637560D02*
X204471340Y-83058000D01*
X204471340Y-81367560D02*
X204471340Y-83058000D01*
X207860900Y-77978000D02*
X204471340Y-81367560D01*
X219893690Y-81661000D02*
X219711340Y-81661000D01*
X219711340Y-79752101D02*
X219711340Y-81661000D01*
X222808891Y-76654550D02*
X219711340Y-79752101D01*
X222769341Y-110109000D02*
X219837000Y-110109000D01*
X227857050Y-105021291D02*
X222769341Y-110109000D01*
X218821000Y-116713000D02*
X219837000Y-117729000D01*
X211836000Y-116713000D02*
X218821000Y-116713000D01*
X218821000Y-119253000D02*
X219837000Y-120269000D01*
X211836000Y-119253000D02*
X218821000Y-119253000D01*
X228092000Y-141859000D02*
X225247200Y-141859000D01*
X234391200Y-137033000D02*
X235331000Y-137033000D01*
X229565200Y-141859000D02*
X234391200Y-137033000D01*
X228092000Y-141859000D02*
X229565200Y-141859000D01*
X225247200Y-141859000D02*
X223520000Y-141859000D01*
X223520000Y-141859000D02*
X222250000Y-143129000D01*
X222250000Y-143129000D02*
X219837000Y-143129000D01*
X235331000Y-134493000D02*
X234619800Y-134493000D01*
X234619800Y-134493000D02*
X228523800Y-140589000D01*
X228523800Y-140589000D02*
X227457000Y-140589000D01*
X203595217Y-141495500D02*
X204131900Y-141495500D01*
X204131900Y-141495500D02*
X206857600Y-144221200D01*
X225069400Y-138049000D02*
X227457000Y-138049000D01*
X221284800Y-141833600D02*
X225069400Y-138049000D01*
X217474800Y-141833600D02*
X221284800Y-141833600D01*
X215087200Y-144221200D02*
X217474800Y-141833600D01*
X206857600Y-144221200D02*
X215087200Y-144221200D01*
X229235000Y-138049000D02*
X227457000Y-138049000D01*
X235331000Y-131953000D02*
X229235000Y-138049000D01*
X233553000Y-129413000D02*
X235331000Y-129413000D01*
X227457000Y-135509000D02*
X233553000Y-129413000D01*
X227457000Y-127889000D02*
X228473000Y-126873000D01*
X228473000Y-126873000D02*
X235331000Y-126873000D01*
X221716600Y-145237200D02*
X223494600Y-143459200D01*
X223494600Y-143459200D02*
X224459800Y-143459200D01*
X227457000Y-125349000D02*
X228473000Y-124333000D01*
X228473000Y-124333000D02*
X235331000Y-124333000D01*
X227457000Y-120269000D02*
X228981000Y-121793000D01*
X228981000Y-121793000D02*
X235331000Y-121793000D01*
X227457000Y-117729000D02*
X228981000Y-119253000D01*
X228981000Y-119253000D02*
X235331000Y-119253000D01*
X228981000Y-116713000D02*
X235331000Y-116713000D01*
X227457000Y-115189000D02*
X228981000Y-116713000D01*
X235077000Y-113919000D02*
X221107000Y-113919000D01*
X235331000Y-114173000D02*
X235077000Y-113919000D01*
X221107000Y-113919000D02*
X219837000Y-112649000D01*
X218821000Y-114173000D02*
X219837000Y-115189000D01*
X211836000Y-114173000D02*
X218821000Y-114173000D01*
X218821000Y-121793000D02*
X219837000Y-122809000D01*
X211836000Y-121793000D02*
X218821000Y-121793000D01*
X218821000Y-124333000D02*
X219837000Y-125349000D01*
X211836000Y-124333000D02*
X218821000Y-124333000D01*
X197350100Y-136971017D02*
X197350100Y-135618500D01*
X209524600Y-134264400D02*
X211836000Y-131953000D01*
X198704200Y-134264400D02*
X209524600Y-134264400D01*
X197350100Y-135618500D02*
X198704200Y-134264400D01*
X211836000Y-131953000D02*
X211480400Y-131953000D01*
X197996283Y-137617200D02*
X197350100Y-136971017D01*
X211836000Y-131953000D02*
X211302600Y-131953000D01*
X214096600Y-131953000D02*
X217652600Y-135509000D01*
X211836000Y-131953000D02*
X214096600Y-131953000D01*
X217652600Y-135509000D02*
X219837000Y-135509000D01*
X213715600Y-134493000D02*
X217271600Y-138049000D01*
X217271600Y-138049000D02*
X219837000Y-138049000D01*
X211836000Y-134493000D02*
X213715600Y-134493000D01*
X198120000Y-126695200D02*
X198120000Y-129790939D01*
X198120000Y-129790939D02*
X195639569Y-132271370D01*
X197993000Y-126746000D02*
X197710539Y-126746000D01*
X197993000Y-126746000D02*
X205613000Y-126746000D01*
X207314800Y-130810000D02*
X199694800Y-130810000D01*
X230357680Y-109352509D02*
X230736480Y-108973709D01*
X234268350Y-109352509D02*
X235413550Y-110497709D01*
X230357680Y-109352509D02*
X234268350Y-109352509D01*
X213995000Y-146431000D02*
X206375000Y-146431000D01*
M02*
