G04 #@! TF.FileFunction,Legend,Bot*
%FSLAX46Y46*%
G04 Gerber Fmt 4.6, Leading zero omitted, Abs format (unit mm)*
G04 Created by KiCad (PCBNEW 0.201507042246+5884~23~ubuntu14.04.1-product) date Thu 09 Jul 2015 02:20:39 PM PDT*
%MOMM*%
G01*
G04 APERTURE LIST*
%ADD10C,0.150000*%
%ADD11C,0.125000*%
%ADD12C,0.187500*%
%ADD13C,0.375000*%
%ADD14C,0.254000*%
%ADD15C,0.002540*%
G04 APERTURE END LIST*
D10*
D11*
X230189969Y-95873457D02*
X230225683Y-95909171D01*
X230332826Y-95944886D01*
X230404255Y-95944886D01*
X230511398Y-95909171D01*
X230582826Y-95837743D01*
X230618541Y-95766314D01*
X230654255Y-95623457D01*
X230654255Y-95516314D01*
X230618541Y-95373457D01*
X230582826Y-95302029D01*
X230511398Y-95230600D01*
X230404255Y-95194886D01*
X230332826Y-95194886D01*
X230225683Y-95230600D01*
X230189969Y-95266314D01*
X229761398Y-95944886D02*
X229832826Y-95909171D01*
X229868541Y-95873457D01*
X229904255Y-95802029D01*
X229904255Y-95587743D01*
X229868541Y-95516314D01*
X229832826Y-95480600D01*
X229761398Y-95444886D01*
X229654255Y-95444886D01*
X229582826Y-95480600D01*
X229547112Y-95516314D01*
X229511398Y-95587743D01*
X229511398Y-95802029D01*
X229547112Y-95873457D01*
X229582826Y-95909171D01*
X229654255Y-95944886D01*
X229761398Y-95944886D01*
X229189970Y-95944886D02*
X229189970Y-95444886D01*
X229189970Y-95516314D02*
X229154255Y-95480600D01*
X229082827Y-95444886D01*
X228975684Y-95444886D01*
X228904255Y-95480600D01*
X228868541Y-95552029D01*
X228868541Y-95944886D01*
X228868541Y-95552029D02*
X228832827Y-95480600D01*
X228761398Y-95444886D01*
X228654255Y-95444886D01*
X228582827Y-95480600D01*
X228547112Y-95552029D01*
X228547112Y-95944886D01*
X228189970Y-95444886D02*
X228189970Y-96194886D01*
X228189970Y-95480600D02*
X228118541Y-95444886D01*
X227975684Y-95444886D01*
X227904255Y-95480600D01*
X227868541Y-95516314D01*
X227832827Y-95587743D01*
X227832827Y-95802029D01*
X227868541Y-95873457D01*
X227904255Y-95909171D01*
X227975684Y-95944886D01*
X228118541Y-95944886D01*
X228189970Y-95909171D01*
X227189970Y-95444886D02*
X227189970Y-95944886D01*
X227511399Y-95444886D02*
X227511399Y-95837743D01*
X227475684Y-95909171D01*
X227404256Y-95944886D01*
X227297113Y-95944886D01*
X227225684Y-95909171D01*
X227189970Y-95873457D01*
X226939970Y-95444886D02*
X226654256Y-95444886D01*
X226832828Y-95194886D02*
X226832828Y-95837743D01*
X226797113Y-95909171D01*
X226725685Y-95944886D01*
X226654256Y-95944886D01*
X226118542Y-95909171D02*
X226189971Y-95944886D01*
X226332828Y-95944886D01*
X226404257Y-95909171D01*
X226439971Y-95837743D01*
X226439971Y-95552029D01*
X226404257Y-95480600D01*
X226332828Y-95444886D01*
X226189971Y-95444886D01*
X226118542Y-95480600D01*
X226082828Y-95552029D01*
X226082828Y-95623457D01*
X226439971Y-95694886D01*
X225761400Y-95944886D02*
X225761400Y-95444886D01*
X225761400Y-95587743D02*
X225725685Y-95516314D01*
X225689971Y-95480600D01*
X225618542Y-95444886D01*
X225547114Y-95444886D01*
X224725685Y-95873457D02*
X224689970Y-95909171D01*
X224725685Y-95944886D01*
X224761399Y-95909171D01*
X224725685Y-95873457D01*
X224725685Y-95944886D01*
X223832827Y-95909171D02*
X223725684Y-95944886D01*
X223547113Y-95944886D01*
X223475684Y-95909171D01*
X223439970Y-95873457D01*
X223404255Y-95802029D01*
X223404255Y-95730600D01*
X223439970Y-95659171D01*
X223475684Y-95623457D01*
X223547113Y-95587743D01*
X223689970Y-95552029D01*
X223761398Y-95516314D01*
X223797113Y-95480600D01*
X223832827Y-95409171D01*
X223832827Y-95337743D01*
X223797113Y-95266314D01*
X223761398Y-95230600D01*
X223689970Y-95194886D01*
X223511398Y-95194886D01*
X223404255Y-95230600D01*
X222975684Y-95944886D02*
X223047112Y-95909171D01*
X223082827Y-95873457D01*
X223118541Y-95802029D01*
X223118541Y-95587743D01*
X223082827Y-95516314D01*
X223047112Y-95480600D01*
X222975684Y-95444886D01*
X222868541Y-95444886D01*
X222797112Y-95480600D01*
X222761398Y-95516314D01*
X222725684Y-95587743D01*
X222725684Y-95802029D01*
X222761398Y-95873457D01*
X222797112Y-95909171D01*
X222868541Y-95944886D01*
X222975684Y-95944886D01*
X222511398Y-95444886D02*
X222225684Y-95444886D01*
X222404256Y-95944886D02*
X222404256Y-95302029D01*
X222368541Y-95230600D01*
X222297113Y-95194886D01*
X222225684Y-95194886D01*
X222082827Y-95444886D02*
X221797113Y-95444886D01*
X221975685Y-95194886D02*
X221975685Y-95837743D01*
X221939970Y-95909171D01*
X221868542Y-95944886D01*
X221797113Y-95944886D01*
X221618542Y-95444886D02*
X221475685Y-95944886D01*
X221332828Y-95587743D01*
X221189971Y-95944886D01*
X221047114Y-95444886D01*
X220439971Y-95944886D02*
X220439971Y-95552029D01*
X220475685Y-95480600D01*
X220547114Y-95444886D01*
X220689971Y-95444886D01*
X220761400Y-95480600D01*
X220439971Y-95909171D02*
X220511400Y-95944886D01*
X220689971Y-95944886D01*
X220761400Y-95909171D01*
X220797114Y-95837743D01*
X220797114Y-95766314D01*
X220761400Y-95694886D01*
X220689971Y-95659171D01*
X220511400Y-95659171D01*
X220439971Y-95623457D01*
X220082829Y-95944886D02*
X220082829Y-95444886D01*
X220082829Y-95587743D02*
X220047114Y-95516314D01*
X220011400Y-95480600D01*
X219939971Y-95444886D01*
X219868543Y-95444886D01*
X219332828Y-95909171D02*
X219404257Y-95944886D01*
X219547114Y-95944886D01*
X219618543Y-95909171D01*
X219654257Y-95837743D01*
X219654257Y-95552029D01*
X219618543Y-95480600D01*
X219547114Y-95444886D01*
X219404257Y-95444886D01*
X219332828Y-95480600D01*
X219297114Y-95552029D01*
X219297114Y-95623457D01*
X219654257Y-95694886D01*
X218404257Y-95873457D02*
X218368542Y-95909171D01*
X218404257Y-95944886D01*
X218439971Y-95909171D01*
X218404257Y-95873457D01*
X218404257Y-95944886D01*
X217475685Y-95552029D02*
X217225685Y-95552029D01*
X217118542Y-95944886D02*
X217475685Y-95944886D01*
X217475685Y-95194886D01*
X217118542Y-95194886D01*
X216797114Y-95944886D02*
X216797114Y-95444886D01*
X216797114Y-95516314D02*
X216761399Y-95480600D01*
X216689971Y-95444886D01*
X216582828Y-95444886D01*
X216511399Y-95480600D01*
X216475685Y-95552029D01*
X216475685Y-95944886D01*
X216475685Y-95552029D02*
X216439971Y-95480600D01*
X216368542Y-95444886D01*
X216261399Y-95444886D01*
X216189971Y-95480600D01*
X216154256Y-95552029D01*
X216154256Y-95944886D01*
X215797114Y-95944886D02*
X215797114Y-95194886D01*
X215797114Y-95480600D02*
X215725685Y-95444886D01*
X215582828Y-95444886D01*
X215511399Y-95480600D01*
X215475685Y-95516314D01*
X215439971Y-95587743D01*
X215439971Y-95802029D01*
X215475685Y-95873457D01*
X215511399Y-95909171D01*
X215582828Y-95944886D01*
X215725685Y-95944886D01*
X215797114Y-95909171D01*
X214832828Y-95909171D02*
X214904257Y-95944886D01*
X215047114Y-95944886D01*
X215118543Y-95909171D01*
X215154257Y-95837743D01*
X215154257Y-95552029D01*
X215118543Y-95480600D01*
X215047114Y-95444886D01*
X214904257Y-95444886D01*
X214832828Y-95480600D01*
X214797114Y-95552029D01*
X214797114Y-95623457D01*
X215154257Y-95694886D01*
X214154257Y-95944886D02*
X214154257Y-95194886D01*
X214154257Y-95909171D02*
X214225686Y-95944886D01*
X214368543Y-95944886D01*
X214439971Y-95909171D01*
X214475686Y-95873457D01*
X214511400Y-95802029D01*
X214511400Y-95587743D01*
X214475686Y-95516314D01*
X214439971Y-95480600D01*
X214368543Y-95444886D01*
X214225686Y-95444886D01*
X214154257Y-95480600D01*
X213475686Y-95944886D02*
X213475686Y-95194886D01*
X213475686Y-95909171D02*
X213547115Y-95944886D01*
X213689972Y-95944886D01*
X213761400Y-95909171D01*
X213797115Y-95873457D01*
X213832829Y-95802029D01*
X213832829Y-95587743D01*
X213797115Y-95516314D01*
X213761400Y-95480600D01*
X213689972Y-95444886D01*
X213547115Y-95444886D01*
X213475686Y-95480600D01*
X212832829Y-95909171D02*
X212904258Y-95944886D01*
X213047115Y-95944886D01*
X213118544Y-95909171D01*
X213154258Y-95837743D01*
X213154258Y-95552029D01*
X213118544Y-95480600D01*
X213047115Y-95444886D01*
X212904258Y-95444886D01*
X212832829Y-95480600D01*
X212797115Y-95552029D01*
X212797115Y-95623457D01*
X213154258Y-95694886D01*
X212154258Y-95944886D02*
X212154258Y-95194886D01*
X212154258Y-95909171D02*
X212225687Y-95944886D01*
X212368544Y-95944886D01*
X212439972Y-95909171D01*
X212475687Y-95873457D01*
X212511401Y-95802029D01*
X212511401Y-95587743D01*
X212475687Y-95516314D01*
X212439972Y-95480600D01*
X212368544Y-95444886D01*
X212225687Y-95444886D01*
X212154258Y-95480600D01*
D12*
X233370593Y-90435181D02*
X233180116Y-90435181D01*
X233084878Y-90482800D01*
X232989640Y-90578038D01*
X232942021Y-90768514D01*
X232942021Y-91101848D01*
X232989640Y-91292324D01*
X233084878Y-91387562D01*
X233180116Y-91435181D01*
X233370593Y-91435181D01*
X233465831Y-91387562D01*
X233561069Y-91292324D01*
X233608688Y-91101848D01*
X233608688Y-90768514D01*
X233561069Y-90578038D01*
X233465831Y-90482800D01*
X233370593Y-90435181D01*
X232513450Y-91435181D02*
X232513450Y-90768514D01*
X232513450Y-90958990D02*
X232465831Y-90863752D01*
X232418212Y-90816133D01*
X232322974Y-90768514D01*
X232227735Y-90768514D01*
X231513449Y-91387562D02*
X231608687Y-91435181D01*
X231799164Y-91435181D01*
X231894402Y-91387562D01*
X231942021Y-91292324D01*
X231942021Y-90911371D01*
X231894402Y-90816133D01*
X231799164Y-90768514D01*
X231608687Y-90768514D01*
X231513449Y-90816133D01*
X231465830Y-90911371D01*
X231465830Y-91006610D01*
X231942021Y-91101848D01*
X230608687Y-90768514D02*
X230608687Y-91578038D01*
X230656306Y-91673276D01*
X230703925Y-91720895D01*
X230799164Y-91768514D01*
X230942021Y-91768514D01*
X231037259Y-91720895D01*
X230608687Y-91387562D02*
X230703925Y-91435181D01*
X230894402Y-91435181D01*
X230989640Y-91387562D01*
X231037259Y-91339943D01*
X231084878Y-91244705D01*
X231084878Y-90958990D01*
X231037259Y-90863752D01*
X230989640Y-90816133D01*
X230894402Y-90768514D01*
X230703925Y-90768514D01*
X230608687Y-90816133D01*
X229989640Y-91435181D02*
X230084878Y-91387562D01*
X230132497Y-91339943D01*
X230180116Y-91244705D01*
X230180116Y-90958990D01*
X230132497Y-90863752D01*
X230084878Y-90816133D01*
X229989640Y-90768514D01*
X229846782Y-90768514D01*
X229751544Y-90816133D01*
X229703925Y-90863752D01*
X229656306Y-90958990D01*
X229656306Y-91244705D01*
X229703925Y-91339943D01*
X229751544Y-91387562D01*
X229846782Y-91435181D01*
X229989640Y-91435181D01*
X229227735Y-90768514D02*
X229227735Y-91435181D01*
X229227735Y-90863752D02*
X229180116Y-90816133D01*
X229084878Y-90768514D01*
X228942020Y-90768514D01*
X228846782Y-90816133D01*
X228799163Y-90911371D01*
X228799163Y-91435181D01*
X227703925Y-90435181D02*
X227132496Y-90435181D01*
X227418211Y-91435181D02*
X227418211Y-90435181D01*
X226418210Y-91387562D02*
X226513448Y-91435181D01*
X226703925Y-91435181D01*
X226799163Y-91387562D01*
X226846782Y-91292324D01*
X226846782Y-90911371D01*
X226799163Y-90816133D01*
X226703925Y-90768514D01*
X226513448Y-90768514D01*
X226418210Y-90816133D01*
X226370591Y-90911371D01*
X226370591Y-91006610D01*
X226846782Y-91101848D01*
X225513448Y-91387562D02*
X225608686Y-91435181D01*
X225799163Y-91435181D01*
X225894401Y-91387562D01*
X225942020Y-91339943D01*
X225989639Y-91244705D01*
X225989639Y-90958990D01*
X225942020Y-90863752D01*
X225894401Y-90816133D01*
X225799163Y-90768514D01*
X225608686Y-90768514D01*
X225513448Y-90816133D01*
X225084877Y-91435181D02*
X225084877Y-90435181D01*
X224656305Y-91435181D02*
X224656305Y-90911371D01*
X224703924Y-90816133D01*
X224799162Y-90768514D01*
X224942020Y-90768514D01*
X225037258Y-90816133D01*
X225084877Y-90863752D01*
X222846781Y-91339943D02*
X222894400Y-91387562D01*
X223037257Y-91435181D01*
X223132495Y-91435181D01*
X223275353Y-91387562D01*
X223370591Y-91292324D01*
X223418210Y-91197086D01*
X223465829Y-91006610D01*
X223465829Y-90863752D01*
X223418210Y-90673276D01*
X223370591Y-90578038D01*
X223275353Y-90482800D01*
X223132495Y-90435181D01*
X223037257Y-90435181D01*
X222894400Y-90482800D01*
X222846781Y-90530419D01*
X222465829Y-91387562D02*
X222322972Y-91435181D01*
X222084876Y-91435181D01*
X221989638Y-91387562D01*
X221942019Y-91339943D01*
X221894400Y-91244705D01*
X221894400Y-91149467D01*
X221942019Y-91054229D01*
X221989638Y-91006610D01*
X222084876Y-90958990D01*
X222275353Y-90911371D01*
X222370591Y-90863752D01*
X222418210Y-90816133D01*
X222465829Y-90720895D01*
X222465829Y-90625657D01*
X222418210Y-90530419D01*
X222370591Y-90482800D01*
X222275353Y-90435181D01*
X222037257Y-90435181D01*
X221894400Y-90482800D01*
X221465829Y-90911371D02*
X221132495Y-90911371D01*
X220989638Y-91435181D02*
X221465829Y-91435181D01*
X221465829Y-90435181D01*
X220989638Y-90435181D01*
X220703924Y-90435181D02*
X220132495Y-90435181D01*
X220418210Y-91435181D02*
X220418210Y-90435181D01*
X219037257Y-91435181D02*
X219037257Y-90435181D01*
X218799162Y-90435181D01*
X218656304Y-90482800D01*
X218561066Y-90578038D01*
X218513447Y-90673276D01*
X218465828Y-90863752D01*
X218465828Y-91006610D01*
X218513447Y-91197086D01*
X218561066Y-91292324D01*
X218656304Y-91387562D01*
X218799162Y-91435181D01*
X219037257Y-91435181D01*
X217656304Y-91387562D02*
X217751542Y-91435181D01*
X217942019Y-91435181D01*
X218037257Y-91387562D01*
X218084876Y-91292324D01*
X218084876Y-90911371D01*
X218037257Y-90816133D01*
X217942019Y-90768514D01*
X217751542Y-90768514D01*
X217656304Y-90816133D01*
X217608685Y-90911371D01*
X217608685Y-91006610D01*
X218084876Y-91101848D01*
X217180114Y-90768514D02*
X217180114Y-91768514D01*
X217180114Y-90816133D02*
X217084876Y-90768514D01*
X216894399Y-90768514D01*
X216799161Y-90816133D01*
X216751542Y-90863752D01*
X216703923Y-90958990D01*
X216703923Y-91244705D01*
X216751542Y-91339943D01*
X216799161Y-91387562D01*
X216894399Y-91435181D01*
X217084876Y-91435181D01*
X217180114Y-91387562D01*
X215846780Y-91435181D02*
X215846780Y-90911371D01*
X215894399Y-90816133D01*
X215989637Y-90768514D01*
X216180114Y-90768514D01*
X216275352Y-90816133D01*
X215846780Y-91387562D02*
X215942018Y-91435181D01*
X216180114Y-91435181D01*
X216275352Y-91387562D01*
X216322971Y-91292324D01*
X216322971Y-91197086D01*
X216275352Y-91101848D01*
X216180114Y-91054229D01*
X215942018Y-91054229D01*
X215846780Y-91006610D01*
X215370590Y-91435181D02*
X215370590Y-90768514D01*
X215370590Y-90958990D02*
X215322971Y-90863752D01*
X215275352Y-90816133D01*
X215180114Y-90768514D01*
X215084875Y-90768514D01*
X214894399Y-90768514D02*
X214513447Y-90768514D01*
X214751542Y-90435181D02*
X214751542Y-91292324D01*
X214703923Y-91387562D01*
X214608685Y-91435181D01*
X214513447Y-91435181D01*
X214180113Y-91435181D02*
X214180113Y-90768514D01*
X214180113Y-90863752D02*
X214132494Y-90816133D01*
X214037256Y-90768514D01*
X213894398Y-90768514D01*
X213799160Y-90816133D01*
X213751541Y-90911371D01*
X213751541Y-91435181D01*
X213751541Y-90911371D02*
X213703922Y-90816133D01*
X213608684Y-90768514D01*
X213465827Y-90768514D01*
X213370589Y-90816133D01*
X213322970Y-90911371D01*
X213322970Y-91435181D01*
X212465827Y-91387562D02*
X212561065Y-91435181D01*
X212751542Y-91435181D01*
X212846780Y-91387562D01*
X212894399Y-91292324D01*
X212894399Y-90911371D01*
X212846780Y-90816133D01*
X212751542Y-90768514D01*
X212561065Y-90768514D01*
X212465827Y-90816133D01*
X212418208Y-90911371D01*
X212418208Y-91006610D01*
X212894399Y-91101848D01*
X211989637Y-90768514D02*
X211989637Y-91435181D01*
X211989637Y-90863752D02*
X211942018Y-90816133D01*
X211846780Y-90768514D01*
X211703922Y-90768514D01*
X211608684Y-90816133D01*
X211561065Y-90911371D01*
X211561065Y-91435181D01*
X211227732Y-90768514D02*
X210846780Y-90768514D01*
X211084875Y-90435181D02*
X211084875Y-91292324D01*
X211037256Y-91387562D01*
X210942018Y-91435181D01*
X210846780Y-91435181D01*
D13*
X215017714Y-88592743D02*
X214803428Y-88664171D01*
X214446285Y-88664171D01*
X214303428Y-88592743D01*
X214231999Y-88521314D01*
X214160571Y-88378457D01*
X214160571Y-88235600D01*
X214231999Y-88092743D01*
X214303428Y-88021314D01*
X214446285Y-87949886D01*
X214731999Y-87878457D01*
X214874857Y-87807029D01*
X214946285Y-87735600D01*
X215017714Y-87592743D01*
X215017714Y-87449886D01*
X214946285Y-87307029D01*
X214874857Y-87235600D01*
X214731999Y-87164171D01*
X214374857Y-87164171D01*
X214160571Y-87235600D01*
X213517714Y-88664171D02*
X213517714Y-87664171D01*
X213517714Y-87807029D02*
X213446286Y-87735600D01*
X213303428Y-87664171D01*
X213089143Y-87664171D01*
X212946286Y-87735600D01*
X212874857Y-87878457D01*
X212874857Y-88664171D01*
X212874857Y-87878457D02*
X212803428Y-87735600D01*
X212660571Y-87664171D01*
X212446286Y-87664171D01*
X212303428Y-87735600D01*
X212232000Y-87878457D01*
X212232000Y-88664171D01*
X210874857Y-88664171D02*
X210874857Y-87878457D01*
X210946286Y-87735600D01*
X211089143Y-87664171D01*
X211374857Y-87664171D01*
X211517714Y-87735600D01*
X210874857Y-88592743D02*
X211017714Y-88664171D01*
X211374857Y-88664171D01*
X211517714Y-88592743D01*
X211589143Y-88449886D01*
X211589143Y-88307029D01*
X211517714Y-88164171D01*
X211374857Y-88092743D01*
X211017714Y-88092743D01*
X210874857Y-88021314D01*
X209946285Y-88664171D02*
X210089143Y-88592743D01*
X210160571Y-88449886D01*
X210160571Y-87164171D01*
X209160571Y-88664171D02*
X209303429Y-88592743D01*
X209374857Y-88449886D01*
X209374857Y-87164171D01*
X206803429Y-88592743D02*
X206946286Y-88664171D01*
X207232000Y-88664171D01*
X207374858Y-88592743D01*
X207446286Y-88521314D01*
X207517715Y-88378457D01*
X207517715Y-87949886D01*
X207446286Y-87807029D01*
X207374858Y-87735600D01*
X207232000Y-87664171D01*
X206946286Y-87664171D01*
X206803429Y-87735600D01*
X205946286Y-88664171D02*
X206089144Y-88592743D01*
X206160572Y-88449886D01*
X206160572Y-87164171D01*
X204732001Y-88664171D02*
X204732001Y-87878457D01*
X204803430Y-87735600D01*
X204946287Y-87664171D01*
X205232001Y-87664171D01*
X205374858Y-87735600D01*
X204732001Y-88592743D02*
X204874858Y-88664171D01*
X205232001Y-88664171D01*
X205374858Y-88592743D01*
X205446287Y-88449886D01*
X205446287Y-88307029D01*
X205374858Y-88164171D01*
X205232001Y-88092743D01*
X204874858Y-88092743D01*
X204732001Y-88021314D01*
X204089144Y-88592743D02*
X203946287Y-88664171D01*
X203660572Y-88664171D01*
X203517715Y-88592743D01*
X203446287Y-88449886D01*
X203446287Y-88378457D01*
X203517715Y-88235600D01*
X203660572Y-88164171D01*
X203874858Y-88164171D01*
X204017715Y-88092743D01*
X204089144Y-87949886D01*
X204089144Y-87878457D01*
X204017715Y-87735600D01*
X203874858Y-87664171D01*
X203660572Y-87664171D01*
X203517715Y-87735600D01*
X202874858Y-88592743D02*
X202732001Y-88664171D01*
X202446286Y-88664171D01*
X202303429Y-88592743D01*
X202232001Y-88449886D01*
X202232001Y-88378457D01*
X202303429Y-88235600D01*
X202446286Y-88164171D01*
X202660572Y-88164171D01*
X202803429Y-88092743D01*
X202874858Y-87949886D01*
X202874858Y-87878457D01*
X202803429Y-87735600D01*
X202660572Y-87664171D01*
X202446286Y-87664171D01*
X202303429Y-87735600D01*
X200517715Y-88592743D02*
X200374858Y-88664171D01*
X200089143Y-88664171D01*
X199946286Y-88592743D01*
X199874858Y-88449886D01*
X199874858Y-88378457D01*
X199946286Y-88235600D01*
X200089143Y-88164171D01*
X200303429Y-88164171D01*
X200446286Y-88092743D01*
X200517715Y-87949886D01*
X200517715Y-87878457D01*
X200446286Y-87735600D01*
X200303429Y-87664171D01*
X200089143Y-87664171D01*
X199946286Y-87735600D01*
X199232000Y-88664171D02*
X199232000Y-87664171D01*
X199232000Y-87164171D02*
X199303429Y-87235600D01*
X199232000Y-87307029D01*
X199160572Y-87235600D01*
X199232000Y-87164171D01*
X199232000Y-87307029D01*
X198660571Y-87664171D02*
X197874857Y-87664171D01*
X198660571Y-88664171D01*
X197874857Y-88664171D01*
X196732000Y-88592743D02*
X196874857Y-88664171D01*
X197160571Y-88664171D01*
X197303428Y-88592743D01*
X197374857Y-88449886D01*
X197374857Y-87878457D01*
X197303428Y-87735600D01*
X197160571Y-87664171D01*
X196874857Y-87664171D01*
X196732000Y-87735600D01*
X196660571Y-87878457D01*
X196660571Y-88021314D01*
X197374857Y-88164171D01*
X196089143Y-88592743D02*
X195946286Y-88664171D01*
X195660571Y-88664171D01*
X195517714Y-88592743D01*
X195446286Y-88449886D01*
X195446286Y-88378457D01*
X195517714Y-88235600D01*
X195660571Y-88164171D01*
X195874857Y-88164171D01*
X196017714Y-88092743D01*
X196089143Y-87949886D01*
X196089143Y-87878457D01*
X196017714Y-87735600D01*
X195874857Y-87664171D01*
X195660571Y-87664171D01*
X195517714Y-87735600D01*
X225638000Y-74719571D02*
X225638000Y-73219571D01*
X225638000Y-73933857D02*
X224780857Y-73933857D01*
X224780857Y-74719571D02*
X224780857Y-73219571D01*
X223423714Y-74719571D02*
X223423714Y-73933857D01*
X223495143Y-73791000D01*
X223638000Y-73719571D01*
X223923714Y-73719571D01*
X224066571Y-73791000D01*
X223423714Y-74648143D02*
X223566571Y-74719571D01*
X223923714Y-74719571D01*
X224066571Y-74648143D01*
X224138000Y-74505286D01*
X224138000Y-74362429D01*
X224066571Y-74219571D01*
X223923714Y-74148143D01*
X223566571Y-74148143D01*
X223423714Y-74076714D01*
X222709428Y-73719571D02*
X222709428Y-74719571D01*
X222709428Y-73862429D02*
X222638000Y-73791000D01*
X222495142Y-73719571D01*
X222280857Y-73719571D01*
X222138000Y-73791000D01*
X222066571Y-73933857D01*
X222066571Y-74719571D01*
X220709428Y-74719571D02*
X220709428Y-73219571D01*
X220709428Y-74648143D02*
X220852285Y-74719571D01*
X221137999Y-74719571D01*
X221280857Y-74648143D01*
X221352285Y-74576714D01*
X221423714Y-74433857D01*
X221423714Y-74005286D01*
X221352285Y-73862429D01*
X221280857Y-73791000D01*
X221137999Y-73719571D01*
X220852285Y-73719571D01*
X220709428Y-73791000D01*
X220066571Y-74648143D02*
X219923714Y-74719571D01*
X219637999Y-74719571D01*
X219495142Y-74648143D01*
X219423714Y-74505286D01*
X219423714Y-74433857D01*
X219495142Y-74291000D01*
X219637999Y-74219571D01*
X219852285Y-74219571D01*
X219995142Y-74148143D01*
X220066571Y-74005286D01*
X220066571Y-73933857D01*
X219995142Y-73791000D01*
X219852285Y-73719571D01*
X219637999Y-73719571D01*
X219495142Y-73791000D01*
X218780856Y-74148143D02*
X217637999Y-74148143D01*
X216709427Y-74719571D02*
X216852285Y-74648143D01*
X216923713Y-74576714D01*
X216995142Y-74433857D01*
X216995142Y-74005286D01*
X216923713Y-73862429D01*
X216852285Y-73791000D01*
X216709427Y-73719571D01*
X216495142Y-73719571D01*
X216352285Y-73791000D01*
X216280856Y-73862429D01*
X216209427Y-74005286D01*
X216209427Y-74433857D01*
X216280856Y-74576714D01*
X216352285Y-74648143D01*
X216495142Y-74719571D01*
X216709427Y-74719571D01*
X215566570Y-73719571D02*
X215566570Y-74719571D01*
X215566570Y-73862429D02*
X215495142Y-73791000D01*
X215352284Y-73719571D01*
X215137999Y-73719571D01*
X214995142Y-73791000D01*
X214923713Y-73933857D01*
X214923713Y-74719571D01*
X212852284Y-74719571D02*
X212995142Y-74648143D01*
X213066570Y-74505286D01*
X213066570Y-73219571D01*
X211709428Y-74648143D02*
X211852285Y-74719571D01*
X212137999Y-74719571D01*
X212280856Y-74648143D01*
X212352285Y-74505286D01*
X212352285Y-73933857D01*
X212280856Y-73791000D01*
X212137999Y-73719571D01*
X211852285Y-73719571D01*
X211709428Y-73791000D01*
X211637999Y-73933857D01*
X211637999Y-74076714D01*
X212352285Y-74219571D01*
X210352285Y-74719571D02*
X210352285Y-73933857D01*
X210423714Y-73791000D01*
X210566571Y-73719571D01*
X210852285Y-73719571D01*
X210995142Y-73791000D01*
X210352285Y-74648143D02*
X210495142Y-74719571D01*
X210852285Y-74719571D01*
X210995142Y-74648143D01*
X211066571Y-74505286D01*
X211066571Y-74362429D01*
X210995142Y-74219571D01*
X210852285Y-74148143D01*
X210495142Y-74148143D01*
X210352285Y-74076714D01*
X209637999Y-74719571D02*
X209637999Y-73719571D01*
X209637999Y-74005286D02*
X209566571Y-73862429D01*
X209495142Y-73791000D01*
X209352285Y-73719571D01*
X209209428Y-73719571D01*
X208709428Y-73719571D02*
X208709428Y-74719571D01*
X208709428Y-73862429D02*
X208638000Y-73791000D01*
X208495142Y-73719571D01*
X208280857Y-73719571D01*
X208138000Y-73791000D01*
X208066571Y-73933857D01*
X208066571Y-74719571D01*
X207352285Y-74719571D02*
X207352285Y-73719571D01*
X207352285Y-73219571D02*
X207423714Y-73291000D01*
X207352285Y-73362429D01*
X207280857Y-73291000D01*
X207352285Y-73219571D01*
X207352285Y-73362429D01*
X206637999Y-73719571D02*
X206637999Y-74719571D01*
X206637999Y-73862429D02*
X206566571Y-73791000D01*
X206423713Y-73719571D01*
X206209428Y-73719571D01*
X206066571Y-73791000D01*
X205995142Y-73933857D01*
X205995142Y-74719571D01*
X204637999Y-73719571D02*
X204637999Y-74933857D01*
X204709428Y-75076714D01*
X204780856Y-75148143D01*
X204923713Y-75219571D01*
X205137999Y-75219571D01*
X205280856Y-75148143D01*
X204637999Y-74648143D02*
X204780856Y-74719571D01*
X205066570Y-74719571D01*
X205209428Y-74648143D01*
X205280856Y-74576714D01*
X205352285Y-74433857D01*
X205352285Y-74005286D01*
X205280856Y-73862429D01*
X205209428Y-73791000D01*
X205066570Y-73719571D01*
X204780856Y-73719571D01*
X204637999Y-73791000D01*
D10*
X203353308Y-111868315D02*
X202310831Y-114732498D01*
X202310831Y-114732498D02*
X195627737Y-112300051D01*
X195627737Y-112300051D02*
X196670214Y-109435868D01*
X204395786Y-109004132D02*
X204656405Y-108288086D01*
X204656405Y-108288086D02*
X204006172Y-105618710D01*
X204006172Y-105618710D02*
X200187261Y-104228740D01*
X200187261Y-104228740D02*
X197973311Y-105855639D01*
X197973311Y-105855639D02*
X197712692Y-106571685D01*
X220247445Y-77106202D02*
X221233001Y-76932421D01*
X205259940Y-77978000D02*
X206260700Y-77978000D01*
X208452720Y-144231360D02*
X208092040Y-145702020D01*
X208092040Y-145702020D02*
X207812640Y-144640300D01*
X207812640Y-144640300D02*
X207502760Y-145712180D01*
X207502760Y-145712180D02*
X207162400Y-144261840D01*
X209872580Y-144922240D02*
X209082640Y-144912080D01*
X209082640Y-144912080D02*
X209072480Y-144922240D01*
X209072480Y-144922240D02*
X209072480Y-144912080D01*
X209031840Y-144200880D02*
X209031840Y-145742660D01*
X209920840Y-144190720D02*
X209920840Y-145760440D01*
X209920840Y-145760440D02*
X209910680Y-145750280D01*
X210472020Y-144292320D02*
X210822540Y-144211040D01*
X210822540Y-144211040D02*
X211142580Y-144200880D01*
X211142580Y-144200880D02*
X211381340Y-144401540D01*
X211381340Y-144401540D02*
X211411820Y-144670780D01*
X211411820Y-144670780D02*
X211170520Y-144912080D01*
X211170520Y-144912080D02*
X210781900Y-145041620D01*
X210781900Y-145041620D02*
X210601560Y-145201640D01*
X210601560Y-145201640D02*
X210560920Y-145501360D01*
X210560920Y-145501360D02*
X210792060Y-145722340D01*
X210792060Y-145722340D02*
X211112100Y-145750280D01*
X211112100Y-145750280D02*
X211462620Y-145641060D01*
X212501480Y-144190720D02*
X212750400Y-144211040D01*
X212750400Y-144211040D02*
X212991700Y-144452340D01*
X212991700Y-144452340D02*
X213080600Y-144942560D01*
X213080600Y-144942560D02*
X213052660Y-145290540D01*
X213052660Y-145290540D02*
X212852000Y-145610580D01*
X212852000Y-145610580D02*
X212600540Y-145732500D01*
X212600540Y-145732500D02*
X212290660Y-145661380D01*
X212290660Y-145661380D02*
X212072220Y-145481040D01*
X212072220Y-145481040D02*
X212001100Y-145021300D01*
X212001100Y-145021300D02*
X212051900Y-144612360D01*
X212051900Y-144612360D02*
X212161120Y-144330420D01*
X212161120Y-144330420D02*
X212521800Y-144200880D01*
X211902040Y-142471140D02*
X212161120Y-143032480D01*
X212161120Y-143032480D02*
X211622640Y-143550640D01*
X211622640Y-143550640D02*
X211101940Y-143281400D01*
X211101940Y-143281400D02*
X210822540Y-143441420D01*
X209382360Y-143421100D02*
X209052160Y-143230600D01*
X209052160Y-143230600D02*
X208612740Y-143560800D01*
X208612740Y-143560800D02*
X208140300Y-143070580D01*
X208140300Y-143070580D02*
X208422240Y-142590520D01*
X208422240Y-142590520D02*
X208231740Y-142120620D01*
X208231740Y-142120620D02*
X207622140Y-141932660D01*
X207622140Y-141932660D02*
X207622140Y-141251940D01*
X207622140Y-141251940D02*
X208180940Y-141112240D01*
X208180940Y-141112240D02*
X208381600Y-140540740D01*
X208381600Y-140540740D02*
X208112360Y-140070840D01*
X208112360Y-140070840D02*
X208582260Y-139560300D01*
X208582260Y-139560300D02*
X209100420Y-139821920D01*
X209100420Y-139821920D02*
X209570320Y-139621260D01*
X209570320Y-139621260D02*
X209740500Y-139080240D01*
X209740500Y-139080240D02*
X210431380Y-139062460D01*
X210431380Y-139062460D02*
X210642200Y-139611100D01*
X210642200Y-139611100D02*
X211061300Y-139781280D01*
X211061300Y-139781280D02*
X211612480Y-139512040D01*
X211612480Y-139512040D02*
X212130640Y-140040360D01*
X212130640Y-140040360D02*
X211881720Y-140581380D01*
X211881720Y-140581380D02*
X212051900Y-141061440D01*
X212051900Y-141061440D02*
X212600540Y-141160500D01*
X212600540Y-141160500D02*
X212610700Y-141861540D01*
X212610700Y-141861540D02*
X212051900Y-142062200D01*
X212051900Y-142062200D02*
X211912200Y-142460980D01*
X209770980Y-142440660D02*
X209471260Y-142290800D01*
X209471260Y-142290800D02*
X209270600Y-142092680D01*
X209270600Y-142092680D02*
X209120740Y-141691360D01*
X209120740Y-141691360D02*
X209120740Y-141292580D01*
X209120740Y-141292580D02*
X209270600Y-140942060D01*
X209270600Y-140942060D02*
X209722720Y-140591540D01*
X209722720Y-140591540D02*
X210172300Y-140540740D01*
X210172300Y-140540740D02*
X210571080Y-140642340D01*
X210571080Y-140642340D02*
X210972400Y-140990320D01*
X210972400Y-140990320D02*
X211122260Y-141442440D01*
X211122260Y-141442440D02*
X211071460Y-141940280D01*
X211071460Y-141940280D02*
X210822540Y-142242540D01*
X210822540Y-142242540D02*
X210472020Y-142440660D01*
X210472020Y-142440660D02*
X210822540Y-143441420D01*
X209770980Y-142440660D02*
X209372200Y-143441420D01*
D14*
X212848000Y-97904000D02*
X228658000Y-97904000D01*
X228648000Y-103254000D02*
X228668000Y-97884000D01*
X228668000Y-97884000D02*
X228658000Y-97924000D01*
X213098000Y-103254000D02*
X228618000Y-103254000D01*
D15*
G36*
X201592180Y-103378000D02*
X202521820Y-103378000D01*
X202521820Y-102191820D01*
X202521820Y-100497640D01*
X202521820Y-98806000D01*
X202862180Y-98806000D01*
X203200000Y-98806000D01*
X203200000Y-99481640D01*
X203200000Y-100159820D01*
X203624180Y-100159820D01*
X204045820Y-100159820D01*
X204045820Y-99481640D01*
X204045820Y-98806000D01*
X204426820Y-98806000D01*
X204807820Y-98806000D01*
X204807820Y-100497640D01*
X204807820Y-102191820D01*
X204426820Y-102191820D01*
X204045820Y-102191820D01*
X204045820Y-101513640D01*
X204045820Y-100838000D01*
X203624180Y-100838000D01*
X203200000Y-100838000D01*
X203200000Y-101513640D01*
X203200000Y-102191820D01*
X202862180Y-102191820D01*
X202521820Y-102191820D01*
X202521820Y-103378000D01*
X205214220Y-103378000D01*
X205214220Y-100076000D01*
X205272640Y-99758500D01*
X205419960Y-99319080D01*
X205676500Y-99001580D01*
X206029560Y-98821240D01*
X206359760Y-98778060D01*
X206814420Y-98846640D01*
X207172560Y-99052380D01*
X207429100Y-99395280D01*
X207584040Y-99872800D01*
X207639920Y-100484940D01*
X207639920Y-100497640D01*
X207599280Y-100998020D01*
X207487520Y-101439980D01*
X207314800Y-101793040D01*
X207096360Y-102019100D01*
X207065880Y-102039420D01*
X206664560Y-102179120D01*
X206250540Y-102201980D01*
X205869540Y-102110540D01*
X205638400Y-101965760D01*
X205473300Y-101762560D01*
X205328520Y-101490780D01*
X205242160Y-101231700D01*
X205232000Y-101145340D01*
X205310740Y-101048820D01*
X205526640Y-100990400D01*
X205529180Y-100990400D01*
X205732380Y-100982780D01*
X205854300Y-101051360D01*
X205966060Y-101236780D01*
X205973680Y-101254560D01*
X206133700Y-101485700D01*
X206329280Y-101579680D01*
X206347060Y-101582220D01*
X206552800Y-101561900D01*
X206697580Y-101434900D01*
X206789020Y-101185980D01*
X206834740Y-100799900D01*
X206839820Y-100474780D01*
X206837280Y-100109020D01*
X206819500Y-99870260D01*
X206776320Y-99710240D01*
X206697580Y-99590860D01*
X206626460Y-99512120D01*
X206468980Y-99374960D01*
X206357220Y-99352100D01*
X206222600Y-99418140D01*
X206065120Y-99585780D01*
X205955900Y-99806760D01*
X205882240Y-99982020D01*
X205767940Y-100058220D01*
X205549500Y-100073460D01*
X205544420Y-100076000D01*
X205214220Y-100076000D01*
X205214220Y-103378000D01*
X207347820Y-103378000D01*
X207942180Y-103378000D01*
X207942180Y-102191820D01*
X207942180Y-101894640D01*
X207942180Y-101600000D01*
X208577180Y-101600000D01*
X209212180Y-101600000D01*
X209212180Y-101175820D01*
X209212180Y-100751640D01*
X208704180Y-100751640D01*
X208196180Y-100751640D01*
X208196180Y-100457000D01*
X208196180Y-100159820D01*
X208704180Y-100159820D01*
X209212180Y-100159820D01*
X209212180Y-99778820D01*
X209212180Y-99397820D01*
X208577180Y-99397820D01*
X207942180Y-99397820D01*
X207942180Y-99100640D01*
X207942180Y-98806000D01*
X208958180Y-98806000D01*
X209974180Y-98806000D01*
X209974180Y-100497640D01*
X209974180Y-102191820D01*
X208958180Y-102191820D01*
X207942180Y-102191820D01*
X207942180Y-103378000D01*
X210228180Y-103378000D01*
X210228180Y-99189540D01*
X210228180Y-99100640D01*
X210228180Y-98806000D01*
X211284820Y-98806000D01*
X212344000Y-98806000D01*
X212344000Y-99100640D01*
X212333840Y-99291140D01*
X212270340Y-99374960D01*
X212105240Y-99397820D01*
X212006180Y-99397820D01*
X211665820Y-99397820D01*
X211665820Y-100794820D01*
X211665820Y-102191820D01*
X211284820Y-102191820D01*
X210903820Y-102191820D01*
X210903820Y-100794820D01*
X210903820Y-99397820D01*
X210566000Y-99397820D01*
X210350100Y-99387660D01*
X210253580Y-99331780D01*
X210228180Y-99189540D01*
X210228180Y-103378000D01*
X213106000Y-103378000D01*
X213106000Y-100624640D01*
X213106000Y-97873820D01*
X220853000Y-97873820D01*
X228597460Y-97873820D01*
X228622860Y-100647500D01*
X228645720Y-103418640D01*
X228666040Y-100604320D01*
X228683820Y-97790000D01*
X215138000Y-97790000D01*
X201592180Y-97790000D01*
X201592180Y-100584000D01*
X201592180Y-103378000D01*
X201592180Y-103378000D01*
X201592180Y-103378000D01*
G37*
X201592180Y-103378000D02*
X202521820Y-103378000D01*
X202521820Y-102191820D01*
X202521820Y-100497640D01*
X202521820Y-98806000D01*
X202862180Y-98806000D01*
X203200000Y-98806000D01*
X203200000Y-99481640D01*
X203200000Y-100159820D01*
X203624180Y-100159820D01*
X204045820Y-100159820D01*
X204045820Y-99481640D01*
X204045820Y-98806000D01*
X204426820Y-98806000D01*
X204807820Y-98806000D01*
X204807820Y-100497640D01*
X204807820Y-102191820D01*
X204426820Y-102191820D01*
X204045820Y-102191820D01*
X204045820Y-101513640D01*
X204045820Y-100838000D01*
X203624180Y-100838000D01*
X203200000Y-100838000D01*
X203200000Y-101513640D01*
X203200000Y-102191820D01*
X202862180Y-102191820D01*
X202521820Y-102191820D01*
X202521820Y-103378000D01*
X205214220Y-103378000D01*
X205214220Y-100076000D01*
X205272640Y-99758500D01*
X205419960Y-99319080D01*
X205676500Y-99001580D01*
X206029560Y-98821240D01*
X206359760Y-98778060D01*
X206814420Y-98846640D01*
X207172560Y-99052380D01*
X207429100Y-99395280D01*
X207584040Y-99872800D01*
X207639920Y-100484940D01*
X207639920Y-100497640D01*
X207599280Y-100998020D01*
X207487520Y-101439980D01*
X207314800Y-101793040D01*
X207096360Y-102019100D01*
X207065880Y-102039420D01*
X206664560Y-102179120D01*
X206250540Y-102201980D01*
X205869540Y-102110540D01*
X205638400Y-101965760D01*
X205473300Y-101762560D01*
X205328520Y-101490780D01*
X205242160Y-101231700D01*
X205232000Y-101145340D01*
X205310740Y-101048820D01*
X205526640Y-100990400D01*
X205529180Y-100990400D01*
X205732380Y-100982780D01*
X205854300Y-101051360D01*
X205966060Y-101236780D01*
X205973680Y-101254560D01*
X206133700Y-101485700D01*
X206329280Y-101579680D01*
X206347060Y-101582220D01*
X206552800Y-101561900D01*
X206697580Y-101434900D01*
X206789020Y-101185980D01*
X206834740Y-100799900D01*
X206839820Y-100474780D01*
X206837280Y-100109020D01*
X206819500Y-99870260D01*
X206776320Y-99710240D01*
X206697580Y-99590860D01*
X206626460Y-99512120D01*
X206468980Y-99374960D01*
X206357220Y-99352100D01*
X206222600Y-99418140D01*
X206065120Y-99585780D01*
X205955900Y-99806760D01*
X205882240Y-99982020D01*
X205767940Y-100058220D01*
X205549500Y-100073460D01*
X205544420Y-100076000D01*
X205214220Y-100076000D01*
X205214220Y-103378000D01*
X207347820Y-103378000D01*
X207942180Y-103378000D01*
X207942180Y-102191820D01*
X207942180Y-101894640D01*
X207942180Y-101600000D01*
X208577180Y-101600000D01*
X209212180Y-101600000D01*
X209212180Y-101175820D01*
X209212180Y-100751640D01*
X208704180Y-100751640D01*
X208196180Y-100751640D01*
X208196180Y-100457000D01*
X208196180Y-100159820D01*
X208704180Y-100159820D01*
X209212180Y-100159820D01*
X209212180Y-99778820D01*
X209212180Y-99397820D01*
X208577180Y-99397820D01*
X207942180Y-99397820D01*
X207942180Y-99100640D01*
X207942180Y-98806000D01*
X208958180Y-98806000D01*
X209974180Y-98806000D01*
X209974180Y-100497640D01*
X209974180Y-102191820D01*
X208958180Y-102191820D01*
X207942180Y-102191820D01*
X207942180Y-103378000D01*
X210228180Y-103378000D01*
X210228180Y-99189540D01*
X210228180Y-99100640D01*
X210228180Y-98806000D01*
X211284820Y-98806000D01*
X212344000Y-98806000D01*
X212344000Y-99100640D01*
X212333840Y-99291140D01*
X212270340Y-99374960D01*
X212105240Y-99397820D01*
X212006180Y-99397820D01*
X211665820Y-99397820D01*
X211665820Y-100794820D01*
X211665820Y-102191820D01*
X211284820Y-102191820D01*
X210903820Y-102191820D01*
X210903820Y-100794820D01*
X210903820Y-99397820D01*
X210566000Y-99397820D01*
X210350100Y-99387660D01*
X210253580Y-99331780D01*
X210228180Y-99189540D01*
X210228180Y-103378000D01*
X213106000Y-103378000D01*
X213106000Y-100624640D01*
X213106000Y-97873820D01*
X220853000Y-97873820D01*
X228597460Y-97873820D01*
X228622860Y-100647500D01*
X228645720Y-103418640D01*
X228666040Y-100604320D01*
X228683820Y-97790000D01*
X215138000Y-97790000D01*
X201592180Y-97790000D01*
X201592180Y-100584000D01*
X201592180Y-103378000D01*
X201592180Y-103378000D01*
G36*
X218864180Y-102240080D02*
X218948000Y-102575360D01*
X219054680Y-102740460D01*
X219303600Y-102913180D01*
X219483940Y-102966520D01*
X219483940Y-102331520D01*
X219572840Y-102204520D01*
X219791280Y-102125780D01*
X220007180Y-102108000D01*
X220291660Y-102141020D01*
X220477080Y-102227380D01*
X220535500Y-102346760D01*
X220451680Y-102481380D01*
X220431360Y-102496620D01*
X220218000Y-102585520D01*
X219948760Y-102610920D01*
X219697300Y-102575360D01*
X219539820Y-102489000D01*
X219483940Y-102331520D01*
X219483940Y-102966520D01*
X219671900Y-103022400D01*
X220113860Y-103057960D01*
X220464380Y-103032560D01*
X220807280Y-102933500D01*
X220995240Y-102788720D01*
X221124780Y-102575360D01*
X221122240Y-102389940D01*
X220990160Y-102179120D01*
X220886020Y-102019100D01*
X220893640Y-101897180D01*
X220946980Y-101813360D01*
X221053660Y-101600000D01*
X221015560Y-101406960D01*
X220868240Y-101226620D01*
X220741240Y-101084380D01*
X220726000Y-100982780D01*
X220817440Y-100848160D01*
X220827600Y-100838000D01*
X220939360Y-100614480D01*
X220977460Y-100383340D01*
X220903800Y-100050600D01*
X220698060Y-99816920D01*
X220365320Y-99684840D01*
X219953840Y-99661980D01*
X219692220Y-99664520D01*
X219544900Y-99628960D01*
X219456000Y-99529900D01*
X219428060Y-99476560D01*
X219250260Y-99293680D01*
X219095320Y-99242880D01*
X218930220Y-99245420D01*
X218871800Y-99336860D01*
X218864180Y-99466400D01*
X218902280Y-99669600D01*
X219039440Y-99763580D01*
X219044520Y-99763580D01*
X219174060Y-99837240D01*
X219163900Y-99964240D01*
X219057220Y-100327460D01*
X219069920Y-100606860D01*
X219207080Y-100848160D01*
X219270580Y-100916740D01*
X219461080Y-101079300D01*
X219659200Y-101155500D01*
X219809060Y-101165660D01*
X219809060Y-100472240D01*
X219829380Y-100233480D01*
X219923360Y-100076000D01*
X220070680Y-100037900D01*
X220098620Y-100045520D01*
X220174820Y-100152200D01*
X220215460Y-100347780D01*
X220212920Y-100556060D01*
X220159580Y-100698300D01*
X220019880Y-100746560D01*
X219887800Y-100665280D01*
X219811600Y-100484940D01*
X219809060Y-100472240D01*
X219809060Y-101165660D01*
X219938600Y-101175820D01*
X219953840Y-101175820D01*
X220238320Y-101198680D01*
X220416120Y-101262180D01*
X220459300Y-101351080D01*
X220378020Y-101437440D01*
X220228160Y-101483160D01*
X219981780Y-101508560D01*
X219854780Y-101513640D01*
X219481400Y-101554280D01*
X219168980Y-101663500D01*
X218963240Y-101820980D01*
X218917520Y-101899720D01*
X218864180Y-102240080D01*
X218864180Y-102240080D01*
X218864180Y-102240080D01*
G37*
X218864180Y-102240080D02*
X218948000Y-102575360D01*
X219054680Y-102740460D01*
X219303600Y-102913180D01*
X219483940Y-102966520D01*
X219483940Y-102331520D01*
X219572840Y-102204520D01*
X219791280Y-102125780D01*
X220007180Y-102108000D01*
X220291660Y-102141020D01*
X220477080Y-102227380D01*
X220535500Y-102346760D01*
X220451680Y-102481380D01*
X220431360Y-102496620D01*
X220218000Y-102585520D01*
X219948760Y-102610920D01*
X219697300Y-102575360D01*
X219539820Y-102489000D01*
X219483940Y-102331520D01*
X219483940Y-102966520D01*
X219671900Y-103022400D01*
X220113860Y-103057960D01*
X220464380Y-103032560D01*
X220807280Y-102933500D01*
X220995240Y-102788720D01*
X221124780Y-102575360D01*
X221122240Y-102389940D01*
X220990160Y-102179120D01*
X220886020Y-102019100D01*
X220893640Y-101897180D01*
X220946980Y-101813360D01*
X221053660Y-101600000D01*
X221015560Y-101406960D01*
X220868240Y-101226620D01*
X220741240Y-101084380D01*
X220726000Y-100982780D01*
X220817440Y-100848160D01*
X220827600Y-100838000D01*
X220939360Y-100614480D01*
X220977460Y-100383340D01*
X220903800Y-100050600D01*
X220698060Y-99816920D01*
X220365320Y-99684840D01*
X219953840Y-99661980D01*
X219692220Y-99664520D01*
X219544900Y-99628960D01*
X219456000Y-99529900D01*
X219428060Y-99476560D01*
X219250260Y-99293680D01*
X219095320Y-99242880D01*
X218930220Y-99245420D01*
X218871800Y-99336860D01*
X218864180Y-99466400D01*
X218902280Y-99669600D01*
X219039440Y-99763580D01*
X219044520Y-99763580D01*
X219174060Y-99837240D01*
X219163900Y-99964240D01*
X219057220Y-100327460D01*
X219069920Y-100606860D01*
X219207080Y-100848160D01*
X219270580Y-100916740D01*
X219461080Y-101079300D01*
X219659200Y-101155500D01*
X219809060Y-101165660D01*
X219809060Y-100472240D01*
X219829380Y-100233480D01*
X219923360Y-100076000D01*
X220070680Y-100037900D01*
X220098620Y-100045520D01*
X220174820Y-100152200D01*
X220215460Y-100347780D01*
X220212920Y-100556060D01*
X220159580Y-100698300D01*
X220019880Y-100746560D01*
X219887800Y-100665280D01*
X219811600Y-100484940D01*
X219809060Y-100472240D01*
X219809060Y-101165660D01*
X219938600Y-101175820D01*
X219953840Y-101175820D01*
X220238320Y-101198680D01*
X220416120Y-101262180D01*
X220459300Y-101351080D01*
X220378020Y-101437440D01*
X220228160Y-101483160D01*
X219981780Y-101508560D01*
X219854780Y-101513640D01*
X219481400Y-101554280D01*
X219168980Y-101663500D01*
X218963240Y-101820980D01*
X218917520Y-101899720D01*
X218864180Y-102240080D01*
X218864180Y-102240080D01*
G36*
X225341180Y-100497640D02*
X225346260Y-100916740D01*
X225364040Y-101208840D01*
X225402140Y-101417120D01*
X225468180Y-101579680D01*
X225526600Y-101683820D01*
X225826320Y-102021640D01*
X226113340Y-102166420D01*
X226113340Y-100533200D01*
X226123500Y-100159820D01*
X226153980Y-99834700D01*
X226204780Y-99613720D01*
X226217480Y-99588320D01*
X226380040Y-99430840D01*
X226588320Y-99402900D01*
X226776280Y-99507040D01*
X226832160Y-99585780D01*
X226885500Y-99778820D01*
X226915980Y-100083620D01*
X226928680Y-100449380D01*
X226921060Y-100822760D01*
X226893120Y-101150420D01*
X226844860Y-101379020D01*
X226829620Y-101414580D01*
X226669600Y-101566980D01*
X226463860Y-101592380D01*
X226273360Y-101488240D01*
X226217480Y-101409500D01*
X226161600Y-101211380D01*
X226126040Y-100904040D01*
X226113340Y-100533200D01*
X226113340Y-102166420D01*
X226194620Y-102209600D01*
X226608640Y-102242620D01*
X227040440Y-102120700D01*
X227317300Y-101947980D01*
X227512880Y-101711760D01*
X227634800Y-101386640D01*
X227698300Y-100944680D01*
X227711000Y-100497640D01*
X227680520Y-99895660D01*
X227578920Y-99433380D01*
X227398580Y-99103180D01*
X227131880Y-98882200D01*
X226766120Y-98760280D01*
X226667060Y-98745040D01*
X226253040Y-98770440D01*
X225872040Y-98943160D01*
X225567240Y-99245420D01*
X225531680Y-99301300D01*
X225445320Y-99463860D01*
X225386900Y-99636580D01*
X225356420Y-99865180D01*
X225343720Y-100187760D01*
X225341180Y-100497640D01*
X225341180Y-100497640D01*
X225341180Y-100497640D01*
G37*
X225341180Y-100497640D02*
X225346260Y-100916740D01*
X225364040Y-101208840D01*
X225402140Y-101417120D01*
X225468180Y-101579680D01*
X225526600Y-101683820D01*
X225826320Y-102021640D01*
X226113340Y-102166420D01*
X226113340Y-100533200D01*
X226123500Y-100159820D01*
X226153980Y-99834700D01*
X226204780Y-99613720D01*
X226217480Y-99588320D01*
X226380040Y-99430840D01*
X226588320Y-99402900D01*
X226776280Y-99507040D01*
X226832160Y-99585780D01*
X226885500Y-99778820D01*
X226915980Y-100083620D01*
X226928680Y-100449380D01*
X226921060Y-100822760D01*
X226893120Y-101150420D01*
X226844860Y-101379020D01*
X226829620Y-101414580D01*
X226669600Y-101566980D01*
X226463860Y-101592380D01*
X226273360Y-101488240D01*
X226217480Y-101409500D01*
X226161600Y-101211380D01*
X226126040Y-100904040D01*
X226113340Y-100533200D01*
X226113340Y-102166420D01*
X226194620Y-102209600D01*
X226608640Y-102242620D01*
X227040440Y-102120700D01*
X227317300Y-101947980D01*
X227512880Y-101711760D01*
X227634800Y-101386640D01*
X227698300Y-100944680D01*
X227711000Y-100497640D01*
X227680520Y-99895660D01*
X227578920Y-99433380D01*
X227398580Y-99103180D01*
X227131880Y-98882200D01*
X226766120Y-98760280D01*
X226667060Y-98745040D01*
X226253040Y-98770440D01*
X225872040Y-98943160D01*
X225567240Y-99245420D01*
X225531680Y-99301300D01*
X225445320Y-99463860D01*
X225386900Y-99636580D01*
X225356420Y-99865180D01*
X225343720Y-100187760D01*
X225341180Y-100497640D01*
X225341180Y-100497640D01*
G36*
X221363540Y-100975160D02*
X221373700Y-101025960D01*
X221472760Y-101056440D01*
X221693740Y-101079300D01*
X221996000Y-101089460D01*
X222044260Y-101092000D01*
X222062040Y-101092000D01*
X222062040Y-100517960D01*
X222067120Y-100457000D01*
X222156020Y-100233480D01*
X222303340Y-100121720D01*
X222463360Y-100131880D01*
X222590360Y-100271580D01*
X222618300Y-100350320D01*
X222633540Y-100550980D01*
X222531940Y-100644960D01*
X222305880Y-100650040D01*
X222120460Y-100609400D01*
X222062040Y-100517960D01*
X222062040Y-101092000D01*
X222364300Y-101094540D01*
X222552260Y-101109780D01*
X222643700Y-101150420D01*
X222671640Y-101229160D01*
X222674180Y-101295200D01*
X222620840Y-101500940D01*
X222498920Y-101678740D01*
X222351600Y-101767640D01*
X222333820Y-101767640D01*
X222211900Y-101706680D01*
X222077280Y-101574600D01*
X221998540Y-101442520D01*
X221996000Y-101422200D01*
X221922340Y-101371400D01*
X221739460Y-101346000D01*
X221698820Y-101346000D01*
X221493080Y-101366320D01*
X221409260Y-101445060D01*
X221404180Y-101495860D01*
X221480380Y-101742240D01*
X221678500Y-101978460D01*
X221955360Y-102156260D01*
X221962980Y-102158800D01*
X222270320Y-102255320D01*
X222537020Y-102250240D01*
X222816420Y-102151180D01*
X223095820Y-101942900D01*
X223293940Y-101615240D01*
X223395540Y-101201220D01*
X223393000Y-100736400D01*
X223352360Y-100500180D01*
X223187260Y-100083620D01*
X222928180Y-99804220D01*
X222572580Y-99667060D01*
X222371920Y-99651820D01*
X221980760Y-99722940D01*
X221681040Y-99936300D01*
X221477840Y-100281740D01*
X221409260Y-100538280D01*
X221373700Y-100792280D01*
X221363540Y-100975160D01*
X221363540Y-100975160D01*
X221363540Y-100975160D01*
G37*
X221363540Y-100975160D02*
X221373700Y-101025960D01*
X221472760Y-101056440D01*
X221693740Y-101079300D01*
X221996000Y-101089460D01*
X222044260Y-101092000D01*
X222062040Y-101092000D01*
X222062040Y-100517960D01*
X222067120Y-100457000D01*
X222156020Y-100233480D01*
X222303340Y-100121720D01*
X222463360Y-100131880D01*
X222590360Y-100271580D01*
X222618300Y-100350320D01*
X222633540Y-100550980D01*
X222531940Y-100644960D01*
X222305880Y-100650040D01*
X222120460Y-100609400D01*
X222062040Y-100517960D01*
X222062040Y-101092000D01*
X222364300Y-101094540D01*
X222552260Y-101109780D01*
X222643700Y-101150420D01*
X222671640Y-101229160D01*
X222674180Y-101295200D01*
X222620840Y-101500940D01*
X222498920Y-101678740D01*
X222351600Y-101767640D01*
X222333820Y-101767640D01*
X222211900Y-101706680D01*
X222077280Y-101574600D01*
X221998540Y-101442520D01*
X221996000Y-101422200D01*
X221922340Y-101371400D01*
X221739460Y-101346000D01*
X221698820Y-101346000D01*
X221493080Y-101366320D01*
X221409260Y-101445060D01*
X221404180Y-101495860D01*
X221480380Y-101742240D01*
X221678500Y-101978460D01*
X221955360Y-102156260D01*
X221962980Y-102158800D01*
X222270320Y-102255320D01*
X222537020Y-102250240D01*
X222816420Y-102151180D01*
X223095820Y-101942900D01*
X223293940Y-101615240D01*
X223395540Y-101201220D01*
X223393000Y-100736400D01*
X223352360Y-100500180D01*
X223187260Y-100083620D01*
X222928180Y-99804220D01*
X222572580Y-99667060D01*
X222371920Y-99651820D01*
X221980760Y-99722940D01*
X221681040Y-99936300D01*
X221477840Y-100281740D01*
X221409260Y-100538280D01*
X221373700Y-100792280D01*
X221363540Y-100975160D01*
X221363540Y-100975160D01*
G36*
X216715340Y-100954840D02*
X216768680Y-101467920D01*
X216923620Y-101846380D01*
X217185240Y-102097840D01*
X217299540Y-102156260D01*
X217431620Y-102196900D01*
X217431620Y-101046280D01*
X217441780Y-100713540D01*
X217495120Y-100439220D01*
X217581480Y-100243640D01*
X217695780Y-100152200D01*
X217822780Y-100185220D01*
X217939620Y-100340160D01*
X217990420Y-100528120D01*
X218008200Y-100804980D01*
X217998040Y-101112320D01*
X217959940Y-101399340D01*
X217901520Y-101610160D01*
X217850720Y-101681280D01*
X217672920Y-101721920D01*
X217540840Y-101602540D01*
X217477340Y-101414580D01*
X217431620Y-101046280D01*
X217431620Y-102196900D01*
X217609420Y-102255320D01*
X217871040Y-102250240D01*
X218160600Y-102151180D01*
X218452700Y-101935280D01*
X218643200Y-101587300D01*
X218727020Y-101112320D01*
X218732100Y-100965000D01*
X218688920Y-100436680D01*
X218549220Y-100048060D01*
X218310460Y-99791520D01*
X217970100Y-99667060D01*
X217761820Y-99651820D01*
X217345260Y-99705160D01*
X217040460Y-99875340D01*
X216839800Y-100169980D01*
X216735660Y-100594160D01*
X216715340Y-100954840D01*
X216715340Y-100954840D01*
X216715340Y-100954840D01*
G37*
X216715340Y-100954840D02*
X216768680Y-101467920D01*
X216923620Y-101846380D01*
X217185240Y-102097840D01*
X217299540Y-102156260D01*
X217431620Y-102196900D01*
X217431620Y-101046280D01*
X217441780Y-100713540D01*
X217495120Y-100439220D01*
X217581480Y-100243640D01*
X217695780Y-100152200D01*
X217822780Y-100185220D01*
X217939620Y-100340160D01*
X217990420Y-100528120D01*
X218008200Y-100804980D01*
X217998040Y-101112320D01*
X217959940Y-101399340D01*
X217901520Y-101610160D01*
X217850720Y-101681280D01*
X217672920Y-101721920D01*
X217540840Y-101602540D01*
X217477340Y-101414580D01*
X217431620Y-101046280D01*
X217431620Y-102196900D01*
X217609420Y-102255320D01*
X217871040Y-102250240D01*
X218160600Y-102151180D01*
X218452700Y-101935280D01*
X218643200Y-101587300D01*
X218727020Y-101112320D01*
X218732100Y-100965000D01*
X218688920Y-100436680D01*
X218549220Y-100048060D01*
X218310460Y-99791520D01*
X217970100Y-99667060D01*
X217761820Y-99651820D01*
X217345260Y-99705160D01*
X217040460Y-99875340D01*
X216839800Y-100169980D01*
X216735660Y-100594160D01*
X216715340Y-100954840D01*
X216715340Y-100954840D01*
G36*
X223520000Y-99989640D02*
X223540320Y-100225860D01*
X223611440Y-100322380D01*
X223647000Y-100330000D01*
X223796860Y-100385880D01*
X223944180Y-100497640D01*
X224028000Y-100604320D01*
X224078800Y-100751640D01*
X224104200Y-100975160D01*
X224111820Y-101318060D01*
X224111820Y-101429820D01*
X224111820Y-102191820D01*
X224492820Y-102191820D01*
X224873820Y-102191820D01*
X224873820Y-100921820D01*
X224873820Y-99651820D01*
X224536000Y-99651820D01*
X224317560Y-99661980D01*
X224221040Y-99717860D01*
X224195640Y-99847400D01*
X224195640Y-99885500D01*
X224188020Y-100037900D01*
X224152460Y-100040440D01*
X224096580Y-99949000D01*
X223923860Y-99730560D01*
X223707960Y-99654360D01*
X223667320Y-99651820D01*
X223570800Y-99689920D01*
X223527620Y-99827080D01*
X223520000Y-99989640D01*
X223520000Y-99989640D01*
X223520000Y-99989640D01*
G37*
X223520000Y-99989640D02*
X223540320Y-100225860D01*
X223611440Y-100322380D01*
X223647000Y-100330000D01*
X223796860Y-100385880D01*
X223944180Y-100497640D01*
X224028000Y-100604320D01*
X224078800Y-100751640D01*
X224104200Y-100975160D01*
X224111820Y-101318060D01*
X224111820Y-101429820D01*
X224111820Y-102191820D01*
X224492820Y-102191820D01*
X224873820Y-102191820D01*
X224873820Y-100921820D01*
X224873820Y-99651820D01*
X224536000Y-99651820D01*
X224317560Y-99661980D01*
X224221040Y-99717860D01*
X224195640Y-99847400D01*
X224195640Y-99885500D01*
X224188020Y-100037900D01*
X224152460Y-100040440D01*
X224096580Y-99949000D01*
X223923860Y-99730560D01*
X223707960Y-99654360D01*
X223667320Y-99651820D01*
X223570800Y-99689920D01*
X223527620Y-99827080D01*
X223520000Y-99989640D01*
X223520000Y-99989640D01*
G36*
X214376000Y-102191820D02*
X214713820Y-102191820D01*
X215054180Y-102191820D01*
X215054180Y-101269800D01*
X215064340Y-100792280D01*
X215094820Y-100464620D01*
X215158320Y-100269040D01*
X215257380Y-100187760D01*
X215397080Y-100200460D01*
X215425020Y-100208080D01*
X215485980Y-100256340D01*
X215524080Y-100363020D01*
X215549480Y-100558600D01*
X215559640Y-100868480D01*
X215562180Y-101226620D01*
X215562180Y-102191820D01*
X215943180Y-102191820D01*
X216324180Y-102191820D01*
X216324180Y-100921820D01*
X216324180Y-99651820D01*
X215983820Y-99651820D01*
X215755220Y-99669600D01*
X215658700Y-99733100D01*
X215646000Y-99791520D01*
X215633300Y-99885500D01*
X215569800Y-99860100D01*
X215491060Y-99791520D01*
X215254840Y-99677220D01*
X214957660Y-99656900D01*
X214675720Y-99730560D01*
X214546180Y-99822000D01*
X214475060Y-99905820D01*
X214426800Y-100020120D01*
X214398860Y-100190300D01*
X214383620Y-100451920D01*
X214376000Y-100835460D01*
X214376000Y-101092000D01*
X214376000Y-102191820D01*
X214376000Y-102191820D01*
X214376000Y-102191820D01*
G37*
X214376000Y-102191820D02*
X214713820Y-102191820D01*
X215054180Y-102191820D01*
X215054180Y-101269800D01*
X215064340Y-100792280D01*
X215094820Y-100464620D01*
X215158320Y-100269040D01*
X215257380Y-100187760D01*
X215397080Y-100200460D01*
X215425020Y-100208080D01*
X215485980Y-100256340D01*
X215524080Y-100363020D01*
X215549480Y-100558600D01*
X215559640Y-100868480D01*
X215562180Y-101226620D01*
X215562180Y-102191820D01*
X215943180Y-102191820D01*
X216324180Y-102191820D01*
X216324180Y-100921820D01*
X216324180Y-99651820D01*
X215983820Y-99651820D01*
X215755220Y-99669600D01*
X215658700Y-99733100D01*
X215646000Y-99791520D01*
X215633300Y-99885500D01*
X215569800Y-99860100D01*
X215491060Y-99791520D01*
X215254840Y-99677220D01*
X214957660Y-99656900D01*
X214675720Y-99730560D01*
X214546180Y-99822000D01*
X214475060Y-99905820D01*
X214426800Y-100020120D01*
X214398860Y-100190300D01*
X214383620Y-100451920D01*
X214376000Y-100835460D01*
X214376000Y-101092000D01*
X214376000Y-102191820D01*
X214376000Y-102191820D01*
D10*
X201696872Y-108249947D02*
X201419999Y-109010651D01*
X201342678Y-109083859D01*
X201281644Y-109112319D01*
X201175863Y-109124493D01*
X200996873Y-109059346D01*
X200923666Y-108982026D01*
X200895205Y-108920992D01*
X200883031Y-108815211D01*
X201159905Y-108054507D01*
X200724606Y-107997422D02*
X200696146Y-107936388D01*
X200622938Y-107859067D01*
X200399201Y-107777634D01*
X200293420Y-107789807D01*
X200232386Y-107818268D01*
X200155065Y-107891476D01*
X200122492Y-107980970D01*
X200118379Y-108131499D01*
X200459907Y-108863906D01*
X199878192Y-108652180D01*
X221190683Y-79462590D02*
X221436263Y-78935751D01*
X221753431Y-79363362D02*
X221579783Y-78378555D01*
X221204617Y-78444707D01*
X221119095Y-78508140D01*
X221080468Y-78563304D01*
X221050111Y-78665365D01*
X221074918Y-78806051D01*
X221138351Y-78891573D01*
X221193516Y-78930200D01*
X221295576Y-78960558D01*
X221670741Y-78894406D01*
X220172914Y-78626624D02*
X220360497Y-78593548D01*
X220462557Y-78623905D01*
X220517722Y-78662532D01*
X220636320Y-78786681D01*
X220716291Y-78965994D01*
X220782443Y-79341159D01*
X220752085Y-79443220D01*
X220713459Y-79498384D01*
X220627936Y-79561817D01*
X220440353Y-79594893D01*
X220338293Y-79564536D01*
X220283129Y-79525909D01*
X220219695Y-79440387D01*
X220178350Y-79205909D01*
X220208708Y-79103848D01*
X220247334Y-79048684D01*
X220332857Y-78985250D01*
X220520440Y-78952174D01*
X220622500Y-78982532D01*
X220677664Y-79021158D01*
X220741098Y-79106682D01*
X221494340Y-74009009D02*
X220884697Y-74116505D01*
X221279118Y-74433787D01*
X221138431Y-74458594D01*
X221052908Y-74522027D01*
X221014282Y-74577192D01*
X220983924Y-74679253D01*
X221025269Y-74913731D01*
X221088703Y-74999253D01*
X221143867Y-75037880D01*
X221245927Y-75068237D01*
X221527302Y-75018623D01*
X221612824Y-74955190D01*
X221651450Y-74900025D01*
X220556428Y-74174388D02*
X219946785Y-74281884D01*
X220341206Y-74599166D01*
X220200518Y-74623973D01*
X220114996Y-74687407D01*
X220076370Y-74742571D01*
X220046012Y-74844632D01*
X220087357Y-75079110D01*
X220150790Y-75164632D01*
X220205955Y-75203259D01*
X220308015Y-75233616D01*
X220589389Y-75184003D01*
X220674912Y-75120569D01*
X220713538Y-75065405D01*
X219337142Y-74389381D02*
X219243350Y-74405919D01*
X219157828Y-74469352D01*
X219119201Y-74524517D01*
X219088844Y-74626577D01*
X219075024Y-74822428D01*
X219116369Y-75056907D01*
X219196340Y-75236220D01*
X219259774Y-75321742D01*
X219314938Y-75360369D01*
X219416998Y-75390727D01*
X219510791Y-75374189D01*
X219596313Y-75310755D01*
X219634939Y-75255591D01*
X219665297Y-75153531D01*
X219679117Y-74957679D01*
X219637772Y-74723201D01*
X219557800Y-74543887D01*
X219494367Y-74458365D01*
X219439202Y-74419738D01*
X219337142Y-74389381D01*
X205779666Y-80462381D02*
X206113000Y-79986190D01*
X206351095Y-80462381D02*
X206351095Y-79462381D01*
X205970142Y-79462381D01*
X205874904Y-79510000D01*
X205827285Y-79557619D01*
X205779666Y-79652857D01*
X205779666Y-79795714D01*
X205827285Y-79890952D01*
X205874904Y-79938571D01*
X205970142Y-79986190D01*
X206351095Y-79986190D01*
X204874904Y-79462381D02*
X205351095Y-79462381D01*
X205398714Y-79938571D01*
X205351095Y-79890952D01*
X205255857Y-79843333D01*
X205017761Y-79843333D01*
X204922523Y-79890952D01*
X204874904Y-79938571D01*
X204827285Y-80033810D01*
X204827285Y-80271905D01*
X204874904Y-80367143D01*
X204922523Y-80414762D01*
X205017761Y-80462381D01*
X205255857Y-80462381D01*
X205351095Y-80414762D01*
X205398714Y-80367143D01*
X207025714Y-75144381D02*
X206406666Y-75144381D01*
X206740000Y-75525333D01*
X206597142Y-75525333D01*
X206501904Y-75572952D01*
X206454285Y-75620571D01*
X206406666Y-75715810D01*
X206406666Y-75953905D01*
X206454285Y-76049143D01*
X206501904Y-76096762D01*
X206597142Y-76144381D01*
X206882857Y-76144381D01*
X206978095Y-76096762D01*
X207025714Y-76049143D01*
X206073333Y-75144381D02*
X205454285Y-75144381D01*
X205787619Y-75525333D01*
X205644761Y-75525333D01*
X205549523Y-75572952D01*
X205501904Y-75620571D01*
X205454285Y-75715810D01*
X205454285Y-75953905D01*
X205501904Y-76049143D01*
X205549523Y-76096762D01*
X205644761Y-76144381D01*
X205930476Y-76144381D01*
X206025714Y-76096762D01*
X206073333Y-76049143D01*
X204835238Y-75144381D02*
X204739999Y-75144381D01*
X204644761Y-75192000D01*
X204597142Y-75239619D01*
X204549523Y-75334857D01*
X204501904Y-75525333D01*
X204501904Y-75763429D01*
X204549523Y-75953905D01*
X204597142Y-76049143D01*
X204644761Y-76096762D01*
X204739999Y-76144381D01*
X204835238Y-76144381D01*
X204930476Y-76096762D01*
X204978095Y-76049143D01*
X205025714Y-75953905D01*
X205073333Y-75763429D01*
X205073333Y-75525333D01*
X205025714Y-75334857D01*
X204978095Y-75239619D01*
X204930476Y-75192000D01*
X204835238Y-75144381D01*
M02*
