G04 #@! TF.FileFunction,Profile,NP*
%FSLAX46Y46*%
G04 Gerber Fmt 4.6, Leading zero omitted, Abs format (unit mm)*
G04 Created by KiCad (PCBNEW 0.201507042246+5884~23~ubuntu14.04.1-product) date Thu 09 Jul 2015 02:20:40 PM PDT*
%MOMM*%
G01*
G04 APERTURE LIST*
%ADD10C,0.150000*%
%ADD11C,0.100000*%
%ADD12C,0.002540*%
G04 APERTURE END LIST*
D10*
D11*
X224688400Y-163322000D02*
X224688400Y-147878800D01*
X212547200Y-163322000D02*
X224688400Y-163322000D01*
X212547200Y-149352000D02*
X212547200Y-163322000D01*
X224663000Y-147828000D02*
X224663000Y-163322000D01*
X212471000Y-149352000D02*
X212471000Y-163322000D01*
D12*
G36*
X240256060Y-118361460D02*
X239316260Y-126606300D01*
X238373920Y-134851140D01*
X237187740Y-138099800D01*
X236872780Y-138958320D01*
X236611160Y-139672060D01*
X236397800Y-140253720D01*
X236225080Y-140718540D01*
X236087920Y-141079220D01*
X235981240Y-141351000D01*
X235899960Y-141549120D01*
X235836460Y-141683740D01*
X235785660Y-141772640D01*
X235739940Y-141825980D01*
X235699300Y-141861540D01*
X235653580Y-141889480D01*
X235648500Y-141894560D01*
X235574840Y-141917420D01*
X235473240Y-141899640D01*
X235323380Y-141831060D01*
X235102400Y-141698980D01*
X234792520Y-141490700D01*
X234373420Y-141198600D01*
X234221020Y-141089380D01*
X233817160Y-140804900D01*
X233464100Y-140561060D01*
X233184700Y-140373100D01*
X232996740Y-140253720D01*
X232925620Y-140218160D01*
X232907840Y-140304520D01*
X232864660Y-140543280D01*
X232801160Y-140919200D01*
X232714800Y-141411960D01*
X232613200Y-142011400D01*
X232496360Y-142702280D01*
X232369360Y-143464280D01*
X232232200Y-144284700D01*
X232173780Y-144640300D01*
X232034080Y-145481040D01*
X231902000Y-146268440D01*
X231777540Y-146992340D01*
X231668320Y-147632420D01*
X231574340Y-148173440D01*
X231495600Y-148602700D01*
X231439720Y-148902420D01*
X231409240Y-149054820D01*
X231401620Y-149072600D01*
X231312720Y-149067520D01*
X231073960Y-149039580D01*
X230703120Y-148986240D01*
X230217980Y-148912580D01*
X229638860Y-148821140D01*
X228981000Y-148714460D01*
X228262180Y-148595080D01*
X227947220Y-148541740D01*
X227027740Y-148386800D01*
X226265740Y-148252180D01*
X225648520Y-148137880D01*
X225163380Y-148041360D01*
X224800160Y-147957540D01*
X224546160Y-147883880D01*
X224391220Y-147820380D01*
X224322640Y-147764500D01*
X224327720Y-147708620D01*
X224337880Y-147698460D01*
X224429320Y-147701000D01*
X224670620Y-147731480D01*
X225041460Y-147782280D01*
X225526600Y-147855940D01*
X226105720Y-147947380D01*
X226761040Y-148054060D01*
X227477320Y-148173440D01*
X227744020Y-148219160D01*
X228594920Y-148361400D01*
X229344220Y-148483320D01*
X229981760Y-148579840D01*
X230492300Y-148653500D01*
X230868220Y-148699220D01*
X231099360Y-148717000D01*
X231170480Y-148709380D01*
X231195880Y-148612860D01*
X231246680Y-148366480D01*
X231320340Y-147982940D01*
X231411780Y-147482560D01*
X231518460Y-146878040D01*
X231637840Y-146187160D01*
X231767380Y-145425160D01*
X231902000Y-144609820D01*
X231937560Y-144399000D01*
X232100120Y-143403320D01*
X232239820Y-142562580D01*
X232356660Y-141861540D01*
X232450640Y-141290040D01*
X232529380Y-140835380D01*
X232592880Y-140479780D01*
X232641140Y-140215620D01*
X232681780Y-140027660D01*
X232712260Y-139903200D01*
X232737660Y-139829540D01*
X232760520Y-139793980D01*
X232783380Y-139783820D01*
X232808780Y-139783820D01*
X232821480Y-139783820D01*
X232915460Y-139829540D01*
X233126280Y-139961620D01*
X233428540Y-140162280D01*
X233796840Y-140416280D01*
X234210860Y-140705840D01*
X234223560Y-140716000D01*
X234729020Y-141071600D01*
X235110020Y-141325600D01*
X235374180Y-141483080D01*
X235534200Y-141551660D01*
X235592620Y-141541500D01*
X235633260Y-141442440D01*
X235724700Y-141198600D01*
X235864400Y-140832840D01*
X236039660Y-140355320D01*
X236250480Y-139788900D01*
X236484160Y-139148820D01*
X236740700Y-138452860D01*
X236888020Y-138049000D01*
X238125000Y-134660640D01*
X239049560Y-126547880D01*
X239974120Y-118435120D01*
X237990380Y-111823500D01*
X237683040Y-110799880D01*
X237393480Y-109824520D01*
X237119160Y-108905040D01*
X236865160Y-108054140D01*
X236639100Y-107289600D01*
X236440980Y-106616500D01*
X236275880Y-106052620D01*
X236146340Y-105608120D01*
X236057440Y-105295700D01*
X236011720Y-105125520D01*
X236006640Y-105100120D01*
X235953300Y-105013760D01*
X235803440Y-104810560D01*
X235564680Y-104505760D01*
X235249720Y-104106980D01*
X234866180Y-103632000D01*
X234426760Y-103090980D01*
X233941620Y-102496620D01*
X233418380Y-101864160D01*
X233339640Y-101767640D01*
X232808780Y-101127560D01*
X232310940Y-100523040D01*
X231853740Y-99966780D01*
X231449880Y-99474020D01*
X231109520Y-99057460D01*
X230842820Y-98729800D01*
X230662480Y-98503740D01*
X230576120Y-98391980D01*
X230573580Y-98386900D01*
X230555800Y-98328480D01*
X230565960Y-98234500D01*
X230616760Y-98092260D01*
X230713280Y-97889060D01*
X230863140Y-97607120D01*
X231073960Y-97233740D01*
X231353360Y-96751140D01*
X231711500Y-96146620D01*
X231902000Y-95829120D01*
X232285540Y-95181420D01*
X232676700Y-94521020D01*
X233060240Y-93878400D01*
X233415840Y-93278960D01*
X233723180Y-92758260D01*
X233969560Y-92341700D01*
X234027980Y-92242640D01*
X234726480Y-91059000D01*
X234393740Y-86664800D01*
X234327700Y-85816440D01*
X234264200Y-85018880D01*
X234203240Y-84287360D01*
X234147360Y-83639660D01*
X234096560Y-83091020D01*
X234053380Y-82654140D01*
X234017820Y-82351880D01*
X233994960Y-82194400D01*
X233987340Y-82176620D01*
X233921300Y-82092800D01*
X233758740Y-81892140D01*
X233512360Y-81587340D01*
X233192320Y-81191100D01*
X232811320Y-80718660D01*
X232376980Y-80185260D01*
X231904540Y-79601060D01*
X231546400Y-79161640D01*
X231051100Y-78544420D01*
X230581200Y-77965300D01*
X230154480Y-77434440D01*
X229781100Y-76967080D01*
X229471220Y-76575920D01*
X229237540Y-76278740D01*
X229090220Y-76088240D01*
X229044500Y-76027280D01*
X228975920Y-75882500D01*
X228859080Y-75605640D01*
X228711760Y-75232260D01*
X228544120Y-74785220D01*
X228384100Y-74345800D01*
X227855780Y-72872600D01*
X228493320Y-69865240D01*
X229130860Y-66857880D01*
X228922580Y-66299080D01*
X228808280Y-66012060D01*
X228706680Y-65783460D01*
X228640640Y-65669160D01*
X228640640Y-65666620D01*
X228536500Y-65628520D01*
X228295200Y-65565020D01*
X227949760Y-65488820D01*
X227530660Y-65405000D01*
X227312220Y-65366900D01*
X226060000Y-65138300D01*
X225465640Y-65928240D01*
X224873820Y-66718180D01*
X221020640Y-69001640D01*
X220284040Y-69438520D01*
X219590620Y-69847460D01*
X218953080Y-70220840D01*
X218389200Y-70551040D01*
X217906600Y-70830440D01*
X217523060Y-71048880D01*
X217251280Y-71201280D01*
X217103960Y-71280020D01*
X217083640Y-71287640D01*
X216982040Y-71272400D01*
X216735660Y-71226680D01*
X216367360Y-71158100D01*
X215900000Y-71069200D01*
X215353900Y-70965060D01*
X214751920Y-70848220D01*
X214675720Y-70832980D01*
X212351620Y-70378320D01*
X208620360Y-71340980D01*
X207853280Y-71539100D01*
X207134460Y-71721980D01*
X206484220Y-71889620D01*
X205915260Y-72031860D01*
X205445360Y-72151240D01*
X205092300Y-72237600D01*
X204873860Y-72288400D01*
X204805280Y-72303640D01*
X204718920Y-72257920D01*
X204510640Y-72123300D01*
X204190600Y-71909940D01*
X203774040Y-71630540D01*
X203276200Y-71292720D01*
X202712320Y-70906640D01*
X202092560Y-70479920D01*
X201564240Y-70114160D01*
X198412100Y-67924680D01*
X197388480Y-68168520D01*
X196989700Y-68265040D01*
X196651880Y-68351400D01*
X196405500Y-68417440D01*
X196291200Y-68458080D01*
X196288660Y-68458080D01*
X196197220Y-68562220D01*
X196095620Y-68732400D01*
X196072760Y-68795900D01*
X196057520Y-68887340D01*
X196054980Y-69019420D01*
X196067680Y-69204840D01*
X196093080Y-69458840D01*
X196138800Y-69794120D01*
X196202300Y-70228460D01*
X196288660Y-70772020D01*
X196395340Y-71440040D01*
X196527420Y-72247760D01*
X196687440Y-73205340D01*
X196695060Y-73245980D01*
X197408800Y-77533500D01*
X195742560Y-80865980D01*
X194073780Y-84201000D01*
X193332100Y-86707980D01*
X192587880Y-89217500D01*
X193128900Y-92676980D01*
X193667380Y-96139000D01*
X194129660Y-96560640D01*
X195008500Y-97373440D01*
X195813680Y-98122740D01*
X196540120Y-98803460D01*
X197180200Y-99413060D01*
X197728840Y-99941380D01*
X198180960Y-100385880D01*
X198526400Y-100738940D01*
X198762620Y-100992940D01*
X198882000Y-101142800D01*
X198897240Y-101180900D01*
X198846440Y-101274880D01*
X198709280Y-101495860D01*
X198498460Y-101833680D01*
X198221600Y-102273100D01*
X197883780Y-102801420D01*
X197497700Y-103403400D01*
X197070980Y-104066340D01*
X196611240Y-104777540D01*
X196334380Y-105201720D01*
X193807080Y-109093000D01*
X192468500Y-112138460D01*
X191127380Y-115186460D01*
X191221360Y-119527320D01*
X191315340Y-123865640D01*
X193255900Y-130492500D01*
X193558160Y-131518660D01*
X193850260Y-132504180D01*
X194127120Y-133433820D01*
X194386200Y-134292340D01*
X194622420Y-135069580D01*
X194833240Y-135752840D01*
X195013580Y-136331960D01*
X195158360Y-136789160D01*
X195267580Y-137114280D01*
X195336160Y-137297160D01*
X195351400Y-137327640D01*
X195427600Y-137436860D01*
X195592700Y-137668000D01*
X195836540Y-138010900D01*
X196148960Y-138452860D01*
X196522340Y-138981180D01*
X196946520Y-139578080D01*
X197408800Y-140233400D01*
X197906640Y-140934440D01*
X198198740Y-141351000D01*
X198706740Y-142064740D01*
X199186800Y-142740380D01*
X199628760Y-143365220D01*
X200025000Y-143921480D01*
X200367900Y-144401540D01*
X200644760Y-144787620D01*
X200847960Y-145069560D01*
X200969880Y-145234660D01*
X200997820Y-145270220D01*
X201058780Y-145293080D01*
X201152760Y-145239740D01*
X201295000Y-145092420D01*
X201503280Y-144835880D01*
X201759820Y-144495520D01*
X202417680Y-143611600D01*
X203342240Y-143550640D01*
X203718160Y-143527780D01*
X204028040Y-143517620D01*
X204233780Y-143515080D01*
X204302360Y-143525240D01*
X204315060Y-143614140D01*
X204343000Y-143852900D01*
X204378560Y-144228820D01*
X204424280Y-144716500D01*
X204477620Y-145305780D01*
X204538580Y-145973800D01*
X204599540Y-146702780D01*
X204635100Y-147104100D01*
X204698600Y-147858480D01*
X204759560Y-148562060D01*
X204815440Y-149194520D01*
X204866240Y-149735540D01*
X204906880Y-150172420D01*
X204939900Y-150484840D01*
X204960220Y-150652480D01*
X204965300Y-150680420D01*
X205056740Y-150705820D01*
X205282800Y-150749000D01*
X205607920Y-150804880D01*
X206001620Y-150870920D01*
X206021940Y-150873460D01*
X207045560Y-151033480D01*
X209943700Y-150065740D01*
X210609180Y-149844760D01*
X211221320Y-149644100D01*
X211764880Y-149466300D01*
X212217000Y-149321520D01*
X212564980Y-149212300D01*
X212788500Y-149146260D01*
X212867240Y-149128480D01*
X212867240Y-149219920D01*
X212844380Y-149291040D01*
X212755480Y-149349460D01*
X212526880Y-149448520D01*
X212181440Y-149583140D01*
X211739480Y-149748240D01*
X211226400Y-149933660D01*
X210662520Y-150131780D01*
X210068160Y-150334980D01*
X209468720Y-150538180D01*
X208884520Y-150728680D01*
X208340960Y-150906480D01*
X207855820Y-151056340D01*
X207451960Y-151175720D01*
X207154780Y-151257000D01*
X206982060Y-151290020D01*
X206966820Y-151290020D01*
X206801720Y-151272240D01*
X206512160Y-151234140D01*
X206136240Y-151178260D01*
X205742540Y-151117300D01*
X205351380Y-151053800D01*
X205026260Y-150997920D01*
X204802740Y-150954740D01*
X204708760Y-150931880D01*
X204698600Y-150845520D01*
X204673200Y-150606760D01*
X204637640Y-150235920D01*
X204594460Y-149748240D01*
X204541120Y-149164040D01*
X204485240Y-148496020D01*
X204421740Y-147767040D01*
X204388720Y-147365720D01*
X204322680Y-146608800D01*
X204261720Y-145905220D01*
X204205840Y-145275300D01*
X204157580Y-144731740D01*
X204116940Y-144297400D01*
X204083920Y-143984980D01*
X204063600Y-143817340D01*
X204058520Y-143789400D01*
X203967080Y-143781780D01*
X203746100Y-143786860D01*
X203438760Y-143804640D01*
X203316840Y-143814800D01*
X202605640Y-143868140D01*
X201889360Y-144830800D01*
X201625200Y-145178780D01*
X201391520Y-145468340D01*
X201208640Y-145679160D01*
X201096880Y-145785840D01*
X201079100Y-145796000D01*
X201020680Y-145727420D01*
X200873360Y-145536920D01*
X200647300Y-145237200D01*
X200357740Y-144843500D01*
X200009760Y-144368520D01*
X199616060Y-143827500D01*
X199184260Y-143235680D01*
X198729600Y-142605760D01*
X198257160Y-141952980D01*
X197782180Y-141290040D01*
X197312280Y-140634720D01*
X196857620Y-139999720D01*
X196428360Y-139397740D01*
X196034660Y-138846560D01*
X195689220Y-138356340D01*
X195402200Y-137944860D01*
X195181220Y-137627360D01*
X195038980Y-137414000D01*
X194998340Y-137350500D01*
X194965320Y-137253980D01*
X194886580Y-137005060D01*
X194769740Y-136618980D01*
X194614800Y-136105900D01*
X194426840Y-135481060D01*
X194210940Y-134757160D01*
X193969640Y-133941820D01*
X193705480Y-133052820D01*
X193426080Y-132100320D01*
X193131440Y-131094480D01*
X192994280Y-130632200D01*
X191061340Y-124033280D01*
X190964820Y-119524780D01*
X190870840Y-115018820D01*
X192211960Y-111970820D01*
X193553080Y-108922820D01*
X196082920Y-105031540D01*
X198610220Y-101140260D01*
X198180960Y-100756720D01*
X198015860Y-100606860D01*
X197746620Y-100357940D01*
X197388480Y-100025200D01*
X196961760Y-99628960D01*
X196484240Y-99181920D01*
X195971160Y-98704400D01*
X195595240Y-98351340D01*
X194937380Y-97731580D01*
X194403980Y-97218500D01*
X193989960Y-96807020D01*
X193687700Y-96492060D01*
X193492120Y-96268540D01*
X193400680Y-96131380D01*
X193393060Y-96108520D01*
X193370200Y-95976440D01*
X193327020Y-95697040D01*
X193260980Y-95290640D01*
X193179700Y-94772480D01*
X193083180Y-94165420D01*
X192976500Y-93487240D01*
X192862200Y-92755720D01*
X192826640Y-92524580D01*
X192300860Y-89164160D01*
X193045080Y-86639400D01*
X193786760Y-84114640D01*
X195453000Y-80772000D01*
X197116700Y-77426820D01*
X196400420Y-73159620D01*
X195686680Y-68889880D01*
X195922900Y-68397120D01*
X196093080Y-68087240D01*
X196237860Y-67924680D01*
X196349620Y-67911980D01*
X196400420Y-67998340D01*
X196479160Y-68028820D01*
X196684900Y-68013580D01*
X197032880Y-67952620D01*
X197429120Y-67863720D01*
X197825360Y-67777360D01*
X198165720Y-67713860D01*
X198417180Y-67678300D01*
X198539100Y-67675760D01*
X198630540Y-67734180D01*
X198846440Y-67876420D01*
X199171560Y-68094860D01*
X199593200Y-68381880D01*
X200093580Y-68724780D01*
X200657460Y-69115940D01*
X201274680Y-69540120D01*
X201709020Y-69842380D01*
X202351640Y-70286880D01*
X202953620Y-70698360D01*
X203502260Y-71069200D01*
X203979780Y-71389240D01*
X204376020Y-71648320D01*
X204670660Y-71836280D01*
X204853540Y-71942960D01*
X204904340Y-71965820D01*
X205013560Y-71945500D01*
X205270100Y-71887080D01*
X205656180Y-71793100D01*
X206151480Y-71671180D01*
X206743300Y-71521320D01*
X207411320Y-71353680D01*
X208140300Y-71165720D01*
X208686400Y-71026020D01*
X212323680Y-70088760D01*
X214683340Y-70545960D01*
X217043000Y-71005700D01*
X220855540Y-68745100D01*
X224665540Y-66484500D01*
X225259900Y-65689480D01*
X225501200Y-65377060D01*
X225706940Y-65115440D01*
X225859340Y-64937640D01*
X225930460Y-64869060D01*
X226052380Y-64869060D01*
X226303840Y-64902080D01*
X226649280Y-64957960D01*
X227055680Y-65031620D01*
X227487480Y-65115440D01*
X227916740Y-65204340D01*
X228305360Y-65290700D01*
X228622860Y-65369440D01*
X228833680Y-65430400D01*
X228907340Y-65463420D01*
X228965760Y-65590420D01*
X229062280Y-65829180D01*
X229176580Y-66131440D01*
X229199440Y-66194940D01*
X229428040Y-66819780D01*
X228790500Y-69824600D01*
X228152960Y-72829420D01*
X228691440Y-74312780D01*
X228866700Y-74787760D01*
X229024180Y-75209400D01*
X229156260Y-75552300D01*
X229252780Y-75788520D01*
X229303580Y-75890120D01*
X229369620Y-75973940D01*
X229532180Y-76177140D01*
X229781100Y-76481940D01*
X230101140Y-76880720D01*
X230482140Y-77353160D01*
X230916480Y-77889100D01*
X231388920Y-78475840D01*
X231775000Y-78950820D01*
X232270300Y-79565500D01*
X232735120Y-80139540D01*
X233159300Y-80662780D01*
X233527600Y-81119980D01*
X233829860Y-81495900D01*
X234058460Y-81777840D01*
X234200700Y-81953100D01*
X234241340Y-82006440D01*
X234261660Y-82108040D01*
X234292140Y-82356960D01*
X234330240Y-82737960D01*
X234375960Y-83233260D01*
X234429300Y-83817460D01*
X234485180Y-84477860D01*
X234543600Y-85194140D01*
X234602020Y-85945980D01*
X234662980Y-86713060D01*
X234718860Y-87477600D01*
X234774740Y-88224360D01*
X234825540Y-88927940D01*
X234868720Y-89573100D01*
X234906820Y-90142060D01*
X234932220Y-90611960D01*
X234950000Y-90967560D01*
X234955080Y-91186000D01*
X234952540Y-91249500D01*
X234899200Y-91346020D01*
X234769660Y-91569540D01*
X234571540Y-91912440D01*
X234312460Y-92354400D01*
X234002580Y-92882720D01*
X233646980Y-93482160D01*
X233258360Y-94137480D01*
X232869740Y-94792800D01*
X232404920Y-95577660D01*
X231990900Y-96286320D01*
X231635300Y-96903540D01*
X231343200Y-97424240D01*
X231119680Y-97833180D01*
X230969820Y-98125280D01*
X230901240Y-98287840D01*
X230896160Y-98315780D01*
X230962200Y-98399600D01*
X231124760Y-98600260D01*
X231373680Y-98907600D01*
X231698800Y-99303840D01*
X232089960Y-99778820D01*
X232537000Y-100319840D01*
X233027220Y-100911660D01*
X233550460Y-101544120D01*
X233611420Y-101617780D01*
X234254040Y-102397560D01*
X234792520Y-103055420D01*
X235237020Y-103604060D01*
X235592620Y-104051100D01*
X235861860Y-104404160D01*
X236057440Y-104673400D01*
X236184440Y-104866440D01*
X236250480Y-104993440D01*
X236260640Y-105044240D01*
X236288580Y-105249980D01*
X236357160Y-105537000D01*
X236420660Y-105742740D01*
X236524800Y-106047540D01*
X236636560Y-106387900D01*
X236761020Y-106773980D01*
X236900720Y-107221020D01*
X237060740Y-107736640D01*
X237246160Y-108338620D01*
X237459520Y-109037120D01*
X237703360Y-109844840D01*
X237982760Y-110777020D01*
X238302800Y-111841280D01*
X238668560Y-113055400D01*
X238716820Y-113217960D01*
X240256060Y-118361460D01*
X240256060Y-118361460D01*
X240256060Y-118361460D01*
G37*
X240256060Y-118361460D02*
X239316260Y-126606300D01*
X238373920Y-134851140D01*
X237187740Y-138099800D01*
X236872780Y-138958320D01*
X236611160Y-139672060D01*
X236397800Y-140253720D01*
X236225080Y-140718540D01*
X236087920Y-141079220D01*
X235981240Y-141351000D01*
X235899960Y-141549120D01*
X235836460Y-141683740D01*
X235785660Y-141772640D01*
X235739940Y-141825980D01*
X235699300Y-141861540D01*
X235653580Y-141889480D01*
X235648500Y-141894560D01*
X235574840Y-141917420D01*
X235473240Y-141899640D01*
X235323380Y-141831060D01*
X235102400Y-141698980D01*
X234792520Y-141490700D01*
X234373420Y-141198600D01*
X234221020Y-141089380D01*
X233817160Y-140804900D01*
X233464100Y-140561060D01*
X233184700Y-140373100D01*
X232996740Y-140253720D01*
X232925620Y-140218160D01*
X232907840Y-140304520D01*
X232864660Y-140543280D01*
X232801160Y-140919200D01*
X232714800Y-141411960D01*
X232613200Y-142011400D01*
X232496360Y-142702280D01*
X232369360Y-143464280D01*
X232232200Y-144284700D01*
X232173780Y-144640300D01*
X232034080Y-145481040D01*
X231902000Y-146268440D01*
X231777540Y-146992340D01*
X231668320Y-147632420D01*
X231574340Y-148173440D01*
X231495600Y-148602700D01*
X231439720Y-148902420D01*
X231409240Y-149054820D01*
X231401620Y-149072600D01*
X231312720Y-149067520D01*
X231073960Y-149039580D01*
X230703120Y-148986240D01*
X230217980Y-148912580D01*
X229638860Y-148821140D01*
X228981000Y-148714460D01*
X228262180Y-148595080D01*
X227947220Y-148541740D01*
X227027740Y-148386800D01*
X226265740Y-148252180D01*
X225648520Y-148137880D01*
X225163380Y-148041360D01*
X224800160Y-147957540D01*
X224546160Y-147883880D01*
X224391220Y-147820380D01*
X224322640Y-147764500D01*
X224327720Y-147708620D01*
X224337880Y-147698460D01*
X224429320Y-147701000D01*
X224670620Y-147731480D01*
X225041460Y-147782280D01*
X225526600Y-147855940D01*
X226105720Y-147947380D01*
X226761040Y-148054060D01*
X227477320Y-148173440D01*
X227744020Y-148219160D01*
X228594920Y-148361400D01*
X229344220Y-148483320D01*
X229981760Y-148579840D01*
X230492300Y-148653500D01*
X230868220Y-148699220D01*
X231099360Y-148717000D01*
X231170480Y-148709380D01*
X231195880Y-148612860D01*
X231246680Y-148366480D01*
X231320340Y-147982940D01*
X231411780Y-147482560D01*
X231518460Y-146878040D01*
X231637840Y-146187160D01*
X231767380Y-145425160D01*
X231902000Y-144609820D01*
X231937560Y-144399000D01*
X232100120Y-143403320D01*
X232239820Y-142562580D01*
X232356660Y-141861540D01*
X232450640Y-141290040D01*
X232529380Y-140835380D01*
X232592880Y-140479780D01*
X232641140Y-140215620D01*
X232681780Y-140027660D01*
X232712260Y-139903200D01*
X232737660Y-139829540D01*
X232760520Y-139793980D01*
X232783380Y-139783820D01*
X232808780Y-139783820D01*
X232821480Y-139783820D01*
X232915460Y-139829540D01*
X233126280Y-139961620D01*
X233428540Y-140162280D01*
X233796840Y-140416280D01*
X234210860Y-140705840D01*
X234223560Y-140716000D01*
X234729020Y-141071600D01*
X235110020Y-141325600D01*
X235374180Y-141483080D01*
X235534200Y-141551660D01*
X235592620Y-141541500D01*
X235633260Y-141442440D01*
X235724700Y-141198600D01*
X235864400Y-140832840D01*
X236039660Y-140355320D01*
X236250480Y-139788900D01*
X236484160Y-139148820D01*
X236740700Y-138452860D01*
X236888020Y-138049000D01*
X238125000Y-134660640D01*
X239049560Y-126547880D01*
X239974120Y-118435120D01*
X237990380Y-111823500D01*
X237683040Y-110799880D01*
X237393480Y-109824520D01*
X237119160Y-108905040D01*
X236865160Y-108054140D01*
X236639100Y-107289600D01*
X236440980Y-106616500D01*
X236275880Y-106052620D01*
X236146340Y-105608120D01*
X236057440Y-105295700D01*
X236011720Y-105125520D01*
X236006640Y-105100120D01*
X235953300Y-105013760D01*
X235803440Y-104810560D01*
X235564680Y-104505760D01*
X235249720Y-104106980D01*
X234866180Y-103632000D01*
X234426760Y-103090980D01*
X233941620Y-102496620D01*
X233418380Y-101864160D01*
X233339640Y-101767640D01*
X232808780Y-101127560D01*
X232310940Y-100523040D01*
X231853740Y-99966780D01*
X231449880Y-99474020D01*
X231109520Y-99057460D01*
X230842820Y-98729800D01*
X230662480Y-98503740D01*
X230576120Y-98391980D01*
X230573580Y-98386900D01*
X230555800Y-98328480D01*
X230565960Y-98234500D01*
X230616760Y-98092260D01*
X230713280Y-97889060D01*
X230863140Y-97607120D01*
X231073960Y-97233740D01*
X231353360Y-96751140D01*
X231711500Y-96146620D01*
X231902000Y-95829120D01*
X232285540Y-95181420D01*
X232676700Y-94521020D01*
X233060240Y-93878400D01*
X233415840Y-93278960D01*
X233723180Y-92758260D01*
X233969560Y-92341700D01*
X234027980Y-92242640D01*
X234726480Y-91059000D01*
X234393740Y-86664800D01*
X234327700Y-85816440D01*
X234264200Y-85018880D01*
X234203240Y-84287360D01*
X234147360Y-83639660D01*
X234096560Y-83091020D01*
X234053380Y-82654140D01*
X234017820Y-82351880D01*
X233994960Y-82194400D01*
X233987340Y-82176620D01*
X233921300Y-82092800D01*
X233758740Y-81892140D01*
X233512360Y-81587340D01*
X233192320Y-81191100D01*
X232811320Y-80718660D01*
X232376980Y-80185260D01*
X231904540Y-79601060D01*
X231546400Y-79161640D01*
X231051100Y-78544420D01*
X230581200Y-77965300D01*
X230154480Y-77434440D01*
X229781100Y-76967080D01*
X229471220Y-76575920D01*
X229237540Y-76278740D01*
X229090220Y-76088240D01*
X229044500Y-76027280D01*
X228975920Y-75882500D01*
X228859080Y-75605640D01*
X228711760Y-75232260D01*
X228544120Y-74785220D01*
X228384100Y-74345800D01*
X227855780Y-72872600D01*
X228493320Y-69865240D01*
X229130860Y-66857880D01*
X228922580Y-66299080D01*
X228808280Y-66012060D01*
X228706680Y-65783460D01*
X228640640Y-65669160D01*
X228640640Y-65666620D01*
X228536500Y-65628520D01*
X228295200Y-65565020D01*
X227949760Y-65488820D01*
X227530660Y-65405000D01*
X227312220Y-65366900D01*
X226060000Y-65138300D01*
X225465640Y-65928240D01*
X224873820Y-66718180D01*
X221020640Y-69001640D01*
X220284040Y-69438520D01*
X219590620Y-69847460D01*
X218953080Y-70220840D01*
X218389200Y-70551040D01*
X217906600Y-70830440D01*
X217523060Y-71048880D01*
X217251280Y-71201280D01*
X217103960Y-71280020D01*
X217083640Y-71287640D01*
X216982040Y-71272400D01*
X216735660Y-71226680D01*
X216367360Y-71158100D01*
X215900000Y-71069200D01*
X215353900Y-70965060D01*
X214751920Y-70848220D01*
X214675720Y-70832980D01*
X212351620Y-70378320D01*
X208620360Y-71340980D01*
X207853280Y-71539100D01*
X207134460Y-71721980D01*
X206484220Y-71889620D01*
X205915260Y-72031860D01*
X205445360Y-72151240D01*
X205092300Y-72237600D01*
X204873860Y-72288400D01*
X204805280Y-72303640D01*
X204718920Y-72257920D01*
X204510640Y-72123300D01*
X204190600Y-71909940D01*
X203774040Y-71630540D01*
X203276200Y-71292720D01*
X202712320Y-70906640D01*
X202092560Y-70479920D01*
X201564240Y-70114160D01*
X198412100Y-67924680D01*
X197388480Y-68168520D01*
X196989700Y-68265040D01*
X196651880Y-68351400D01*
X196405500Y-68417440D01*
X196291200Y-68458080D01*
X196288660Y-68458080D01*
X196197220Y-68562220D01*
X196095620Y-68732400D01*
X196072760Y-68795900D01*
X196057520Y-68887340D01*
X196054980Y-69019420D01*
X196067680Y-69204840D01*
X196093080Y-69458840D01*
X196138800Y-69794120D01*
X196202300Y-70228460D01*
X196288660Y-70772020D01*
X196395340Y-71440040D01*
X196527420Y-72247760D01*
X196687440Y-73205340D01*
X196695060Y-73245980D01*
X197408800Y-77533500D01*
X195742560Y-80865980D01*
X194073780Y-84201000D01*
X193332100Y-86707980D01*
X192587880Y-89217500D01*
X193128900Y-92676980D01*
X193667380Y-96139000D01*
X194129660Y-96560640D01*
X195008500Y-97373440D01*
X195813680Y-98122740D01*
X196540120Y-98803460D01*
X197180200Y-99413060D01*
X197728840Y-99941380D01*
X198180960Y-100385880D01*
X198526400Y-100738940D01*
X198762620Y-100992940D01*
X198882000Y-101142800D01*
X198897240Y-101180900D01*
X198846440Y-101274880D01*
X198709280Y-101495860D01*
X198498460Y-101833680D01*
X198221600Y-102273100D01*
X197883780Y-102801420D01*
X197497700Y-103403400D01*
X197070980Y-104066340D01*
X196611240Y-104777540D01*
X196334380Y-105201720D01*
X193807080Y-109093000D01*
X192468500Y-112138460D01*
X191127380Y-115186460D01*
X191221360Y-119527320D01*
X191315340Y-123865640D01*
X193255900Y-130492500D01*
X193558160Y-131518660D01*
X193850260Y-132504180D01*
X194127120Y-133433820D01*
X194386200Y-134292340D01*
X194622420Y-135069580D01*
X194833240Y-135752840D01*
X195013580Y-136331960D01*
X195158360Y-136789160D01*
X195267580Y-137114280D01*
X195336160Y-137297160D01*
X195351400Y-137327640D01*
X195427600Y-137436860D01*
X195592700Y-137668000D01*
X195836540Y-138010900D01*
X196148960Y-138452860D01*
X196522340Y-138981180D01*
X196946520Y-139578080D01*
X197408800Y-140233400D01*
X197906640Y-140934440D01*
X198198740Y-141351000D01*
X198706740Y-142064740D01*
X199186800Y-142740380D01*
X199628760Y-143365220D01*
X200025000Y-143921480D01*
X200367900Y-144401540D01*
X200644760Y-144787620D01*
X200847960Y-145069560D01*
X200969880Y-145234660D01*
X200997820Y-145270220D01*
X201058780Y-145293080D01*
X201152760Y-145239740D01*
X201295000Y-145092420D01*
X201503280Y-144835880D01*
X201759820Y-144495520D01*
X202417680Y-143611600D01*
X203342240Y-143550640D01*
X203718160Y-143527780D01*
X204028040Y-143517620D01*
X204233780Y-143515080D01*
X204302360Y-143525240D01*
X204315060Y-143614140D01*
X204343000Y-143852900D01*
X204378560Y-144228820D01*
X204424280Y-144716500D01*
X204477620Y-145305780D01*
X204538580Y-145973800D01*
X204599540Y-146702780D01*
X204635100Y-147104100D01*
X204698600Y-147858480D01*
X204759560Y-148562060D01*
X204815440Y-149194520D01*
X204866240Y-149735540D01*
X204906880Y-150172420D01*
X204939900Y-150484840D01*
X204960220Y-150652480D01*
X204965300Y-150680420D01*
X205056740Y-150705820D01*
X205282800Y-150749000D01*
X205607920Y-150804880D01*
X206001620Y-150870920D01*
X206021940Y-150873460D01*
X207045560Y-151033480D01*
X209943700Y-150065740D01*
X210609180Y-149844760D01*
X211221320Y-149644100D01*
X211764880Y-149466300D01*
X212217000Y-149321520D01*
X212564980Y-149212300D01*
X212788500Y-149146260D01*
X212867240Y-149128480D01*
X212867240Y-149219920D01*
X212844380Y-149291040D01*
X212755480Y-149349460D01*
X212526880Y-149448520D01*
X212181440Y-149583140D01*
X211739480Y-149748240D01*
X211226400Y-149933660D01*
X210662520Y-150131780D01*
X210068160Y-150334980D01*
X209468720Y-150538180D01*
X208884520Y-150728680D01*
X208340960Y-150906480D01*
X207855820Y-151056340D01*
X207451960Y-151175720D01*
X207154780Y-151257000D01*
X206982060Y-151290020D01*
X206966820Y-151290020D01*
X206801720Y-151272240D01*
X206512160Y-151234140D01*
X206136240Y-151178260D01*
X205742540Y-151117300D01*
X205351380Y-151053800D01*
X205026260Y-150997920D01*
X204802740Y-150954740D01*
X204708760Y-150931880D01*
X204698600Y-150845520D01*
X204673200Y-150606760D01*
X204637640Y-150235920D01*
X204594460Y-149748240D01*
X204541120Y-149164040D01*
X204485240Y-148496020D01*
X204421740Y-147767040D01*
X204388720Y-147365720D01*
X204322680Y-146608800D01*
X204261720Y-145905220D01*
X204205840Y-145275300D01*
X204157580Y-144731740D01*
X204116940Y-144297400D01*
X204083920Y-143984980D01*
X204063600Y-143817340D01*
X204058520Y-143789400D01*
X203967080Y-143781780D01*
X203746100Y-143786860D01*
X203438760Y-143804640D01*
X203316840Y-143814800D01*
X202605640Y-143868140D01*
X201889360Y-144830800D01*
X201625200Y-145178780D01*
X201391520Y-145468340D01*
X201208640Y-145679160D01*
X201096880Y-145785840D01*
X201079100Y-145796000D01*
X201020680Y-145727420D01*
X200873360Y-145536920D01*
X200647300Y-145237200D01*
X200357740Y-144843500D01*
X200009760Y-144368520D01*
X199616060Y-143827500D01*
X199184260Y-143235680D01*
X198729600Y-142605760D01*
X198257160Y-141952980D01*
X197782180Y-141290040D01*
X197312280Y-140634720D01*
X196857620Y-139999720D01*
X196428360Y-139397740D01*
X196034660Y-138846560D01*
X195689220Y-138356340D01*
X195402200Y-137944860D01*
X195181220Y-137627360D01*
X195038980Y-137414000D01*
X194998340Y-137350500D01*
X194965320Y-137253980D01*
X194886580Y-137005060D01*
X194769740Y-136618980D01*
X194614800Y-136105900D01*
X194426840Y-135481060D01*
X194210940Y-134757160D01*
X193969640Y-133941820D01*
X193705480Y-133052820D01*
X193426080Y-132100320D01*
X193131440Y-131094480D01*
X192994280Y-130632200D01*
X191061340Y-124033280D01*
X190964820Y-119524780D01*
X190870840Y-115018820D01*
X192211960Y-111970820D01*
X193553080Y-108922820D01*
X196082920Y-105031540D01*
X198610220Y-101140260D01*
X198180960Y-100756720D01*
X198015860Y-100606860D01*
X197746620Y-100357940D01*
X197388480Y-100025200D01*
X196961760Y-99628960D01*
X196484240Y-99181920D01*
X195971160Y-98704400D01*
X195595240Y-98351340D01*
X194937380Y-97731580D01*
X194403980Y-97218500D01*
X193989960Y-96807020D01*
X193687700Y-96492060D01*
X193492120Y-96268540D01*
X193400680Y-96131380D01*
X193393060Y-96108520D01*
X193370200Y-95976440D01*
X193327020Y-95697040D01*
X193260980Y-95290640D01*
X193179700Y-94772480D01*
X193083180Y-94165420D01*
X192976500Y-93487240D01*
X192862200Y-92755720D01*
X192826640Y-92524580D01*
X192300860Y-89164160D01*
X193045080Y-86639400D01*
X193786760Y-84114640D01*
X195453000Y-80772000D01*
X197116700Y-77426820D01*
X196400420Y-73159620D01*
X195686680Y-68889880D01*
X195922900Y-68397120D01*
X196093080Y-68087240D01*
X196237860Y-67924680D01*
X196349620Y-67911980D01*
X196400420Y-67998340D01*
X196479160Y-68028820D01*
X196684900Y-68013580D01*
X197032880Y-67952620D01*
X197429120Y-67863720D01*
X197825360Y-67777360D01*
X198165720Y-67713860D01*
X198417180Y-67678300D01*
X198539100Y-67675760D01*
X198630540Y-67734180D01*
X198846440Y-67876420D01*
X199171560Y-68094860D01*
X199593200Y-68381880D01*
X200093580Y-68724780D01*
X200657460Y-69115940D01*
X201274680Y-69540120D01*
X201709020Y-69842380D01*
X202351640Y-70286880D01*
X202953620Y-70698360D01*
X203502260Y-71069200D01*
X203979780Y-71389240D01*
X204376020Y-71648320D01*
X204670660Y-71836280D01*
X204853540Y-71942960D01*
X204904340Y-71965820D01*
X205013560Y-71945500D01*
X205270100Y-71887080D01*
X205656180Y-71793100D01*
X206151480Y-71671180D01*
X206743300Y-71521320D01*
X207411320Y-71353680D01*
X208140300Y-71165720D01*
X208686400Y-71026020D01*
X212323680Y-70088760D01*
X214683340Y-70545960D01*
X217043000Y-71005700D01*
X220855540Y-68745100D01*
X224665540Y-66484500D01*
X225259900Y-65689480D01*
X225501200Y-65377060D01*
X225706940Y-65115440D01*
X225859340Y-64937640D01*
X225930460Y-64869060D01*
X226052380Y-64869060D01*
X226303840Y-64902080D01*
X226649280Y-64957960D01*
X227055680Y-65031620D01*
X227487480Y-65115440D01*
X227916740Y-65204340D01*
X228305360Y-65290700D01*
X228622860Y-65369440D01*
X228833680Y-65430400D01*
X228907340Y-65463420D01*
X228965760Y-65590420D01*
X229062280Y-65829180D01*
X229176580Y-66131440D01*
X229199440Y-66194940D01*
X229428040Y-66819780D01*
X228790500Y-69824600D01*
X228152960Y-72829420D01*
X228691440Y-74312780D01*
X228866700Y-74787760D01*
X229024180Y-75209400D01*
X229156260Y-75552300D01*
X229252780Y-75788520D01*
X229303580Y-75890120D01*
X229369620Y-75973940D01*
X229532180Y-76177140D01*
X229781100Y-76481940D01*
X230101140Y-76880720D01*
X230482140Y-77353160D01*
X230916480Y-77889100D01*
X231388920Y-78475840D01*
X231775000Y-78950820D01*
X232270300Y-79565500D01*
X232735120Y-80139540D01*
X233159300Y-80662780D01*
X233527600Y-81119980D01*
X233829860Y-81495900D01*
X234058460Y-81777840D01*
X234200700Y-81953100D01*
X234241340Y-82006440D01*
X234261660Y-82108040D01*
X234292140Y-82356960D01*
X234330240Y-82737960D01*
X234375960Y-83233260D01*
X234429300Y-83817460D01*
X234485180Y-84477860D01*
X234543600Y-85194140D01*
X234602020Y-85945980D01*
X234662980Y-86713060D01*
X234718860Y-87477600D01*
X234774740Y-88224360D01*
X234825540Y-88927940D01*
X234868720Y-89573100D01*
X234906820Y-90142060D01*
X234932220Y-90611960D01*
X234950000Y-90967560D01*
X234955080Y-91186000D01*
X234952540Y-91249500D01*
X234899200Y-91346020D01*
X234769660Y-91569540D01*
X234571540Y-91912440D01*
X234312460Y-92354400D01*
X234002580Y-92882720D01*
X233646980Y-93482160D01*
X233258360Y-94137480D01*
X232869740Y-94792800D01*
X232404920Y-95577660D01*
X231990900Y-96286320D01*
X231635300Y-96903540D01*
X231343200Y-97424240D01*
X231119680Y-97833180D01*
X230969820Y-98125280D01*
X230901240Y-98287840D01*
X230896160Y-98315780D01*
X230962200Y-98399600D01*
X231124760Y-98600260D01*
X231373680Y-98907600D01*
X231698800Y-99303840D01*
X232089960Y-99778820D01*
X232537000Y-100319840D01*
X233027220Y-100911660D01*
X233550460Y-101544120D01*
X233611420Y-101617780D01*
X234254040Y-102397560D01*
X234792520Y-103055420D01*
X235237020Y-103604060D01*
X235592620Y-104051100D01*
X235861860Y-104404160D01*
X236057440Y-104673400D01*
X236184440Y-104866440D01*
X236250480Y-104993440D01*
X236260640Y-105044240D01*
X236288580Y-105249980D01*
X236357160Y-105537000D01*
X236420660Y-105742740D01*
X236524800Y-106047540D01*
X236636560Y-106387900D01*
X236761020Y-106773980D01*
X236900720Y-107221020D01*
X237060740Y-107736640D01*
X237246160Y-108338620D01*
X237459520Y-109037120D01*
X237703360Y-109844840D01*
X237982760Y-110777020D01*
X238302800Y-111841280D01*
X238668560Y-113055400D01*
X238716820Y-113217960D01*
X240256060Y-118361460D01*
X240256060Y-118361460D01*
M02*
