G04 #@! TF.FileFunction,Soldermask,Bot*
%FSLAX46Y46*%
G04 Gerber Fmt 4.6, Leading zero omitted, Abs format (unit mm)*
G04 Created by KiCad (PCBNEW 0.201507042246+5884~23~ubuntu14.04.1-product) date Thu 09 Jul 2015 02:20:40 PM PDT*
%MOMM*%
G01*
G04 APERTURE LIST*
%ADD10C,0.150000*%
%ADD11O,1.600000X1.600000*%
%ADD12C,2.032000*%
%ADD13R,2.032000X2.032000*%
%ADD14O,2.032000X2.032000*%
%ADD15C,1.501140*%
%ADD16R,2.032000X1.727200*%
%ADD17O,2.032000X1.727200*%
%ADD18R,1.300000X1.300000*%
%ADD19C,1.300000*%
%ADD20C,1.998980*%
%ADD21R,1.900000X2.000000*%
%ADD22C,1.900000*%
%ADD23C,1.397000*%
G04 APERTURE END LIST*
D10*
D11*
X219837000Y-110109000D03*
X219837000Y-112649000D03*
X219837000Y-115189000D03*
X219837000Y-117729000D03*
X219837000Y-120269000D03*
X219837000Y-122809000D03*
X219837000Y-125349000D03*
X219837000Y-127889000D03*
X219837000Y-130429000D03*
X219837000Y-132969000D03*
X219837000Y-135509000D03*
X219837000Y-138049000D03*
X219837000Y-140589000D03*
X219837000Y-143129000D03*
X227457000Y-143129000D03*
X227457000Y-140589000D03*
X227457000Y-138049000D03*
X227457000Y-135509000D03*
X227457000Y-132969000D03*
X227457000Y-130429000D03*
X227457000Y-127889000D03*
X227457000Y-125349000D03*
X227457000Y-122809000D03*
X227457000Y-120269000D03*
X227457000Y-117729000D03*
X227457000Y-115189000D03*
X227457000Y-112649000D03*
X227457000Y-110109000D03*
D10*
G36*
X198628000Y-73191841D02*
X197191159Y-71755000D01*
X198628000Y-70318159D01*
X200064841Y-71755000D01*
X198628000Y-73191841D01*
X198628000Y-73191841D01*
G37*
D12*
X200424051Y-73551051D02*
X200424051Y-73551051D01*
D10*
G36*
X225307118Y-69078882D02*
X226323118Y-67319118D01*
X228082882Y-68335118D01*
X227066882Y-70094882D01*
X225307118Y-69078882D01*
X225307118Y-69078882D01*
G37*
D12*
X225425000Y-70906705D02*
X225425000Y-70906705D01*
D13*
X199009000Y-118110000D03*
D14*
X196469000Y-118110000D03*
D15*
X215797595Y-93344251D03*
X210922405Y-93599749D03*
D10*
G36*
X203728353Y-105787894D02*
X203033368Y-107697349D01*
X199596349Y-106446376D01*
X200291334Y-104536921D01*
X203728353Y-105787894D01*
X203728353Y-105787894D01*
G37*
G36*
X200228505Y-111541884D02*
X199533520Y-113451339D01*
X198578793Y-113103846D01*
X199273778Y-111194391D01*
X200228505Y-111541884D01*
X200228505Y-111541884D01*
G37*
G36*
X198080368Y-110760026D02*
X197385383Y-112669481D01*
X196430656Y-112321988D01*
X197125641Y-110412533D01*
X198080368Y-110760026D01*
X198080368Y-110760026D01*
G37*
G36*
X202376643Y-112323742D02*
X201681658Y-114233197D01*
X200726931Y-113885704D01*
X201421916Y-111976249D01*
X202376643Y-112323742D01*
X202376643Y-112323742D01*
G37*
D16*
X211836000Y-114173000D03*
D17*
X211836000Y-116713000D03*
X211836000Y-119253000D03*
X211836000Y-121793000D03*
X211836000Y-124333000D03*
X211836000Y-126873000D03*
X211836000Y-129413000D03*
X211836000Y-131953000D03*
X211836000Y-134493000D03*
X211836000Y-137033000D03*
D16*
X235331000Y-137033000D03*
D17*
X235331000Y-134493000D03*
X235331000Y-131953000D03*
X235331000Y-129413000D03*
X235331000Y-126873000D03*
X235331000Y-124333000D03*
X235331000Y-121793000D03*
X235331000Y-119253000D03*
X235331000Y-116713000D03*
X235331000Y-114173000D03*
D18*
X204038200Y-116890800D03*
D19*
X204038200Y-114390800D03*
D18*
X194462400Y-111252000D03*
D19*
X194462400Y-113752000D03*
D18*
X238252000Y-119761000D03*
D19*
X238252000Y-117261000D03*
D18*
X216204800Y-108788200D03*
D19*
X213704800Y-108788200D03*
D18*
X208457800Y-118389400D03*
D19*
X208457800Y-115889400D03*
D20*
X193677209Y-121434989D03*
X192808750Y-116509709D03*
X199124170Y-139530969D03*
X203823817Y-141241500D03*
X217883611Y-77523009D03*
X222808891Y-76654550D03*
X202859640Y-77978000D03*
X207860900Y-77978000D03*
X232912920Y-106166491D03*
X235413550Y-110497709D03*
X230357680Y-109352509D03*
X227857050Y-105021291D03*
X195639569Y-132271370D03*
X197350100Y-136971017D03*
D21*
X206857600Y-83362800D03*
D22*
X204317600Y-83362800D03*
D21*
X222097600Y-81483200D03*
D22*
X219557600Y-81483200D03*
D23*
X205740000Y-121615200D03*
X205740000Y-126695200D03*
X198120000Y-121615200D03*
X198120000Y-126695200D03*
X207264000Y-130860800D03*
X207264000Y-135940800D03*
X199644000Y-130860800D03*
X199644000Y-135940800D03*
X214020400Y-141325600D03*
X214020400Y-146405600D03*
X206400400Y-141325600D03*
X206400400Y-146405600D03*
D20*
X195596631Y-129145430D03*
X193886100Y-124445783D03*
M02*
