G04 #@! TF.FileFunction,Copper,L1,Top,Signal*
%FSLAX46Y46*%
G04 Gerber Fmt 4.6, Leading zero omitted, Abs format (unit mm)*
G04 Created by KiCad (PCBNEW 0.201507042246+5884~23~ubuntu14.04.1-product) date Thu 09 Jul 2015 02:20:38 PM PDT*
%MOMM*%
G01*
G04 APERTURE LIST*
%ADD10C,0.150000*%
%ADD11O,1.600000X1.600000*%
%ADD12C,2.032000*%
%ADD13R,2.032000X2.032000*%
%ADD14O,2.032000X2.032000*%
%ADD15C,1.501140*%
%ADD16R,2.032000X1.727200*%
%ADD17O,2.032000X1.727200*%
%ADD18R,1.300000X1.300000*%
%ADD19C,1.300000*%
%ADD20C,1.998980*%
%ADD21R,2.100000X12.700000*%
%ADD22R,1.500000X12.065000*%
%ADD23R,1.900000X2.000000*%
%ADD24C,1.900000*%
%ADD25C,1.397000*%
%ADD26C,0.900000*%
%ADD27C,0.254000*%
G04 APERTURE END LIST*
D10*
D11*
X219837000Y-110109000D03*
X219837000Y-112649000D03*
X219837000Y-115189000D03*
X219837000Y-117729000D03*
X219837000Y-120269000D03*
X219837000Y-122809000D03*
X219837000Y-125349000D03*
X219837000Y-127889000D03*
X219837000Y-130429000D03*
X219837000Y-132969000D03*
X219837000Y-135509000D03*
X219837000Y-138049000D03*
X219837000Y-140589000D03*
X219837000Y-143129000D03*
X227457000Y-143129000D03*
X227457000Y-140589000D03*
X227457000Y-138049000D03*
X227457000Y-135509000D03*
X227457000Y-132969000D03*
X227457000Y-130429000D03*
X227457000Y-127889000D03*
X227457000Y-125349000D03*
X227457000Y-122809000D03*
X227457000Y-120269000D03*
X227457000Y-117729000D03*
X227457000Y-115189000D03*
X227457000Y-112649000D03*
X227457000Y-110109000D03*
D10*
G36*
X198628000Y-73191841D02*
X197191159Y-71755000D01*
X198628000Y-70318159D01*
X200064841Y-71755000D01*
X198628000Y-73191841D01*
X198628000Y-73191841D01*
G37*
D12*
X200424051Y-73551051D02*
X200424051Y-73551051D01*
D10*
G36*
X225307118Y-69078882D02*
X226323118Y-67319118D01*
X228082882Y-68335118D01*
X227066882Y-70094882D01*
X225307118Y-69078882D01*
X225307118Y-69078882D01*
G37*
D12*
X225425000Y-70906705D02*
X225425000Y-70906705D01*
D13*
X199009000Y-118110000D03*
D14*
X196469000Y-118110000D03*
D15*
X215797595Y-93344251D03*
X210922405Y-93599749D03*
D16*
X211836000Y-114173000D03*
D17*
X211836000Y-116713000D03*
X211836000Y-119253000D03*
X211836000Y-121793000D03*
X211836000Y-124333000D03*
X211836000Y-126873000D03*
X211836000Y-129413000D03*
X211836000Y-131953000D03*
X211836000Y-134493000D03*
X211836000Y-137033000D03*
D16*
X235331000Y-137033000D03*
D17*
X235331000Y-134493000D03*
X235331000Y-131953000D03*
X235331000Y-129413000D03*
X235331000Y-126873000D03*
X235331000Y-124333000D03*
X235331000Y-121793000D03*
X235331000Y-119253000D03*
X235331000Y-116713000D03*
X235331000Y-114173000D03*
D18*
X204038200Y-116890800D03*
D19*
X204038200Y-114390800D03*
D18*
X194462400Y-111252000D03*
D19*
X194462400Y-113752000D03*
D18*
X238252000Y-119761000D03*
D19*
X238252000Y-117261000D03*
D18*
X216204800Y-108788200D03*
D19*
X213704800Y-108788200D03*
D18*
X208457800Y-118389400D03*
D19*
X208457800Y-115889400D03*
D20*
X193677209Y-121434989D03*
X192808750Y-116509709D03*
X199124170Y-139530969D03*
X203823817Y-141241500D03*
X217883611Y-77523009D03*
X222808891Y-76654550D03*
X202859640Y-77978000D03*
X207860900Y-77978000D03*
X232912920Y-106166491D03*
X235413550Y-110497709D03*
X230357680Y-109352509D03*
X227857050Y-105021291D03*
X195639569Y-132271370D03*
X197350100Y-136971017D03*
D21*
X222402400Y-156108400D03*
D22*
X219671900Y-156108400D03*
X217512900Y-156108400D03*
D21*
X214782400Y-156108400D03*
D23*
X206857600Y-83362800D03*
D24*
X204317600Y-83362800D03*
D23*
X222097600Y-81483200D03*
D24*
X219557600Y-81483200D03*
D25*
X205740000Y-121615200D03*
X205740000Y-126695200D03*
X198120000Y-121615200D03*
X198120000Y-126695200D03*
X207264000Y-130860800D03*
X207264000Y-135940800D03*
X199644000Y-130860800D03*
X199644000Y-135940800D03*
X214020400Y-141325600D03*
X214020400Y-146405600D03*
X206400400Y-141325600D03*
X206400400Y-146405600D03*
D20*
X195596631Y-129145430D03*
X193886100Y-124445783D03*
D26*
X202311000Y-133248400D03*
X206552800Y-133273800D03*
X222961200Y-108026200D03*
X201320400Y-115620800D03*
X217424000Y-146761200D03*
X209321400Y-131775200D03*
X232156000Y-111709200D03*
X231444800Y-122885200D03*
X205460600Y-110413800D03*
X221716600Y-145237200D03*
X224459800Y-143459200D03*
D27*
X212852000Y-126873000D02*
X213106000Y-126873000D01*
X210922405Y-102489805D02*
X214934800Y-106502200D01*
X214934800Y-106502200D02*
X214934800Y-110769400D01*
X214934800Y-110769400D02*
X216865200Y-112699800D01*
X216865200Y-112699800D02*
X216865200Y-125857000D01*
X216865200Y-125857000D02*
X215849200Y-126873000D01*
X215849200Y-126873000D02*
X213106000Y-126873000D01*
X210922405Y-93599749D02*
X210922405Y-102489805D01*
X207264000Y-135940800D02*
X207264000Y-133985000D01*
X202323700Y-133261100D02*
X202361800Y-133223000D01*
X202311000Y-133248400D02*
X202323700Y-133261100D01*
X207264000Y-133985000D02*
X206552800Y-133273800D01*
X215569800Y-147193000D02*
X215569800Y-145770600D01*
X215569800Y-145770600D02*
X207314800Y-137515600D01*
X207314800Y-137515600D02*
X207314800Y-135890000D01*
X207011340Y-83058000D02*
X206781400Y-83287940D01*
X213704800Y-106745400D02*
X213704800Y-108788200D01*
X206781400Y-83287940D02*
X206781400Y-99822000D01*
X206781400Y-99822000D02*
X213704800Y-106745400D01*
X222961200Y-108153200D02*
X222961200Y-108026200D01*
X227457000Y-112649000D02*
X222961200Y-108153200D01*
X199009000Y-117932200D02*
X199009000Y-118110000D01*
X201320400Y-115620800D02*
X199009000Y-117932200D01*
X208457800Y-114035200D02*
X213704800Y-108788200D01*
X208457800Y-115889400D02*
X208457800Y-114035200D01*
X215112600Y-147650200D02*
X215569800Y-147193000D01*
X215112600Y-155829000D02*
X215112600Y-147650200D01*
X202361800Y-121996200D02*
X202361800Y-133223000D01*
X199009000Y-118643400D02*
X202361800Y-121996200D01*
X199009000Y-118110000D02*
X199009000Y-118643400D01*
X226441000Y-112649000D02*
X222783400Y-116306600D01*
X222783400Y-116306600D02*
X222783400Y-124942600D01*
X222783400Y-124942600D02*
X219837000Y-127889000D01*
X227457000Y-112649000D02*
X226441000Y-112649000D01*
X214757000Y-129413000D02*
X217881200Y-126288800D01*
X217881200Y-126288800D02*
X217881200Y-110464600D01*
X217881200Y-110464600D02*
X216204800Y-108788200D01*
X214553800Y-129413000D02*
X214757000Y-129413000D01*
X213106000Y-129413000D02*
X214553800Y-129413000D01*
X215797595Y-108380995D02*
X216204800Y-108788200D01*
X215797595Y-93344251D02*
X215797595Y-108380995D01*
X214553800Y-129413000D02*
X211836000Y-129413000D01*
X229743000Y-128143000D02*
X236220000Y-128143000D01*
X227457000Y-130429000D02*
X229743000Y-128143000D01*
X237617000Y-126746000D02*
X237744000Y-126619000D01*
X236220000Y-128143000D02*
X237617000Y-126746000D01*
X238252000Y-126111000D02*
X237617000Y-126746000D01*
X238252000Y-119761000D02*
X238252000Y-126111000D01*
X222631000Y-159131000D02*
X222504000Y-159258000D01*
X222427800Y-156095700D02*
X222427800Y-148158200D01*
X222427800Y-148158200D02*
X227457000Y-143129000D01*
X227457000Y-143129000D02*
X227431600Y-143129000D01*
X215722200Y-139217400D02*
X216763600Y-140258800D01*
X217424000Y-146761200D02*
X216763600Y-146100800D01*
X216763600Y-146100800D02*
X216763600Y-140258800D01*
X214757000Y-139217400D02*
X215722200Y-139217400D01*
X210667600Y-139217400D02*
X214757000Y-139217400D01*
X209372200Y-137922000D02*
X210667600Y-139217400D01*
X209372200Y-131826000D02*
X209372200Y-137922000D01*
X209321400Y-131775200D02*
X209372200Y-131826000D01*
X232156000Y-122174000D02*
X232156000Y-111709200D01*
X231444800Y-122885200D02*
X232156000Y-122174000D01*
X197993000Y-121666000D02*
X197993000Y-122047000D01*
X211836000Y-137033000D02*
X216281000Y-137033000D01*
X216281000Y-137033000D02*
X219837000Y-140589000D01*
X205613000Y-117195600D02*
X205613000Y-121666000D01*
X205613000Y-123317000D02*
X203911200Y-125018800D01*
X205613000Y-121666000D02*
X205613000Y-123317000D01*
X205613000Y-112141000D02*
X205613000Y-117195600D01*
X201701400Y-79136240D02*
X201701400Y-101625400D01*
X201701400Y-101625400D02*
X205498700Y-105422700D01*
X202859640Y-77978000D02*
X201701400Y-79136240D01*
X205498700Y-112026700D02*
X205613000Y-112141000D01*
X205498700Y-110413800D02*
X205498700Y-112026700D01*
X205498700Y-105422700D02*
X205498700Y-110413800D01*
X205460600Y-110413800D02*
X205498700Y-110413800D01*
X205460600Y-110413800D02*
X205498700Y-110413800D01*
X205308200Y-116890800D02*
X205613000Y-117195600D01*
X204038200Y-116890800D02*
X205308200Y-116890800D01*
X203911200Y-125018800D02*
X203911200Y-138887200D01*
X203911200Y-138887200D02*
X206375000Y-141351000D01*
X217805000Y-159067500D02*
X217614500Y-159258000D01*
X217538300Y-156095700D02*
X217538300Y-149440900D01*
X220294200Y-146685000D02*
X220294200Y-146659600D01*
X217538300Y-149440900D02*
X220294200Y-146685000D01*
X220294200Y-146659600D02*
X221716600Y-145237200D01*
X224459800Y-143459200D02*
X224561400Y-143357600D01*
X224561400Y-143357600D02*
X224561400Y-130784600D01*
X224561400Y-130784600D02*
X227457000Y-127889000D01*
X219697300Y-156095700D02*
X219697300Y-149339300D01*
X220268800Y-148767800D02*
X220268800Y-148742400D01*
X219697300Y-149339300D02*
X220268800Y-148767800D01*
X220268800Y-148742400D02*
X223164400Y-145846800D01*
X223164400Y-145846800D02*
X223164400Y-129641600D01*
X223164400Y-129641600D02*
X227457000Y-125349000D01*
X216789000Y-80264000D02*
X216789000Y-87757000D01*
X216789000Y-87757000D02*
X216789000Y-88646000D01*
X216789000Y-88646000D02*
X216789000Y-89154000D01*
X219519500Y-91884500D02*
X219710000Y-92075000D01*
X216789000Y-89154000D02*
X219519500Y-91884500D01*
X221615000Y-93980000D02*
X221615000Y-123571000D01*
X221615000Y-123571000D02*
X219837000Y-125349000D01*
X219519500Y-91884500D02*
X221615000Y-93980000D01*
X216789000Y-78617620D02*
X216789000Y-80264000D01*
X217883611Y-77523009D02*
X216789000Y-78617620D01*
X219837000Y-135509000D02*
X220472000Y-135509000D01*
X198120000Y-126695200D02*
X198653400Y-126695200D01*
X193677209Y-121434989D02*
X194840989Y-121434989D01*
X198120000Y-124714000D02*
X198120000Y-126695200D01*
X194840989Y-121434989D02*
X198120000Y-124714000D01*
X230357680Y-122676920D02*
X228904800Y-124129800D01*
X230357680Y-109352509D02*
X230357680Y-122676920D01*
X207441800Y-130683000D02*
X207314800Y-130810000D01*
X228904800Y-124129800D02*
X226720400Y-124129800D01*
X226720400Y-124129800D02*
X221488000Y-129362200D01*
X221488000Y-129362200D02*
X221488000Y-130911600D01*
X221488000Y-130911600D02*
X220726000Y-131673600D01*
X220726000Y-131673600D02*
X213817200Y-131673600D01*
X213817200Y-131673600D02*
X212826600Y-130683000D01*
X212826600Y-130683000D02*
X207441800Y-130683000D01*
X195596631Y-129145430D02*
X195896630Y-129145430D01*
X195896630Y-129145430D02*
X201676000Y-134924800D01*
X201676000Y-134924800D02*
X201676000Y-136979139D01*
X201676000Y-136979139D02*
X199124170Y-139530969D01*
X198895570Y-139784969D02*
X198895570Y-140170770D01*
X198895570Y-140170770D02*
X201726800Y-143002000D01*
X201726800Y-143002000D02*
X205333600Y-143002000D01*
X205333600Y-143002000D02*
X206400400Y-144068800D01*
X206400400Y-144068800D02*
X206400400Y-146405600D01*
M02*
